<svg width="58" height="113" viewBox="0 0 58 113" fill="none" xmlns="http://www.w3.org/2000/svg">
<path d="M3.58595 110.592C4.63795 110.902 5.76395 110.908 6.85395 110.95C7.85295 110.988 8.93595 111.196 9.86295 110.77C10.2769 110.58 10.1779 110.055 9.82295 109.878C8.96695 109.449 7.91895 109.612 6.98095 109.612C5.88695 109.613 4.71795 109.562 3.65395 109.833C3.30495 109.923 3.17995 110.472 3.58595 110.592Z" fill="#3B79BD"/>
<path d="M36.4131 111.849C37.3191 111.288 38.1931 110.685 39.1261 110.164C40.0831 109.63 41.3841 109.466 42.1771 108.712C42.3921 108.507 42.3781 108.074 42.0481 107.981C40.9531 107.674 39.8271 108.303 38.8651 108.793C37.7631 109.356 36.7331 110.12 35.8621 110.996C35.4811 111.379 35.8881 112.174 36.4131 111.849Z" fill="#3B79BD"/>
<path d="M36.8387 110.592C37.3957 110.895 37.9697 110.901 38.5977 110.95C39.4257 111.016 40.4547 111.167 41.2717 110.988C41.8507 110.862 42.0507 109.911 41.3837 109.739C40.5517 109.526 39.5747 109.636 38.7207 109.655C38.0957 109.669 37.4607 109.64 36.8947 109.919C36.6547 110.037 36.5677 110.446 36.8387 110.592Z" fill="#3B79BD"/>
<path d="M37.8428 112.113C38.2118 112.128 38.5778 112.13 38.9468 112.113C39.3828 112.092 39.6838 111.895 40.0228 111.642C40.2248 111.492 40.0528 111.173 39.8208 111.213C39.5308 111.263 39.2378 111.196 38.9468 111.238C38.6068 111.286 38.2638 111.287 37.9208 111.289C37.3958 111.29 37.3038 112.092 37.8428 112.113Z" fill="#3B79BD"/>
<path d="M16.1671 92.2747C16.2031 92.2297 16.2391 92.1857 16.2751 92.1407C14.4741 91.0917 12.6731 90.0437 10.8721 88.9957C10.1421 90.7337 9.52706 92.5067 8.92306 94.2967C8.45906 95.6717 9.21906 97.2327 10.4081 97.9477C17.4641 102.188 19.3421 96.8967 20.8071 90.3367C18.6901 90.0497 16.5731 89.7637 14.4571 89.4777C14.6031 91.7577 14.5371 93.9867 14.4001 96.2667C14.1451 100.518 20.3561 100.279 20.8651 96.2667C21.4541 91.6277 24.3501 89.3117 28.8261 89.6457L25.7091 87.2727C26.0741 89.7377 25.7141 92.0447 26.3821 94.4847C26.9421 96.5337 29.3131 97.4267 31.1311 96.4167C34.0661 94.7877 38.9891 97.3907 40.2771 92.7087C40.9801 90.1567 38.2711 86.0057 36.9491 83.9887C34.6751 80.5177 29.0741 83.7537 31.3671 87.2517C32.4071 88.8387 33.2701 90.6957 33.9751 92.4537C35.1611 90.2037 34.8991 89.2797 33.1881 89.6847C32.4741 89.6847 31.7631 89.7287 31.0541 89.8157C29.8691 89.9247 28.8991 90.2617 27.8671 90.8347C29.4501 91.4787 31.0331 92.1227 32.6161 92.7667C31.9801 90.4417 32.2971 87.9417 31.9431 85.5537C31.7251 84.0817 30.1361 83.2777 28.8261 83.1807C20.4691 82.5567 15.4281 88.1677 14.4001 96.2667H20.8651C21.0031 93.9867 21.0671 91.7577 20.9221 89.4777C20.7001 85.9897 15.4051 84.8887 14.5721 88.6177C14.3371 89.6057 14.1311 90.5987 13.9551 91.5977C13.5021 93.9577 15.1391 93.2467 13.6721 92.3657L15.1571 96.0157C15.7641 94.2197 16.3731 92.4587 17.1061 90.7137C18.3471 87.7617 13.6791 85.1167 11.7031 87.5687L11.5951 87.7037C9.00606 90.9177 13.5511 95.5227 16.1671 92.2747Z" fill="#F2C33F"/>
<path d="M6.82805 64.2063C9.45605 64.5033 11.944 63.5653 14.2761 62.4463C16.121 61.5603 19.451 59.9783 20.312 58.0173C20.408 57.8003 20.157 57.6183 19.964 57.6983C18.078 58.4873 16.368 60.3563 14.5391 61.3793C12.258 62.6573 9.55405 63.8133 6.89105 63.5523C6.46805 63.5103 6.40805 64.1583 6.82805 64.2063Z" fill="black"/>
<path d="M0.193372 61.7171C1.21237 62.4681 2.47037 62.7161 3.52737 63.3691C3.71337 63.4851 4.00637 63.2941 3.87837 63.0731C3.56637 62.5391 3.23337 62.3311 2.64837 62.0941C1.93937 61.8081 1.19437 61.6381 0.558372 61.1961C0.220372 60.9611 -0.136628 61.4731 0.193372 61.7171Z" fill="black"/>
<path d="M0.822166 66.4232C1.02017 66.3952 1.24817 66.4482 1.45817 66.4222C1.78117 66.3802 2.14917 66.1322 2.41517 65.9582C3.15517 65.4762 3.88617 64.9522 4.51617 64.3302C4.60217 64.2452 4.67617 64.1142 4.63917 63.9882C4.59717 63.8402 4.55017 63.7722 4.40717 63.7092C4.28617 63.6552 4.14317 63.6952 4.04417 63.7732C3.48517 64.2092 2.97617 64.7052 2.43317 65.1602C2.13317 65.4122 1.82017 65.6482 1.51017 65.8882C1.36217 66.0042 1.02617 66.3812 0.819166 66.3592C0.773166 66.3542 0.774166 66.4302 0.822166 66.4232Z" fill="black"/>
<path d="M0.203261 64.1273C1.40426 64.2363 2.93826 63.8013 3.84126 62.9833C4.00326 62.8353 3.88826 62.4933 3.64326 62.5643C3.04726 62.7373 2.48626 63.0103 1.91326 63.2483C1.30726 63.4993 0.724261 63.6813 0.181261 64.0563C0.151261 64.0773 0.171261 64.1243 0.203261 64.1273Z" fill="black"/>
<path d="M38.4658 59.5092C38.5068 59.5092 38.5138 59.4452 38.4718 59.4452C38.4308 59.4452 38.4238 59.5092 38.4658 59.5092Z" fill="black"/>
<path d="M38.4023 59.657C40.7693 60.217 42.8463 61.206 44.9723 62.375C46.6963 63.322 48.5803 64.577 50.5773 64.703C50.8533 64.72 51.0643 64.304 50.7793 64.153C48.8083 63.107 46.7013 62.282 44.7043 61.253C42.7293 60.236 40.7533 59.245 38.4873 59.286C38.2883 59.289 38.1733 59.603 38.4023 59.657Z" fill="black"/>
<path d="M51.1625 63.2821C51.9155 63.3791 52.6165 63.2111 53.3115 62.9291C54.0705 62.6211 55.0935 62.2411 55.6425 61.6281C55.7665 61.4901 55.6385 61.2331 55.4595 61.2311C54.7355 61.2241 54.1155 61.7251 53.5005 62.0691C52.7465 62.4901 52.0195 62.8401 51.1475 62.9171C50.9335 62.9361 50.9645 63.2561 51.1625 63.2821Z" fill="black"/>
<path d="M51.9312 65.9008C52.2522 66.5278 52.6192 67.0468 53.0962 67.5678C53.4632 67.9688 53.9742 68.6898 54.5182 68.8348C54.7002 68.8828 54.8822 68.7558 54.8512 68.5568C54.7672 68.0148 54.1302 67.5888 53.7552 67.2338C53.2452 66.7538 52.7192 66.2268 52.3182 65.6508C52.1662 65.4328 51.8132 65.6698 51.9312 65.9008Z" fill="black"/>
<path d="M54.3812 65.7611C54.7972 65.6171 55.2232 65.5811 55.6602 65.5781C56.1202 65.5741 56.5702 65.6571 57.0132 65.5091C57.2122 65.4421 57.1422 65.1801 56.9952 65.1091C56.1892 64.7181 54.9442 64.9261 54.1522 65.2821C53.8342 65.4251 54.0652 65.8691 54.3812 65.7611Z" fill="black"/>
<path d="M11.1631 86.788C10.7601 91.665 7.29812 95.303 5.00612 99.403C4.80912 99.756 5.11812 100.167 5.51512 100.005C10.5571 97.944 16.2231 100.657 21.4371 100.285C22.5941 100.202 23.3701 99.302 23.5681 98.205C24.1621 94.915 24.0871 91.639 26.0771 88.758C25.7951 88.734 25.5141 88.71 25.2311 88.687C26.8761 91.881 27.6861 95.17 27.5351 98.77C27.5161 99.234 28.1781 99.571 28.4481 99.106C31.1681 94.422 39.5621 99.126 43.6471 96.412C43.8401 96.284 43.8711 95.984 43.7811 95.791C42.0411 92.065 40.2971 88.325 38.0821 84.851C37.7111 84.269 36.7251 84.728 37.1011 85.317C38.8891 88.111 40.3571 91.08 41.7921 94.066C42.5561 95.657 42.7491 96.026 40.9061 96.285C39.7401 96.448 38.5201 96.346 37.3501 96.286C34.2661 96.129 29.4851 95.309 27.6241 98.529C27.9291 98.641 28.2321 98.753 28.5371 98.865C28.6861 95.093 27.8511 91.612 26.1181 88.265C25.9511 87.943 25.4881 87.881 25.2721 88.194C24.0121 90.029 23.4471 92.123 23.0641 94.292C22.8711 95.381 22.8131 96.486 22.7091 97.584C22.5221 99.545 20.9651 99.414 19.4661 99.316C14.8221 99.011 9.64412 97.39 5.16512 99.268C5.33412 99.469 5.50412 99.67 5.67412 99.871C7.92012 95.796 11.8511 91.784 11.7161 86.841C11.7071 86.493 11.1931 86.422 11.1631 86.788Z" fill="#CBDD54"/>
<path d="M11.3603 102.277C10.9853 105.15 9.8903 107.945 9.94529 110.863C9.95029 111.134 10.1623 110.903 9.70129 110.895C9.1723 110.885 8.64129 110.914 8.1133 110.929C6.9563 110.961 5.7973 110.983 4.64729 110.837C4.22629 110.783 2.57429 110.277 3.68229 110C4.52429 109.789 5.4363 109.77 6.2983 109.736C7.63429 109.684 9.12229 109.951 10.4343 109.7C10.7293 109.644 10.7963 109.194 10.4893 109.097C9.1533 108.677 7.40629 108.922 6.0283 108.977C5.14729 109.013 3.12629 108.89 2.50629 109.731C1.90029 110.552 3.23829 111.194 3.82929 111.428C5.72229 112.176 8.24029 111.609 10.2253 111.624C10.4083 111.625 10.6033 111.509 10.6103 111.305C10.7163 108.246 11.6663 105.361 11.8113 102.32C11.8263 102.027 11.3983 101.987 11.3603 102.277Z" fill="black"/>
<path d="M34.2773 100.346C34.2023 102.071 34.3223 103.81 34.5703 105.517C34.8703 107.58 35.5463 109.615 35.1413 111.713C35.1043 111.909 35.2913 112.115 35.4823 112.124C36.6843 112.183 43.2443 112.384 42.9153 110.257C42.7013 108.871 40.8133 108.346 39.6463 108.483C38.6713 108.598 35.5643 108.926 35.2993 110.215C35.2383 110.512 35.6163 110.619 35.8123 110.482C37.3663 109.391 40.4573 108.645 41.9513 110.03C42.7353 110.756 38.0003 111.313 37.5433 111.341C36.9253 111.378 36.3043 111.391 35.6863 111.378C36.3793 111.393 35.9123 109.019 35.8573 108.622C35.6843 107.357 35.3563 106.114 35.1453 104.854C34.8913 103.333 34.9353 101.784 34.4273 100.32C34.4023 100.245 34.2813 100.271 34.2773 100.346Z" fill="black"/>
<path d="M15.9609 68.6668C20.5569 70.6388 27.9679 68.6278 32.4329 66.8318C31.3689 65.7688 30.3069 64.7058 29.2439 63.6438C28.9369 65.8478 24.4959 67.4888 22.8569 68.7638C19.5709 71.3168 16.0039 73.4248 12.8149 76.1288C10.3629 78.2088 13.4889 81.2478 15.9559 80.2008C20.7489 78.1658 26.6229 75.1948 31.9829 75.9478C31.7769 74.3688 31.5709 72.7898 31.3639 71.2098C26.2769 75.1168 18.6209 76.9188 12.7219 79.4578C10.3299 80.4878 11.5649 84.4308 14.0299 84.2878C17.7599 84.0728 21.3569 83.2938 25.0149 82.5688C29.4669 81.6868 34.2229 81.6438 38.7499 81.3338C42.0659 81.1058 42.0879 75.9208 38.7499 76.1498C35.0829 76.4008 31.4249 76.7528 27.7549 76.9588C23.1239 77.2188 18.6749 78.8358 14.0299 79.1048C14.4669 80.7138 14.9019 82.3238 15.3389 83.9348C21.2899 81.3718 28.7899 79.6728 33.9819 75.6868C35.4849 74.5318 35.8899 71.3038 33.3619 70.9488C26.3169 69.9598 19.6869 73.0298 13.3389 75.7238C14.3869 77.0808 15.4339 78.4378 16.4809 79.7948C20.2309 76.6148 24.3629 73.8488 28.5019 71.2008C30.7509 69.7618 33.8399 67.9118 34.2419 65.0208C34.4789 63.3288 33.1219 61.0008 31.0539 61.8328C28.6189 62.8128 21.1539 65.2958 18.5779 64.1898C15.5409 62.8868 12.8979 67.3518 15.9609 68.6668Z" fill="#3467B1"/>
<path d="M23.0771 55.6936C19.0091 59.6416 15.7491 63.7016 12.8981 68.6216C10.8021 72.2406 7.57914 75.6926 7.25014 80.0476C6.99014 83.4876 10.2641 85.0236 13.1231 85.4656C17.2241 86.1016 21.8751 85.3966 25.9871 85.1876C29.2451 85.0226 32.4881 84.6276 35.7181 84.1736C37.5941 83.9106 39.9351 84.0696 41.6811 83.3126C45.3471 81.7236 41.5461 76.1866 40.5511 73.9306C39.2501 70.9836 38.1851 67.9356 37.0731 64.9146C36.3271 62.8906 36.0301 60.5326 34.7821 58.7166C33.7521 57.2176 32.4371 56.3126 30.6761 55.8616C27.6261 55.0816 25.0381 56.7056 22.0541 56.7466C21.3501 56.7566 21.2411 57.8536 21.9501 57.8436C24.1871 57.8126 26.1991 56.7796 28.4321 56.7476C30.8971 56.7126 32.8781 57.6296 34.1391 59.7746C35.0021 61.2416 35.1791 62.9766 35.7711 64.5486C36.6981 67.0046 37.5771 69.4776 38.5391 71.9216C39.2851 73.8156 40.1071 75.6816 41.0141 77.5056C41.4671 78.4166 41.8441 79.3166 42.0811 80.3116C42.5891 82.4426 40.4771 82.5666 39.0041 82.7176C34.5991 83.1706 30.2291 83.8646 25.8021 84.1376C20.4571 84.4676 5.32414 87.0236 8.90414 77.3136C10.2341 73.7046 12.9641 70.3716 14.9081 67.0636C16.1781 64.9026 17.5631 62.8356 19.1811 60.9196C20.5711 59.2756 22.2331 57.8076 23.4071 55.9936C23.5411 55.7866 23.2671 55.5086 23.0771 55.6936Z" fill="#135A71"/>
<path d="M6.76079 29.202C5.93479 30.043 5.62779 32.556 5.71779 33.714C4.27179 32.848 3.33579 34.559 3.89679 35.819C4.42379 37.009 5.92979 37.503 7.14479 37.424C7.27379 38.806 7.81279 40.105 8.06079 41.449C8.27179 42.593 8.21279 43.67 8.59279 44.792C9.29179 46.862 10.6028 49.114 12.0998 50.687C15.4008 54.165 20.1188 55.15 24.7558 55.231C29.5138 55.314 34.7558 54.376 38.5778 51.463C40.5818 49.933 42.1958 47.452 43.3108 45.154C43.7848 44.184 44.2188 43.031 44.4548 41.983C44.5568 41.53 44.4188 40.72 44.6138 40.317C44.9408 39.642 45.1798 39.835 45.7188 39.332C46.4198 38.668 46.9668 37.885 47.0488 36.89C47.1508 35.71 46.2658 35.349 46.2348 34.396C45.7858 34.377 45.6538 34.156 45.2018 34.346C45.5008 33.524 46.1078 32.899 46.2708 32.015C46.5188 30.682 46.0788 29.022 45.8308 27.712C45.0618 23.632 42.4118 20.217 38.9528 17.983C34.9338 15.385 30.0998 13.975 25.3958 15.131C22.8748 15.751 20.9188 17.595 18.3848 18.199C7.96179 20.688 6.76079 29.202 6.76079 29.202Z" fill="#F6EDC4"/>
<path d="M46.3809 35.0726C48.8269 38.1746 55.9369 14.1346 47.3789 26.2016C48.2519 23.9946 52.4919 20.1836 51.9789 17.9516C50.9529 13.2096 46.1239 18.9546 44.4249 20.5906C46.4629 15.6276 45.4449 10.6086 40.3429 16.0686C40.9349 14.1356 43.2489 9.17756 41.6139 7.48157C38.8859 4.65356 34.3569 9.29156 32.6559 11.2036C33.2659 8.16057 34.9849 5.41357 35.3149 2.64157C30.8889 1.44857 25.8209 5.24457 23.8029 9.09657C29.3219 -3.85944 17.2039 5.36256 12.9429 10.5636C8.6839 15.4846 5.2339 21.8096 5.3849 28.4816L5.4389 32.4636C5.4389 32.4636 13.2069 11.8176 31.5239 20.1186C49.8419 28.4196 44.6129 33.1896 44.6129 33.1896L46.3809 35.0726Z" fill="#DDB54D"/>
<path d="M6.79896 37.4384C7.43996 43.0774 8.54296 47.5784 12.88 51.4854C16.531 54.7764 21.206 56.1534 26.045 56.0364C35.546 55.8084 44.665 49.1524 44.829 39.1034C44.839 38.4734 43.862 38.3774 43.851 39.0104C43.688 49.0014 34.659 54.8644 25.429 55.1164C21.177 55.2324 17.33 53.8034 13.952 51.2784C11.973 49.7984 10.444 47.8414 9.31896 45.6574C8.00296 43.1024 8.05196 40.0764 7.26396 37.3564C7.17996 37.0674 6.76396 37.1314 6.79896 37.4384Z" fill="black"/>
<path d="M25.3769 40.162C25.5749 39.891 26.0499 39.656 26.3629 39.604C26.2799 39.574 26.1969 39.544 26.1139 39.514C26.3379 39.847 26.5099 40.217 26.5859 40.612C26.6899 41.15 27.4809 40.919 27.3089 40.381C27.1479 39.881 26.8719 39.546 26.5209 39.168C26.4349 39.076 26.3189 39.054 26.2029 39.1C25.9639 39.196 25.7629 39.314 25.5859 39.503C25.4119 39.686 25.4079 39.891 25.2889 40.101C25.2559 40.16 25.3349 40.219 25.3769 40.162Z" fill="black"/>
<path d="M35.705 42.5321C36.35 42.8881 37.104 43.1671 37.853 43.0681C38.658 42.9601 39.305 42.8171 39.903 42.2191C40.445 41.6771 40.753 40.9341 40.753 40.1681C40.753 39.4021 40.445 38.6591 39.903 38.1181C39.421 37.6361 38.565 37.1741 37.853 37.2691C37.747 37.2951 37.64 37.2991 37.531 37.2821C37.788 37.3161 38.045 37.3501 38.302 37.3851C38.778 37.6161 38.889 37.6631 38.633 37.5251C37.249 36.7601 35.477 37.1791 34.665 38.5651C33.881 39.9041 34.324 41.7681 35.705 42.5321Z" fill="#EE6571"/>
<path d="M10.751 41.3466C11.325 41.7026 12.055 41.9516 12.736 41.8726C13.487 41.7856 14.105 41.6306 14.661 41.0756C15.169 40.5676 15.458 39.8696 15.458 39.1506C15.458 37.7966 14.214 36.2586 12.736 36.4296C12.01 36.5136 14.057 36.9936 13.499 36.6466C12.237 35.8626 10.509 36.3696 9.77396 37.6226C9.00996 38.9296 9.49396 40.5646 10.751 41.3466Z" fill="#EE6571"/>
<path d="M25.3603 46.5892C27.0513 48.9022 30.8103 47.7932 31.2563 45.0942C31.3423 44.5692 30.5423 44.5092 30.4433 45.0172C29.9743 47.4322 27.3283 47.3512 25.6583 46.2612C25.4393 46.1192 25.2123 46.3862 25.3603 46.5892Z" fill="#EE2E3B"/>
<path d="M44.7441 35.5761C45.0981 35.0451 45.4491 34.7021 46.1301 34.8951C46.6931 35.0551 47.0861 35.5691 47.2001 36.1221C47.5221 37.6951 45.7081 38.8001 44.4311 39.0381C43.9491 39.1291 44.0801 39.8711 44.5641 39.7881C46.4091 39.4731 48.4731 37.4761 47.6181 35.4841C47.0421 34.1401 44.6991 33.6971 44.3611 35.4351C44.3201 35.6471 44.6331 35.7431 44.7441 35.5761Z" fill="black"/>
<path d="M44.3127 37.3397C45.0487 37.3937 45.8647 37.2897 46.5077 36.9187C46.7077 36.8037 46.6117 36.5287 46.3887 36.5457C45.6817 36.5957 45.0057 36.8387 44.2947 36.8977C44.0417 36.9187 44.0667 37.3217 44.3127 37.3397Z" fill="black"/>
<path d="M6.28219 33.4677C4.57919 23.8747 16.7292 17.2267 24.8062 17.0027C34.5652 16.7327 45.0112 23.9077 44.4602 34.4407C44.4232 35.1407 45.5082 35.2437 45.5442 34.5427C46.1462 22.9577 34.7972 15.6367 24.2022 16.0297C19.1292 16.2187 14.7242 18.4317 10.9392 21.6967C7.62219 24.5577 4.40319 29.0147 5.98419 33.5627C6.04419 33.7347 6.31219 33.6377 6.28219 33.4677Z" fill="#D46D27"/>
<path d="M34.8691 33.3143C35.6251 32.8913 36.3501 32.5873 37.2181 32.4813C38.0561 32.3783 38.7111 32.8373 39.4941 32.8733C39.6941 32.8823 39.7791 32.6773 39.6771 32.5233C39.2411 31.8683 38.1071 31.7633 37.3851 31.8283C36.3711 31.9183 35.4071 32.2833 34.6491 32.9743C34.4841 33.1243 34.6591 33.4313 34.8691 33.3143Z" fill="black"/>
<path d="M16.4941 32.1629C15.8091 31.4909 14.9611 31.1069 14.0251 30.9269C13.2381 30.7759 11.9571 30.8229 11.4521 31.5299C11.3661 31.6499 11.4421 31.8659 11.6051 31.8639C12.3181 31.8549 12.9411 31.5139 13.6871 31.5359C14.6211 31.5639 15.4441 31.9889 16.2221 32.4619C16.4091 32.5759 16.6691 32.3339 16.4941 32.1629Z" fill="black"/>
<path d="M8.00967 19.788C10.3277 15.119 14.1157 11.03 18.0227 7.64396C18.6507 7.09996 23.6157 3.91496 23.6167 3.85496C23.6147 6.29796 21.9147 8.47696 20.8717 10.572C20.7627 10.791 21.0977 10.937 21.2347 10.762C22.8917 8.62696 24.5887 5.95496 24.2057 3.14396C24.1817 2.96496 23.9487 2.82996 23.7847 2.92696C16.7987 7.09296 11.9887 12.796 7.95667 19.761C7.93567 19.798 7.98967 19.827 8.00967 19.788Z" fill="#D46D27"/>
<path d="M23.1425 11.5232C26.5755 8.42122 28.8215 4.25222 33.1585 2.18422C35.3365 1.14622 34.0665 3.26922 33.7005 4.39422C33.3105 5.59322 32.7705 6.74522 32.2395 7.88522C31.2135 10.0882 30.1105 12.2482 29.1365 14.4762C29.0275 14.7252 29.4055 14.8482 29.5235 14.6192C31.7075 10.3922 34.6375 6.19922 35.1515 1.34722C35.1765 1.11322 34.9525 0.896224 34.7165 0.946224C29.7625 2.00422 25.4525 7.26822 23.1245 11.5072C23.1195 11.5192 23.1315 11.5322 23.1425 11.5232Z" fill="#D46D27"/>
<path d="M34.8371 12.2019C35.7601 11.2479 39.2941 4.86193 39.9771 9.17393C40.3561 11.5669 39.1471 13.8819 38.6911 16.1629C38.6521 16.3609 38.9361 16.4379 39.0401 16.2919C39.8811 15.1199 40.1491 13.3899 40.4131 12.0049C40.6781 10.6239 40.8651 8.89693 40.0311 7.67093C38.2731 5.08893 34.9841 10.8159 34.7191 12.1399C34.7061 12.2009 34.7941 12.2459 34.8371 12.2019Z" fill="#D46D27"/>
<path d="M41.3759 18.5325C41.6539 17.8645 41.8809 17.1765 42.1569 16.5075C42.4609 15.7705 42.9429 15.1935 43.6149 14.7695C44.0129 14.5195 44.1769 15.8575 44.2329 16.1015C44.6969 18.0975 44.5449 20.2825 44.4809 22.3185C44.4769 22.4745 44.6959 22.4945 44.7219 22.3415C45.1499 19.6945 45.2199 16.8085 44.1149 14.3055C44.0659 14.1945 43.9299 14.1535 43.8219 14.2015C42.1049 14.9725 41.5349 16.7635 41.3039 18.5165C41.2979 18.5595 41.3589 18.5705 41.3759 18.5325Z" fill="#D46D27"/>
<path d="M44.8516 26.5818C46.2426 23.9338 47.3516 21.1258 49.4936 18.9648C49.9816 18.4728 50.5536 18.0948 51.1796 17.8028C51.9936 17.4228 51.7336 20.7148 51.6916 21.0358C51.4176 23.1018 50.4066 24.9348 49.9186 26.9348C49.8606 27.1748 50.1856 27.4028 50.3336 27.1528C51.9996 24.3418 53.2116 20.2888 52.1116 17.0968C52.0606 16.9508 51.8626 16.8598 51.7176 16.8938C47.8576 17.7788 45.4846 22.9818 44.5996 26.4498C44.5626 26.5948 44.7706 26.7368 44.8516 26.5818Z" fill="#D46D27"/>
<path d="M46.8166 35.3993C48.7396 32.8123 49.5666 29.3303 50.3446 26.2523C50.4086 26.0023 50.0856 25.8813 49.9716 26.1133C48.5426 29.0393 47.9076 32.2753 46.4746 35.2203C46.3756 35.4253 46.6896 35.5693 46.8166 35.3993Z" fill="#D46D27"/>
</svg>
