<svg width="63" height="98" viewBox="0 0 63 98" fill="none" xmlns="http://www.w3.org/2000/svg">
<path d="M12.1208 97.0115C14.1138 97.0065 16.0688 96.5615 18.0618 96.5565C19.7328 96.5525 19.7338 93.9605 18.0618 93.9645C16.0688 93.9695 14.1138 94.4145 12.1208 94.4195C10.4498 94.4245 10.4488 97.0155 12.1208 97.0115Z" fill="#7A5830"/>
<path d="M44.9881 95.2453C45.8261 94.2973 47.7531 94.4183 48.8261 94.8253C50.3921 95.4193 51.0621 92.9123 49.5151 92.3263C47.6131 91.6043 44.5801 91.8013 43.1551 93.4123C42.0521 94.6593 43.8791 96.4993 44.9881 95.2453Z" fill="#7A5830"/>
<path d="M10.994 5.49146C10.341 8.28146 8.10304 10.8045 7.17204 13.6145C6.02604 17.0735 5.22404 20.5865 4.15404 24.0115L5.96404 22.2005C4.85304 22.6025 3.68404 22.5795 2.55904 22.9855C-0.225956 23.9915 0.287045 27.8535 3.24804 28.0765C4.31805 28.1585 6.98105 32.0565 7.81205 32.8045C10.045 34.8075 11.962 36.3395 14.755 37.5675C20.071 39.9045 26.216 40.4615 31.896 39.3185C36.525 38.3865 41.49 36.3825 44.449 32.5125C47.974 27.9035 47.118 22.1475 49.142 17.0885C49.664 15.7845 48.584 14.2295 47.332 13.9005C41.759 12.4335 38.249 6.42046 33.267 3.57246C28.079 0.60746 23.641 0.561459 18.211 2.85346C12.642 5.20346 9.69804 10.9765 8.48804 16.5475C7.54804 20.8765 5.28104 26.4615 8.42405 30.2735C9.81305 31.9585 12.091 30.7205 12.756 29.1295C16.005 21.3615 18.138 12.0855 24.684 6.20846C23.24 5.36746 21.796 4.52746 20.351 3.68646C18.116 9.39046 14.197 14.5025 11.894 20.2525C10.117 24.6905 7.78005 30.6425 10.461 35.1615C11.51 36.9285 13.85 36.7365 14.938 35.1615C17.586 31.3275 17.58 25.7205 19.116 21.3365C20.511 17.3535 21.119 12.6005 24.339 9.59246C22.894 9.21146 21.451 8.82946 20.006 8.44846C21.464 17.3095 11.935 27.9505 16.655 36.4065C17.418 37.7735 19.654 38.2135 20.726 36.9305C23.295 33.8565 23.362 29.2515 24.209 25.4585C25.488 19.7355 28.398 14.5635 29.518 8.81546C27.821 8.58546 26.123 8.35546 24.427 8.12646C24.369 16.8675 18.711 25.0785 20.383 33.8835C20.906 36.6365 24.573 36.0575 25.382 33.8835C28.398 25.7785 29.156 17.0155 32.343 8.86746C30.646 8.63746 28.949 8.40846 27.252 8.17846C27.148 18.0875 20.64 28.2225 22.564 38.1615C23.022 40.5245 26.161 40.4935 27.302 38.7805C29.512 35.4615 29.8 30.5245 30.966 26.7245C32.397 22.0585 33.863 17.1215 35.663 12.6015C33.966 12.3725 32.269 12.1425 30.572 11.9125C30.005 19.1775 26.839 25.9425 26.504 33.3095C26.361 36.4545 30.584 36.5305 31.596 33.9985C33.039 30.3855 33.711 26.5615 34.899 22.8655C36.081 19.1865 37.649 15.8495 38.015 11.9545H32.832C32.557 16.7385 30.836 21.1915 30.195 25.9055C29.669 29.7695 28.187 33.8465 29.07 37.7165C29.622 40.1355 32.568 39.9725 33.808 38.3355C38.724 31.8435 40.924 21.9055 41.933 14.0045C40.236 14.2345 38.539 14.4645 36.842 14.6935C37.643 20.3595 34.348 25.8055 34.166 31.4725C34.103 33.4335 36.416 34.7085 38.066 33.7115C42.257 31.1765 44.159 22.7555 44.679 18.2935H39.495C39.345 20.3735 38.977 22.4185 38.815 24.4955H43.999L44.025 23.0835C44.088 19.7395 38.904 19.7445 38.842 23.0835L38.815 24.4955C38.752 27.8755 43.743 27.7845 43.999 24.4955C44.161 22.4165 44.529 20.3735 44.679 18.2935C44.923 14.9105 39.874 15.0505 39.495 18.2935C39.245 20.4315 37.505 27.9915 35.45 29.2345C36.749 29.9805 38.05 30.7265 39.349 31.4725C39.552 25.1525 42.754 19.7755 41.841 13.3155C41.393 10.1535 37.082 11.3975 36.749 14.0045C35.86 20.9635 33.631 30.0425 29.331 35.7195C30.911 35.9255 32.49 36.1325 34.069 36.3385C33.296 32.9505 35.018 27.3415 35.793 23.9985C36.726 19.9785 37.778 16.0925 38.015 11.9545C38.209 8.58246 33.14 8.67946 32.832 11.9545C32.524 15.2195 31.107 18.4665 29.9 21.4875C28.463 25.0845 28.041 29.0065 26.597 32.6205C28.294 32.8495 29.991 33.0795 31.688 33.3095C32.022 25.9595 35.187 19.2005 35.756 11.9125C36.002 8.76246 31.661 8.72046 30.664 11.2235C29.266 14.7345 28.204 18.5595 27.072 22.1755C26.395 24.3405 25.616 26.4615 24.985 28.6455C24.312 30.9795 24.186 34.1195 22.826 36.1645C24.405 36.3705 25.984 36.5765 27.563 36.7835C26.66 32.1175 28.897 25.7055 30.134 21.2185C31.327 16.8915 32.389 12.6865 32.435 8.17846C32.468 5.06746 28.358 4.89746 27.344 7.48946C24.157 15.6375 23.399 24.4005 20.383 32.5055H25.382C24.598 28.3775 26.452 24.1375 27.401 20.1705C28.369 16.1275 29.582 12.3215 29.61 8.12646C29.629 5.25746 25.088 4.51646 24.519 7.43746C23.606 12.1255 21.421 16.3665 20.033 20.9145C19.393 23.0105 18.959 25.1695 18.512 27.3115C18.179 28.9095 18.163 31.9455 17.06 33.2645C18.417 33.4405 19.774 33.6155 21.131 33.7895C19.35 30.5985 22.238 24.6085 23.081 21.2975C24.305 16.4915 25.828 12.0735 25.005 7.07046C24.671 5.04046 21.966 4.71846 20.673 5.92646C17.919 8.49946 16.634 12.0445 15.475 15.5475C14.786 17.6315 14.194 19.7375 13.468 21.8115C12.293 25.1645 12.503 29.5885 10.461 32.5455H14.938C12.642 28.6765 17.162 20.9455 18.815 17.5755C20.877 13.3735 23.652 9.39846 25.35 5.06446C26.369 2.46346 22.773 0.967461 21.018 2.54246C13.744 9.07346 11.371 19.1125 7.75704 27.7515C9.20204 27.3705 10.645 26.9895 12.09 26.6075C10.883 25.1455 13.741 16.6995 14.189 15.0405C15.488 10.2295 21.025 5.34146 26.312 6.29446C34.537 7.77846 38.055 16.8195 45.954 18.8995C45.35 17.8365 44.747 16.7735 44.143 15.7105C42.452 19.9355 42.85 24.6605 40.76 28.8675C38.488 33.4415 30.826 34.4855 26.435 34.7165C19.902 35.0595 14.817 32.1365 10.181 27.9735C7.36704 25.4475 7.32605 23.2015 3.24804 22.8935C3.47804 24.5905 3.70804 26.2875 3.93704 27.9845C5.42104 27.4495 7.26304 27.7565 8.48604 26.5335C9.66605 25.3525 9.47604 23.2215 9.78605 21.7285C10.352 18.9915 11.747 16.2695 12.629 13.6105C13.446 11.1445 15.394 9.42846 15.993 6.86946C16.754 3.61746 11.756 2.23746 10.994 5.49146Z" fill="#F7E9D7"/>
<path d="M18.3224 68.3719C17.8034 71.3379 17.7214 73.7609 17.5974 76.7799C17.5564 77.7769 18.3824 79.0439 19.4334 79.1899C19.8124 79.0679 20.0874 79.1299 20.2594 79.3779C21.9724 81.5189 24.8584 79.1389 24.4374 76.9459C23.5794 72.4829 25.9204 70.7809 29.9834 69.9499C32.3024 69.4749 34.2644 69.5579 34.4394 72.3319C34.5384 73.9039 35.9674 75.2409 37.6044 74.7429C39.6484 74.1219 41.4914 72.9879 43.4464 72.1359C44.4254 71.7089 44.9094 70.2789 44.5944 69.3129C44.0154 67.5339 43.8204 64.9769 41.6354 64.3759C39.2774 63.7269 36.1914 65.9639 33.6574 65.8019C32.0494 65.6989 30.7954 67.4779 31.2474 68.9659C31.8324 70.8929 32.1654 74.7639 34.5744 75.4259C37.0904 76.1189 41.3084 74.9719 43.4874 73.6959C46.2674 72.0689 43.7524 67.7469 40.9644 69.3789C39.3104 70.3459 37.1214 70.4399 35.2394 70.5159C35.9584 70.9289 36.6784 71.3409 37.3974 71.7539C36.6474 70.7019 36.4404 68.8609 36.0684 67.6369C35.2644 68.6919 34.4614 69.7469 33.6574 70.8019C36.4024 70.9769 39.0654 70.0559 41.6354 69.1979C40.8254 68.9829 40.0144 68.7689 39.2034 68.5549C38.4174 67.8639 39.6754 70.3409 39.7734 70.6419C40.1564 69.7009 40.5394 68.7599 40.9224 67.8189C39.3814 68.4909 37.8914 69.4309 36.2754 69.9219C37.3294 70.7259 38.3854 71.5289 39.4394 72.3319C39.0224 65.7169 34.5674 63.9169 28.6544 65.1279C21.3654 66.6219 18.1974 70.8909 19.6154 78.2749C21.0084 77.4639 22.4014 76.6529 23.7944 75.8429C22.9424 74.7779 22.0844 74.5519 20.7624 74.3689C21.3744 75.1729 21.9864 75.9759 22.5974 76.7799C22.7004 74.2809 22.7114 72.1749 23.1434 69.7009C23.6944 66.5489 18.8764 65.1999 18.3224 68.3719Z" fill="#188843"/>
<path d="M26.1609 51.0301C28.4969 51.1781 30.7689 51.0531 33.0939 51.0471C35.8199 51.0401 38.0939 48.7781 38.0939 46.0471C38.0939 43.3271 35.8199 41.0401 33.0939 41.0471C30.7689 41.0531 28.4969 41.1781 26.1609 41.0301C23.4379 40.8581 21.1609 43.4351 21.1609 46.0301C21.1609 48.8861 23.4419 50.8581 26.1609 51.0301Z" fill="#3B79BD"/>
<path d="M27.3825 59.1931C30.1545 58.7101 32.6266 58.2401 35.4556 58.4151C38.1786 58.5841 40.4555 56.0131 40.4555 53.4151C40.4555 50.5621 38.1746 48.5831 35.4556 48.4151C31.7866 48.1881 28.3186 48.9241 24.7246 49.5501C22.0366 50.0191 20.5625 53.2671 21.2325 55.7011C22.0065 58.5151 24.6995 59.6601 27.3825 59.1931Z" fill="#3B79BD"/>
<path d="M23.1031 65.6961C28.0951 65.4771 32.8941 63.6331 37.9421 63.8091C36.7631 63.3211 35.5851 62.8331 34.4061 62.3451C35.1471 63.1931 36.0931 63.5581 37.1251 63.9121C36.1291 63.1461 35.1331 62.3801 34.1371 61.6141C34.1891 61.7241 34.2411 61.8331 34.2931 61.9431C37.0651 67.7621 45.6861 62.6861 42.9281 56.8961C42.2051 55.3771 40.9301 54.6621 39.4031 54.1391C40.1381 54.5681 40.8741 54.9961 41.6091 55.4251C39.3881 52.8831 34.9691 53.7431 32.0411 54.1791C29.0831 54.6191 26.1041 55.5641 23.1031 55.6961C16.6811 55.9781 16.6531 65.9791 23.1031 65.6961Z" fill="#3B79BD"/>
<path d="M20.4709 68.5857C20.1999 70.2967 20.1919 72.0387 20.0259 73.7617C19.8769 75.3147 19.5359 76.8637 19.6479 78.4257C19.6909 79.0397 20.5279 78.8857 20.6379 78.3867C21.3329 75.2277 21.2169 71.7747 21.0429 68.5627C21.0249 68.2197 20.5189 68.2827 20.4709 68.5857Z" fill="#53B949"/>
<path d="M24.3205 67.7551C23.9585 68.9691 23.8025 70.1901 23.6875 71.4501C23.5865 72.5571 23.3825 73.7061 23.7475 74.7721C23.8545 75.0811 24.2615 74.9751 24.3735 74.7441C24.8455 73.7671 24.7215 72.6171 24.7525 71.5511C24.7865 70.3331 24.8835 69.1161 24.9545 67.9001C24.9765 67.5401 24.4305 67.3861 24.3205 67.7551Z" fill="#53B949"/>
<path d="M30.8415 67.1204C30.8265 67.6464 30.8485 68.0964 30.9805 68.6124C31.1125 69.1334 31.3695 69.4814 31.6855 69.8994C31.8125 70.0684 32.0865 69.9644 32.1045 69.7674C32.1425 69.3694 32.1425 69.0504 32.0155 68.6694C31.8565 68.1934 31.5185 67.7014 31.5265 67.1844C31.5325 66.7454 30.8545 66.6754 30.8415 67.1204Z" fill="#53B949"/>
<path d="M34.0222 67.1107C33.7852 68.0987 34.1292 69.1567 34.5202 70.0677C34.9252 71.0137 34.9462 72.1597 35.9252 72.7287C36.3552 72.9777 37.0022 72.5687 36.7212 72.0557C36.3362 71.3517 36.0872 70.5817 35.8132 69.8297C35.6642 69.4237 35.3442 69.0237 35.1522 68.6277C34.9102 68.1277 34.7982 67.5837 34.5542 67.0867C34.4542 66.8827 34.0842 66.8537 34.0222 67.1107Z" fill="#53B949"/>
<path d="M37.7375 66.993C38.1025 68.814 38.8295 70.859 40.3665 72.007C40.7825 72.318 41.3825 71.818 41.1395 71.354C40.3515 69.843 39.2415 68.489 38.8145 66.804C38.6435 66.128 37.5975 66.295 37.7375 66.993Z" fill="#53B949"/>
<path d="M40.5511 66.5765C41.5101 68.3505 42.2191 70.4115 43.6111 71.8995C44.0631 72.3815 44.9201 71.8825 44.6071 71.2565C43.7101 69.4575 42.7091 67.5605 41.3781 66.0425C41.0151 65.6295 40.2771 66.0695 40.5511 66.5765Z" fill="#53B949"/>
<path d="M14.0852 5.29031C15.7482 5.43531 17.0012 6.30031 18.5292 6.68431C21.7172 7.21231 25.5322 6.35231 28.2462 5.18731C32.9802 3.25931 38.5772 0.0743132 41.1522 -4.49669C38.9262 -4.48369 37.0992 -3.77069 34.8212 -3.94469C32.5412 -4.11869 30.3982 -4.53469 28.0362 -4.28069C23.5002 -3.82569 17.1682 -3.27369 15.8472 2.16231C19.1932 3.25631 22.6222 3.92031 25.9532 2.78931C27.5942 2.12731 29.2332 1.46431 30.7692 0.429313C31.7922 -0.262687 32.7132 -1.32969 34.0282 -1.69769C34.3122 0.0463128 30.8662 2.22631 29.6552 2.97031C27.5562 4.16431 24.7862 5.14031 22.5612 5.15231C20.7632 5.24931 18.5682 4.64731 16.9382 3.88631C16.0272 3.53131 15.1482 2.56031 14.4172 3.57531C13.9032 3.92031 13.7922 4.96531 14.2202 5.05031" fill="#EF3D32"/>
<path d="M3.42209 23.4442C0.611091 21.4022 -1.32791 26.8652 1.11209 28.3552C1.69809 28.7132 2.55609 28.6182 3.16309 28.3822C4.04309 28.0402 5.35409 31.3552 5.94309 32.2362C8.21109 35.6292 11.5511 38.2492 15.2311 39.9432C22.5481 43.3102 31.8661 41.4822 38.7411 37.9002C45.2941 34.4862 52.0281 26.5902 49.7371 18.6962C49.5691 18.1202 48.6441 18.2722 48.8071 18.8612C50.3241 24.3042 47.1891 29.8382 43.3321 33.5052C39.6431 37.0122 34.6501 39.0452 29.7381 40.0842C18.9851 42.3612 8.73309 37.6512 4.27409 27.4172C4.18309 27.2102 3.91309 27.1172 3.71409 27.2172C-0.816909 29.4812 0.853091 22.7062 3.01809 24.0212C3.40309 24.2562 3.79309 23.7142 3.42209 23.4442Z" fill="black"/>
<path d="M13.0285 3.99783C6.8415 7.96183 5.3315 15.9508 3.7765 22.5318C3.6655 23.0028 4.3675 23.2788 4.4945 22.7978C5.3245 19.6388 5.8445 16.4138 7.0025 13.3468C8.3055 9.89183 10.6475 6.91683 13.2945 4.40983C13.4865 4.22683 13.2755 3.83983 13.0285 3.99783Z" fill="black"/>
<path d="M49.0349 18.4909C50.4009 17.9979 51.0269 16.7079 50.6779 15.3129C50.3219 13.8929 48.5429 13.2799 47.2929 13.0659C46.6129 12.9499 45.9109 11.1319 45.5259 10.5479C44.6569 9.22894 43.5969 8.03994 42.5009 6.90794C40.5729 4.91694 38.2519 3.30794 35.7989 2.03794C35.4139 1.83894 35.0679 2.50194 35.4469 2.71094C40.0839 5.26694 43.9529 8.83594 46.4299 13.5559C46.4859 13.6639 46.5949 13.7569 46.7229 13.7619C47.2259 13.7449 47.7139 13.8319 48.1879 14.0209C49.8769 14.5349 50.0889 15.8769 48.8229 18.0449C48.5529 18.2119 48.7329 18.5999 49.0349 18.4909Z" fill="black"/>
<path d="M12.8645 5.08472C18.4475 8.70172 25.8375 7.31372 31.6695 4.95972C36.5635 2.98372 41.6575 -0.992275 42.1385 -6.60628C42.1645 -6.91528 41.7885 -7.12628 41.5485 -6.91428C39.7345 -5.31427 37.0485 -5.17828 34.7545 -4.83228C31.2935 -4.31128 27.8145 -4.74228 24.3525 -5.14328C21.9815 -5.41728 19.9305 -5.23528 18.1335 -3.54528C16.4745 -1.98528 15.6405 0.515725 14.8985 2.59572C14.8185 2.82072 15.0105 3.04972 15.2455 3.01172C16.8705 2.74672 18.4725 3.18572 20.0925 3.28072C21.5445 3.36572 23.0625 3.25772 24.5165 3.16772C27.6415 2.97372 31.0225 1.56372 33.4835 -0.317276C33.6665 -0.457275 33.4665 -0.772276 33.2635 -0.657276C28.9225 1.81372 24.5025 2.89772 19.5005 2.61372C19.0335 2.58672 15.7195 2.16772 15.7345 2.12672C16.7525 -0.664275 18.0675 -3.66328 21.2335 -4.46728C23.1825 -4.96228 25.9005 -4.27028 27.8725 -4.06428C30.0605 -3.83528 32.1855 -3.66628 34.3665 -4.01328C36.9475 -4.42327 39.9695 -4.53928 42.0125 -6.36628L41.4225 -6.67328C41.0145 -1.38128 36.4155 2.03972 31.9765 4.14172C26.1535 6.90072 18.8945 7.87372 13.0735 4.78572C12.8725 4.67872 12.6615 4.95372 12.8645 5.08472Z" fill="#E82325"/>
<path d="M26.7263 21.1043C26.8463 20.7793 27.0293 20.4453 27.3313 20.2553C27.6793 20.0373 27.9123 20.4073 28.2033 20.5473C28.3933 20.6393 28.5923 20.4343 28.5613 20.2483C28.4643 19.6653 27.7703 19.3563 27.2343 19.5523C26.6333 19.7723 26.2613 20.3643 26.1933 20.9823C26.1603 21.2953 26.6183 21.3963 26.7263 21.1043Z" fill="black"/>
<path d="M35.1526 23.0627C35.3136 23.0627 35.3386 22.8127 35.1756 22.8127C35.0156 22.8127 34.9906 23.0627 35.1526 23.0627Z" fill="#F16776"/>
<path d="M23.3528 25.4451C23.5138 25.4451 23.5388 25.1951 23.3758 25.1951C23.2158 25.1951 23.1908 25.4451 23.3528 25.4451Z" fill="#F16776"/>
<path d="M40.5003 14.5998C40.4373 14.6178 40.3743 14.6348 40.3113 14.6528C38.9503 15.0318 38.1253 16.4758 38.5003 17.8408C38.8743 19.1998 40.3283 20.0298 41.6883 19.6518C41.7523 19.6338 41.8153 19.6168 41.8783 19.5988C43.2383 19.2198 44.0643 17.7748 43.6883 16.4108C43.3143 15.0518 41.8603 14.2218 40.5003 14.5998Z" fill="#F37674"/>
<path d="M12.8542 22.3196C12.7922 22.3376 12.7292 22.3546 12.6672 22.3716C11.3082 22.7526 10.4812 24.1946 10.8572 25.5606C11.2302 26.9176 12.6862 27.7516 14.0452 27.3706C14.1072 27.3536 14.1702 27.3356 14.2322 27.3186C15.5922 26.9376 16.4182 25.4966 16.0422 24.1306C15.6692 22.7736 14.2142 21.9386 12.8542 22.3196Z" fill="#F37674"/>
<path d="M33.7816 9.90117C34.2156 10.0542 34.6806 9.99017 35.1056 9.84417C35.4856 9.71417 34.8866 9.83617 35.3156 9.80117C35.6066 9.77717 35.8856 9.71317 36.1656 9.63617C37.7766 9.19917 37.0926 6.69817 35.4766 7.13717C35.1566 7.22417 35.0196 7.14817 34.6776 7.25717C34.5896 7.28317 34.5026 7.31317 34.4166 7.34517C34.3716 7.36017 34.3266 7.37617 34.2816 7.39117C34.0416 7.44817 34.1046 7.45217 34.4706 7.40217C33.8036 7.16717 33.0536 7.66217 32.8766 8.30717C32.6786 9.02517 33.1156 9.66617 33.7816 9.90117Z" fill="black"/>
<path d="M14.1102 17.2141C14.5592 17.2621 14.9982 17.0691 15.3672 16.8321C15.6912 16.6251 15.1822 16.8741 15.5742 16.7471C15.8422 16.6601 16.1032 16.5191 16.3502 16.3851C17.8202 15.5891 16.5112 13.3511 15.0412 14.1471C14.7682 14.2951 14.5692 14.2781 14.2912 14.4471C14.2122 14.4931 14.1352 14.5431 14.0592 14.5941C13.7832 14.7761 14.0412 14.6151 14.1102 14.6221C13.4062 14.5471 12.8142 15.2681 12.8142 15.9181C12.8142 16.6811 13.4082 17.1391 14.1102 17.2141Z" fill="black"/>
<path d="M21.7215 27.5295C22.7295 26.6505 22.0785 26.8145 23.2995 27.7425C24.6915 28.8025 26.3345 28.7305 27.9435 28.3685C29.5155 28.0145 31.1235 27.1355 32.1385 25.8675C32.6585 25.2195 34.5475 21.0795 35.2635 21.1315C35.8265 21.1725 35.9085 20.3175 35.3465 20.2605C34.7395 20.1995 34.8215 20.1935 34.2145 20.3555C34.0235 20.4065 33.8925 20.5325 33.8655 20.7345C33.5695 22.8875 32.0355 25.0095 30.4055 26.3675C28.4325 28.0105 24.1085 28.7745 22.6595 26.0455C22.5545 25.8505 22.2595 25.7975 22.1285 26.0015C21.9465 26.2845 21.5095 27.0355 21.3625 27.2015C21.1745 27.4135 21.5155 27.7085 21.7215 27.5295Z" fill="#F16776"/>
<path d="M21.55 42.3055C20.745 43.5045 20.604 45.0865 20.161 46.4445C19.404 48.7675 18.493 51.0365 17.832 53.3905C16.783 57.1265 16.082 61.6815 16.17 65.5555C16.175 65.7725 16.261 65.9625 16.477 66.0445C18.01 66.6245 19.566 66.7225 21.198 66.6445C24.109 66.5065 27.021 66.4345 29.933 66.3385C32.353 66.2585 34.722 65.9575 37.116 65.6085C39.948 65.1965 43.063 64.7185 45.912 64.6495C46.295 64.6395 46.592 64.3075 46.421 63.9215C44.45 59.4905 43.089 54.5715 41.864 49.8805C40.922 46.2735 40.488 41.6555 38.205 38.5895C37.946 38.2425 37.357 38.4485 37.33 38.8645C37.325 38.9435 37.32 39.0225 37.315 39.1005C37.274 39.7415 38.265 39.8345 38.306 39.1945C38.311 39.1165 38.316 39.0365 38.321 38.9585C38.029 39.0505 37.738 39.1415 37.446 39.2335C38.639 40.8345 39.101 43.0295 39.596 44.9435C40.179 47.1925 40.695 49.4575 41.311 51.6975C42.474 55.9255 43.718 60.3505 45.499 64.3605C45.669 64.1175 45.839 63.8755 46.008 63.6325C41.842 63.7315 37.568 64.5665 33.423 65.0865C28.947 65.6475 24.101 65.7135 19.583 65.6595C19.151 65.6545 17.113 65.6385 17.09 64.8995C17.054 63.8035 17.211 62.6935 17.346 61.6085C17.611 59.4725 17.973 57.3315 18.302 55.2045C18.705 52.5995 19.704 50.0805 20.528 47.5865C21.067 45.9545 21.152 44.0045 21.834 42.4545C21.909 42.2845 21.651 42.1545 21.55 42.3055Z" fill="#324CA0"/>
<path d="M40.8742 39.1692C44.1182 40.6482 46.6582 43.4512 49.7692 45.2182C52.4382 46.7352 55.3832 47.6682 58.4102 48.1192C59.0362 48.2122 59.1262 47.2312 58.5022 47.1432C54.3292 46.5582 50.7062 44.9222 47.2422 42.5652C45.5732 41.4292 43.0872 38.5482 40.8772 39.1352C40.8602 39.1402 40.8582 39.1622 40.8742 39.1692Z" fill="black"/>
<path d="M17.6234 66.6082C16.8034 70.8982 16.0764 75.2602 16.2684 79.6432C16.2964 80.3042 16.4454 81.5172 17.3164 81.6292C19.6834 81.9352 21.8904 80.9512 24.2814 81.7092C24.4974 81.7772 24.7664 81.6862 24.8394 81.4522C25.7804 78.4212 26.6714 73.9912 28.9094 71.6302C30.3164 70.1452 31.1944 73.1352 31.6314 73.9062C32.4054 75.2702 33.1954 76.6482 34.0524 77.9622C34.1994 78.1892 34.5204 78.1462 34.7064 78.0162C36.7514 76.5912 39.1284 76.0162 41.4474 75.2022C42.9934 74.6602 45.4694 73.9902 46.6934 72.8562C47.3374 72.2592 46.4674 71.0602 46.1934 70.5462C45.2114 68.7002 44.4454 66.0502 43.9004 64.0412C43.7854 63.6152 43.2834 63.4852 42.9984 63.8412C42.9774 63.8692 42.9544 63.8972 42.9324 63.9252C42.5284 64.4292 43.3514 65.0012 43.7514 64.4982C43.7734 64.4702 43.7954 64.4422 43.8174 64.4152C43.5174 64.3482 43.2164 64.2812 42.9164 64.2142C43.5454 66.5072 44.4254 68.7552 45.3094 70.9662C45.5094 71.4672 46.2944 72.0972 45.4194 72.5532C44.9694 72.7882 44.4424 72.9192 43.9664 73.0972C42.2864 73.7232 40.6864 74.4802 38.9754 75.0352C37.5244 75.5042 36.1414 76.0362 34.8244 76.8092C34.3024 77.1152 33.0664 74.4422 32.8104 74.0522C32.0194 72.8472 31.4144 70.2002 29.6034 70.2472C27.9884 70.2892 26.9974 72.7542 26.5044 73.9562C25.8904 75.4562 25.4424 77.0242 24.8904 78.5492C24.0564 80.8552 24.1044 80.3472 21.9704 80.4892C20.7054 80.5732 19.4634 80.6982 18.2074 80.8522C16.4974 81.0622 16.9684 77.7092 17.0014 76.8322C17.1304 73.4292 17.9894 70.0302 17.9044 66.6342C17.9004 66.4532 17.6574 66.4272 17.6234 66.6082Z" fill="#537D3E"/>
<path d="M19.9542 81.4871C19.4472 84.514 19.2272 87.7471 19.1052 90.8141C19.0582 91.9951 19.4192 93.1241 19.7002 94.2561C19.8652 94.9231 20.0852 94.6821 19.3892 94.8561C18.9792 94.9581 18.5732 95.0721 18.1652 95.1811C16.3452 95.6671 14.0622 96.4641 12.1732 96.0211C11.2662 95.8091 13.2402 95.0641 13.3462 95.0421C13.8142 94.9461 14.2962 94.9061 14.7702 94.8571C16.1542 94.7111 17.3582 94.7701 18.6832 95.3061C19.0602 95.4591 19.3822 94.8711 19.0172 94.6671C17.5412 93.8391 10.8472 93.1151 10.9782 95.9901C11.0932 98.4921 19.1882 95.6291 20.2942 95.427C20.4952 95.39 20.6392 95.1931 20.6002 94.9901C20.1692 92.7091 19.7592 90.7381 20.0022 88.3981C20.2372 86.1251 20.4172 83.8071 20.3312 81.5231C20.3222 81.2831 19.9952 81.241 19.9542 81.4871Z" fill="black"/>
<path d="M4.00695 52.3963C7.30095 52.0343 10.0939 50.1903 12.8299 48.4413C15.6949 46.6093 18.3829 44.5303 20.7599 42.0943C21.0249 41.8233 20.7409 41.2543 20.3699 41.4903C20.1029 41.6613 20.0889 41.7423 20.0339 42.0633C20.0019 42.2503 20.2249 42.3103 20.3499 42.2293C20.3969 42.2123 20.4439 42.1953 20.4909 42.1793C20.4239 41.9663 20.3579 41.7543 20.2909 41.5423C15.7409 46.2213 10.0059 49.8673 3.99095 52.3473C3.96295 52.3593 3.97895 52.3993 4.00695 52.3963Z" fill="black"/>
<path d="M39.0378 79.2528C39.9848 82.0018 40.5138 84.7378 40.9838 87.5958C41.4218 90.2588 42.5058 92.9228 42.6558 95.6138C42.6748 95.9618 43.0828 96.0658 43.3508 95.9718C44.7578 95.4748 49.6278 96.1118 49.4308 93.5018C49.1118 89.2738 44.6018 91.9308 42.9178 93.4478C42.4308 93.8868 43.0738 94.6528 43.5778 94.2258C44.2618 93.6468 44.9368 93.1018 45.7078 92.6368C46.6548 92.0668 49.2828 92.8188 48.1928 93.9718C47.8368 94.3478 47.1468 94.4298 46.6698 94.5298C45.4528 94.7878 44.0918 94.6198 42.9288 95.0848C43.1598 95.2038 43.3918 95.3228 43.6228 95.4428C43.3538 92.5118 42.2018 89.5998 41.6488 86.6998C41.1568 84.1148 40.7998 81.3218 39.1218 79.1988C39.0838 79.1498 39.0198 79.2018 39.0378 79.2528Z" fill="black"/>
<path d="M59.322 46.7C59.952 45.822 61.176 45.658 62.006 45.017C62.129 44.922 62.194 44.695 62.105 44.556C61.815 44.107 60.359 45.078 59.992 45.287C59.51 45.562 59.033 45.905 58.829 46.442C58.716 46.743 59.137 46.958 59.322 46.7Z" fill="black"/>
<path d="M58.5152 48.9656C58.6352 49.3496 58.8712 49.6806 59.0572 50.0356C59.2762 50.4526 59.4392 50.8886 59.7092 51.2776C59.9752 51.6616 60.6432 51.2326 60.3992 50.8316C60.0322 50.2276 59.4242 48.8036 58.5522 48.9126C58.5302 48.9156 58.5082 48.9426 58.5152 48.9656Z" fill="black"/>
<path d="M60.0451 48.2259C60.5461 48.5239 61.4861 48.7839 61.9901 48.4289C62.1001 48.3509 62.1241 48.1409 62.0211 48.0479C61.5641 47.6309 60.6061 47.7559 60.0651 47.9909C59.9751 48.0299 59.9571 48.1739 60.0451 48.2259Z" fill="black"/>
<path d="M4.1521 53.55C3.54094 53.514 3.17131 54.0934 2.83489 54.5417C2.61873 54.8285 2.41656 55.1249 2.21588 55.423C2.07364 55.634 1.85677 55.864 1.77448 56.1055C1.6314 56.5258 2.10434 56.7956 2.4362 56.5659C2.61963 56.4391 2.74021 56.1666 2.85742 55.982C3.0467 55.6838 3.2345 55.384 3.42011 55.0837C3.72402 54.5913 4.0188 54.1189 4.18424 53.6004C4.19065 53.578 4.17639 53.5518 4.1521 53.55Z" fill="black"/>
<path d="M3.35677 51.7133C3.27945 51.645 3.22238 51.4822 3.12635 51.3827C2.95305 51.2034 2.75041 51.0538 2.57685 50.8735C2.20703 50.4902 1.90722 50.0436 1.49706 49.699C1.3632 49.5858 1.16746 49.6009 1.01608 49.6581C0.149052 49.9846 1.42921 50.9719 1.71584 51.2264C2.00125 51.4802 2.29964 51.7129 2.65411 51.8612C2.95096 51.9877 3.10739 51.8567 3.35308 51.7536C3.37092 51.7468 3.36909 51.7245 3.35677 51.7133Z" fill="black"/>
<path d="M2.59893 52.573C2.25736 52.5423 1.93356 52.5587 1.59172 52.5696C1.21619 52.5822 0.966328 52.4804 0.644911 52.7104C0.53994 52.7862 0.495333 52.9751 0.562977 53.0885C0.995818 53.8152 1.96591 53.2706 2.62263 53.2178C2.99859 53.1875 2.9575 52.6053 2.59893 52.573Z" fill="black"/>
</svg>
