<svg width="81" height="115" viewBox="0 0 81 115" fill="none" xmlns="http://www.w3.org/2000/svg">
<path d="M45.5072 112.294C47.4952 112.29 49.4562 111.862 51.4432 112.122C52.3192 112.236 53.0592 111.3 53.0592 110.505C53.0592 109.538 52.3162 109.003 51.4432 108.889C49.4562 108.629 47.4952 109.057 45.5072 109.062C43.4232 109.066 43.4222 112.299 45.5072 112.294Z" fill="#DE7EB3"/>
<path d="M22.8951 113.076C22.4141 113.316 22.3131 113.387 22.5941 113.289C23.0091 113.161 22.2881 113.296 22.7871 113.258C23.0991 113.235 23.4151 113.253 23.7271 113.272C24.1961 113.302 24.7211 113.382 25.2761 113.565C27.2621 114.219 28.1051 111.097 26.1351 110.448C24.4641 109.897 22.0621 109.632 20.6091 110.79C19.9191 111.34 20.0391 112.506 20.6091 113.076C21.2841 113.751 22.2071 113.624 22.8951 113.076Z" fill="#DE7EB3"/>
<path d="M15.3481 33.0389C18.6911 33.0389 18.6911 27.8549 15.3481 27.8549C12.0051 27.8549 12.0051 33.0389 15.3481 33.0389Z" fill="#F7E9D7"/>
<path d="M13.1098 29.1391C10.5798 32.5791 12.3278 37.2801 16.8918 35.2331C15.5918 34.4871 14.2918 33.7411 12.9918 32.9941C12.6208 43.1751 18.7258 51.3461 27.2408 56.3391C31.4598 58.8131 37.3568 60.7661 42.2748 59.7451C44.9598 59.1871 47.1838 58.0771 49.4598 56.5631C49.9658 56.2261 54.3568 52.8771 53.9778 52.2871C55.2728 54.3061 59.0268 53.7021 58.8078 50.9791C58.4678 46.7551 53.8718 42.9101 51.0068 40.1221C48.4288 37.6131 45.9388 35.1571 43.5958 32.4141C40.7308 29.0601 36.8268 26.6061 34.3698 22.9511C33.6338 21.8571 32.0328 21.1721 30.8238 22.0211C29.7888 22.7491 28.9848 23.4201 28.2298 24.4521C26.4528 26.8811 24.1028 27.8931 21.2658 28.6381C17.6788 29.5791 14.1518 30.3951 11.4538 33.0971C9.98382 34.5701 10.9438 37.7761 13.2868 37.5211C17.1828 37.0981 20.0118 35.1841 23.4228 33.3761C22.1538 32.4001 20.8848 31.4251 19.6158 30.4491C18.8778 35.8891 15.3758 40.5141 14.7288 46.0221C14.5078 47.8981 17.1278 49.3641 18.6288 48.2601C25.8418 42.9541 25.7638 31.1011 34.2818 26.7961L30.7348 23.2491C28.9308 27.2751 26.4338 31.4011 24.0518 35.1201C22.0278 38.2801 19.7338 41.6581 19.8218 45.5521C19.8828 48.2381 23.2188 48.9481 24.6518 46.8601C26.1718 44.6481 27.6828 42.3051 28.7058 39.8131C29.5218 37.8271 30.0338 35.5471 31.5578 33.9591C30.0828 33.3471 28.6078 32.7371 27.1328 32.1261C27.3178 36.8881 22.4148 42.0451 21.0128 46.5791C20.2888 48.9231 23.7128 51.2041 25.3458 49.1011C28.6498 44.8441 30.2448 37.2741 34.7108 34.1491C33.4108 33.4031 32.1098 32.6571 30.8108 31.9111C31.1098 37.7561 25.7928 44.0911 24.3448 49.7481C23.7578 52.0411 26.1438 53.6881 28.1518 52.6751C30.2018 51.6411 31.3548 49.7031 32.4638 47.7681C34.6198 44.0061 36.9498 40.3541 39.2508 36.6761L34.7738 34.0601C31.5618 39.6551 28.4018 45.2631 25.6988 51.1261C24.3148 54.1301 28.3318 56.5871 30.1758 53.7431C32.1288 50.7301 33.9358 47.6391 35.7138 44.5211C37.3178 41.7091 38.8388 38.4461 41.4018 36.4011C39.9268 35.7901 38.4518 35.1791 36.9768 34.5681C37.1258 37.1791 34.6648 40.2421 33.4928 42.5201C31.8978 45.6191 30.3208 48.1681 29.8808 51.6711C29.5688 54.1471 32.8078 54.7791 34.3048 53.5041C38.5108 49.9191 40.0828 44.2031 44.1528 40.4071C42.6778 39.7961 41.2028 39.1851 39.7278 38.5741C39.8128 41.0071 37.2748 43.8281 36.0698 45.8311C34.6018 48.2721 33.2098 50.6161 32.1898 53.2831C31.0458 56.2731 35.3098 57.4031 36.9278 55.2801C39.8468 51.4491 42.4958 45.0891 46.7038 42.5641C45.4038 41.8181 44.1038 41.0721 42.8038 40.3261C43.0978 44.8711 37.9708 48.9561 37.7518 53.7941C37.6248 56.5731 41.2018 57.0561 42.5818 55.1021C44.2018 52.8071 45.4008 49.2551 48.0168 47.9561C46.7168 47.2101 45.4168 46.4641 44.1168 45.7181C44.1608 48.1081 41.9078 50.4681 41.5208 52.8901C41.2088 54.8471 43.2678 57.3251 45.3288 55.8171C47.2258 54.4291 48.4368 52.2121 50.5018 51.1101C49.2328 50.5941 47.9638 50.0771 46.6938 49.5611C46.5808 50.1361 46.4668 50.7101 46.3538 51.2851C45.4478 53.7931 48.9438 55.5751 50.6858 53.8071C51.2998 53.1831 51.7578 52.6141 52.2468 51.8911C54.1278 49.1151 49.6338 46.5241 47.7708 49.2751C47.5208 49.5631 47.2708 49.8521 47.0198 50.1411C48.4638 50.9821 49.9078 51.8231 51.3528 52.6631C52.0578 50.7081 52.0428 50.1791 51.6928 48.1831C51.3908 46.4631 49.2438 45.9091 47.8848 46.6341C45.6748 47.8131 44.6738 49.9061 42.7128 51.3411C43.9818 52.3171 45.2508 53.2921 46.5198 54.2681C47.0128 51.1821 49.3598 48.9501 49.2998 45.7181C49.2628 43.6621 47.1518 42.6101 45.4008 43.4801C41.8048 45.2661 40.3058 49.3701 38.1048 52.4861C39.7148 52.9221 41.3248 53.3581 42.9348 53.7941C43.1598 48.8491 48.3208 45.4731 47.9878 40.3261C47.8648 38.4221 45.8628 37.0221 44.0878 38.0881C38.8918 41.2051 36.0238 47.9761 32.4508 52.6631C34.0298 53.3291 35.6098 53.9951 37.1888 54.6601C39.1608 49.5041 45.1138 44.3361 44.9118 38.5741C44.8318 36.2881 42.1618 35.1791 40.4868 36.7411C36.4418 40.5151 34.7638 46.3231 30.6388 49.8381C32.1138 50.4491 33.5888 51.0601 35.0638 51.6711C35.8278 45.5931 42.5228 40.9021 42.1608 34.5681C42.0238 32.1691 39.5018 31.3261 37.7358 32.7351C32.3168 37.0601 29.4078 45.4041 25.6988 51.1261L30.1758 53.7431C32.8788 47.8801 36.0388 42.2711 39.2508 36.6761C40.9218 33.7651 36.5418 31.2341 34.7738 34.0601C33.0268 36.8531 31.2798 39.6461 29.5328 42.4391C28.3998 44.2511 27.5228 47.1971 25.5358 48.1991C26.8048 49.1751 28.0738 50.1501 29.3438 51.1261C30.9458 44.8661 36.3338 38.5311 35.9938 31.9111C35.9018 30.1051 33.8058 28.4751 32.0938 29.6731C26.7198 33.4341 25.5478 40.4511 21.6798 45.4351C23.1238 46.2761 24.5678 47.1171 26.0118 47.9571C27.6518 42.6541 32.5418 37.9011 32.3168 32.1261C32.2318 29.9391 29.5168 28.5991 27.8918 30.2931C24.2978 34.0391 23.1308 39.9411 20.1758 44.2441C21.7858 44.6801 23.3958 45.1161 25.0058 45.5521C24.9338 42.3771 27.5118 39.3231 29.1488 36.7671C31.3108 33.3921 33.5718 29.5231 35.2118 25.8661C36.2678 23.5111 34.1058 21.0861 31.6658 22.3191C27.8668 24.2401 25.4668 27.8391 23.2358 31.3351C20.9518 34.9141 19.4238 41.2741 16.0128 43.7841C17.3128 44.5301 18.6128 45.2761 19.9128 46.0221C20.4988 41.0321 23.9398 36.8011 24.6148 31.8271C24.9138 29.6251 22.9948 27.7411 20.8068 28.9001C18.4328 30.1581 16.0438 32.0381 13.2868 32.3381C13.8978 33.8121 14.5088 35.2871 15.1198 36.7631C17.6518 34.2271 21.8108 33.9481 25.0958 32.9201C26.6508 32.4331 28.0778 31.5741 29.4078 30.6611C31.0498 29.5341 31.8448 27.6181 33.4398 26.4981L29.8938 25.5681C31.4868 27.9391 33.3318 29.7741 35.5658 31.5581C38.4158 33.8341 40.5818 36.9431 43.0448 39.6071C45.0848 41.8121 47.4008 43.7211 49.4258 45.9401C50.4768 47.0911 53.5018 49.4521 53.6248 50.9791C55.2348 50.5431 56.8438 50.1071 58.4548 49.6711C56.6938 46.9271 54.5088 45.4901 51.5408 47.5491C46.9078 50.7621 45.0878 54.9251 38.5118 54.7291C27.6388 54.4061 17.7918 43.5381 18.1748 32.9941C18.2538 30.8541 15.9578 30.0021 14.2758 30.7561C14.0178 30.8721 13.7598 30.9881 13.5028 31.1031H16.1188C15.9958 31.0331 15.8718 30.9621 15.7488 30.8921C16.1768 31.6381 16.6048 32.3841 17.0328 33.1301C16.9988 32.5801 17.1838 32.1211 17.5868 31.7551C19.5698 29.0581 15.0678 26.4761 13.1098 29.1391Z" fill="#EBC598"/>
<path d="M29.835 63.3417C29.865 67.9147 30.023 72.4327 29.906 77.0087C29.802 81.1367 29.176 85.2367 29.288 89.3387C29.303 89.8937 29.768 90.2857 30.318 90.0597C30.396 90.0317 30.472 89.9997 30.547 89.9647C30.94 89.7837 31.019 89.1747 30.633 88.9347C30.097 88.6027 30.866 84.8497 30.979 84.1227C31.334 81.8247 31.236 79.4547 31.261 77.1367C31.311 72.4707 31.461 67.9387 30.663 63.3087C30.585 62.8557 29.832 62.8607 29.835 63.3417Z" fill="#F1677B"/>
<path d="M27.6841 72.4725C27.3891 73.7505 27.3041 75.0225 27.1931 76.3295C27.0561 77.9375 26.5991 79.4715 26.4601 81.0735C26.1921 84.1635 25.2891 87.4175 25.3651 90.5065C25.6831 90.3595 26.0021 90.2125 26.3201 90.0655C26.3371 90.0775 26.3541 90.0895 26.3711 90.1015C26.2291 89.8235 25.8281 89.7735 25.6441 90.0405C25.6661 90.0325 25.6881 90.0235 25.7101 90.0145C24.6191 90.6885 26.3101 91.7355 26.5421 90.7755C27.2241 87.9625 27.3631 85.0325 27.6901 82.1625C28.0601 78.9235 28.6701 75.8005 28.2631 72.5245C28.2271 72.2425 27.7521 72.1765 27.6841 72.4725Z" fill="#F1677B"/>
<path d="M32.5249 63.2338C31.6789 67.8868 32.6569 72.8968 32.3319 77.6228C32.2029 79.4968 32.0659 81.2288 32.3179 83.0898C32.4519 84.0738 32.3189 85.0678 32.4349 86.0468C32.6309 87.7048 33.0779 89.3038 32.8869 90.9838C32.7849 91.8818 34.1789 92.0098 34.2799 91.1158C34.5339 88.8648 33.7809 86.7168 33.8199 84.4608C33.8579 82.2128 33.5719 80.0228 33.7049 77.7528C33.9869 72.9108 33.5879 68.0238 33.0819 63.2118C33.0469 62.8758 32.5789 62.9408 32.5249 63.2338Z" fill="#F1677B"/>
<path d="M34.2939 62.372C34.8819 64.156 34.4359 66.0299 34.6119 67.8539C34.8189 70.0039 34.9619 72.156 35.2609 74.2959C35.5439 76.3279 35.8909 78.3549 36.1739 80.3899C36.5009 82.7319 36.8439 85.0739 37.2509 87.4039C37.3909 88.2059 37.4429 90.367 38.3109 90.843C39.1169 91.286 39.9509 90.1779 39.1479 89.6469C39.4459 89.8439 38.9969 88.779 38.8999 88.346C38.6759 87.332 38.5049 86.3059 38.3299 85.2829C37.9349 82.9719 37.5919 80.6519 37.2549 78.3309C36.9169 76.0029 36.4619 73.6959 36.2079 71.3559C35.9709 69.1849 35.8129 67.0249 35.7609 64.8429C35.7339 63.7429 35.4259 62.9169 34.8019 62.0439C34.5829 61.7379 34.1949 62.073 34.2939 62.372Z" fill="#F1677B"/>
<path d="M37.7354 62.4262C37.7564 64.3392 38.1924 66.1842 38.6504 68.0352C39.3174 70.7332 39.6284 73.5262 40.1244 76.2592C40.6024 78.8932 41.0964 81.5222 41.8374 84.0972C42.3524 85.8872 42.5024 87.7422 43.2504 89.4642C43.6154 90.3042 44.9064 89.6932 44.5344 88.8542C43.7204 87.0152 43.5234 84.9192 42.9594 82.9902C42.2934 80.7102 41.9294 78.3482 41.4654 76.0222C40.5574 71.4682 39.7804 66.9122 38.7254 62.3862C38.6044 61.8652 37.7294 61.8352 37.7354 62.4262Z" fill="#F1677B"/>
<path d="M40.4692 61.9471C40.0222 63.3361 40.5282 64.7091 40.9662 66.0461C41.8882 68.8591 42.5232 71.6511 43.0892 74.5551C44.0942 79.7191 45.4282 85.0581 48.2862 89.5321C48.8162 90.3621 50.2232 89.7051 49.6842 88.8681C46.8632 84.4901 45.5692 79.3511 44.4772 74.3111C44.0282 72.2401 43.6612 70.1451 43.0082 68.1251C42.3562 66.1111 41.2602 64.1521 41.1602 62.0091C41.1432 61.6451 40.5732 61.6241 40.4692 61.9471Z" fill="#F1677B"/>
<path d="M43.1583 61.0819C42.8643 62.5099 43.5813 64.0329 44.0963 65.3349C45.2303 68.1949 45.7713 71.2649 46.6283 74.2139C48.1213 79.3519 49.8383 84.0909 52.5933 88.6689C53.0963 89.5039 54.4793 88.8689 53.9773 88.0119C52.8993 86.1759 51.7323 84.4269 50.9393 82.4409C49.9233 79.8949 49.2313 77.2209 48.2943 74.6449C47.3423 72.0289 46.8273 69.2589 45.9613 66.6129C45.3363 64.7069 44.2743 62.9789 43.6693 61.0609C43.5803 60.7819 43.2193 60.7869 43.1583 61.0819Z" fill="#F1677B"/>
<path d="M44.7028 60.4485C45.0708 62.8575 46.6208 64.7995 47.1218 67.1685C47.6958 69.8755 48.7248 72.4865 49.8988 74.9815C51.9558 79.3545 53.3608 84.4065 56.3818 88.2575C57.0308 89.0865 58.2788 88.0285 57.6268 87.2005C54.6778 83.4585 53.4078 78.5215 51.2768 74.3275C49.9458 71.7095 48.9628 68.9235 48.3018 66.0655C47.8308 64.0305 46.3548 62.1145 45.5808 60.1685C45.3808 59.6665 44.6258 59.9445 44.7028 60.4485Z" fill="#F1677B"/>
<path d="M22.3389 87.9115C24.9059 88.9395 27.8549 89.0345 30.5809 89.3565C33.8009 89.7375 37.1629 89.6835 40.3849 89.3565C45.9069 88.7965 51.6989 87.7655 56.6889 85.2725C57.5799 84.8275 56.9069 83.4095 56.0249 83.8755C51.4359 86.2995 46.1109 87.1305 41.0079 87.8385C34.7349 88.7095 28.7399 87.5705 22.5269 87.0885C22.0399 87.0505 21.8909 87.7315 22.3389 87.9115Z" fill="#F1677B"/>
<path d="M23.1963 83.4182C27.4413 84.8242 31.8073 84.2762 36.1903 84.0692C38.8423 83.9442 41.4123 83.8132 44.0493 83.5292C46.8263 83.2312 49.6053 82.9092 52.3613 82.4562C53.3043 82.3012 55.8003 82.2062 55.9733 80.8962C56.1073 79.8762 54.4793 79.7212 54.3863 80.7452C54.4323 80.2302 54.6823 80.3492 54.1423 80.5102C53.7303 80.6332 53.3003 80.7092 52.8783 80.7932C51.8643 80.9962 50.8383 81.1452 49.8153 81.2952C47.3713 81.6532 44.9153 81.9352 42.4593 82.2072C40.2833 82.4472 38.1273 82.5372 35.9393 82.6422C33.6333 82.7522 31.3313 82.9122 29.0233 82.9772C27.0813 83.0312 25.1953 82.4062 23.2663 82.6372C22.8643 82.6852 22.8203 83.2932 23.1963 83.4182Z" fill="#F1677B"/>
<path d="M23.65 77.8934C28.246 78.7944 33.336 78.2964 37.99 78.0234C43.345 77.7094 48.671 76.9614 53.964 76.1184C54.95 75.9614 54.679 74.4234 53.696 74.5944C48.723 75.4594 43.718 76.0954 38.687 76.4984C33.663 76.9024 28.61 76.5254 23.611 76.9104C23.011 76.9564 23.143 77.7934 23.65 77.8934Z" fill="#F1677B"/>
<path d="M25.1298 72.4838C27.1308 72.8048 29.1368 72.2888 31.1618 72.4008C33.0108 72.5048 34.8178 72.6278 36.6708 72.5198C41.2768 72.2518 45.7718 70.9788 50.3528 70.4788C50.6738 70.4438 50.9398 70.1298 50.9628 69.8178C50.9698 69.7238 50.9778 69.6298 50.9848 69.5368C51.0678 68.4528 49.3548 68.5108 49.5068 69.5958C49.5178 69.6868 49.5318 69.7768 49.5508 69.8668C49.6698 70.5138 50.6548 70.6508 50.8648 69.9848C50.8948 69.8998 50.9198 69.8128 50.9418 69.7248C51.2358 68.6358 49.5478 68.3558 49.4988 69.3958C49.4938 69.4898 49.4898 69.5838 49.4848 69.6778C49.6888 69.4578 49.8918 69.2368 50.0948 69.0168C45.8238 69.5918 41.6258 70.5948 37.3478 71.1308C35.0138 71.4228 32.7208 71.2428 30.3838 71.1558C28.5848 71.0888 26.8718 71.4908 25.1008 71.7488C24.6678 71.8118 24.7318 72.4198 25.1298 72.4838Z" fill="#F1677B"/>
<path d="M26.5249 68.3505C33.9869 69.7635 41.4039 68.6995 48.6079 66.6585C49.4829 66.4105 49.2399 65.0035 48.3609 65.2585C45.0839 66.2065 41.8229 67.0765 38.4269 67.4745C34.4539 67.9415 30.4649 67.3295 26.4939 67.5685C26.0179 67.5975 26.1209 68.2735 26.5249 68.3505Z" fill="#F1677B"/>
<path d="M27.6583 63.1356C31.0823 63.9546 34.5223 64.2606 38.0273 64.5206C41.2573 64.7606 45.0793 65.0916 48.0813 63.6386C48.6973 63.3406 48.3993 62.3376 47.7113 62.4806C41.1423 63.8406 34.4183 63.1076 27.7513 62.7276C27.5233 62.7146 27.4173 63.0776 27.6583 63.1356Z" fill="#F1677B"/>
<path d="M27.5318 61.4931C31.3048 62.1181 35.1418 63.0851 38.9828 63.0141C40.7878 62.9801 42.5768 62.5661 44.3858 62.6461C45.6978 62.7041 46.9848 62.4571 48.1498 61.8621C48.6808 61.5901 48.4168 60.8091 47.8358 60.8811C44.6278 61.2761 41.3768 61.7231 38.1308 61.8321C34.6008 61.9501 31.1148 60.9431 27.5818 60.9641C27.2408 60.9661 27.1898 61.4361 27.5318 61.4931Z" fill="#F1677B"/>
<path d="M42.7221 14.7426C44.6251 12.7336 44.2081 5.94756 42.5291 3.45856C39.0381 -1.97344 33.4921 3.76556 34.3121 8.46656C35.0601 14.6656 41.9911 17.4126 47.0371 18.7156C51.7911 19.8506 63.0951 16.1996 59.5141 9.55856C56.0601 3.37456 45.9431 10.3916 43.2181 13.8656" fill="#E51C3E"/>
<path d="M27.643 14.8002C30.473 17.5632 32.579 21.4892 36.505 22.8752C42.474 24.9822 48.753 25.8732 54.82 27.5642C58.518 28.5942 60.086 22.8612 56.4 21.8342C51.706 20.5262 47.044 19.5972 42.357 18.1722C39.69 17.3602 37.909 17.3422 35.889 15.1762C34.493 13.6802 33.316 12.0352 31.845 10.5982C29.103 7.92016 24.898 12.1192 27.643 14.8002Z" fill="#F2E846"/>
<path d="M15.662 30.8842C14.808 34.1382 13.819 37.5342 13.952 40.9222C14.071 43.9602 15.123 46.8842 16.548 49.5382C19.255 54.5792 23.711 57.9692 29.027 59.8712C39.605 63.6562 52.529 60.2152 56.998 49.1972C57.245 48.5892 56.291 48.2402 56.046 48.8452C51.7 59.5582 39.516 62.2622 29.365 58.9562C24.162 57.2612 20.124 53.8342 17.337 49.1632C15.831 46.6392 15.013 43.8012 14.753 40.8892C14.455 37.5432 15.839 34.2922 16.132 30.9912C16.156 30.7242 15.734 30.6122 15.662 30.8842Z" fill="black"/>
<path d="M54.6899 52.9764C54.3899 54.0284 54.9689 54.8684 55.9609 55.2334C57.1249 55.6614 58.2369 54.9194 58.8939 54.0164C60.1569 52.2784 60.0519 49.0784 57.8849 48.1304C57.3729 47.9064 57.0789 48.7164 57.5859 48.9394C58.9949 49.5604 58.9879 51.4364 58.5949 52.6904C58.0659 54.3824 55.5399 55.4434 55.2609 53.0274C55.2279 52.7404 54.7709 52.6934 54.6899 52.9764Z" fill="black"/>
<path d="M56.2885 51.1619C56.6745 51.6069 57.0215 52.0629 57.3515 52.5499C57.5545 52.8499 57.9305 52.5199 57.8385 52.2349C57.6185 51.5569 57.1385 51.1439 56.4895 50.8749C56.3205 50.8049 56.1715 51.0269 56.2885 51.1619Z" fill="black"/>
<path d="M14.2264 34.4901C13.4874 33.9531 12.8294 33.6481 12.4944 32.7231C12.2424 32.0271 12.2684 31.3941 12.6904 30.7731C12.9804 30.3451 13.4674 30.0201 13.9654 29.8941C14.4054 29.7821 14.4704 29.9911 14.7054 30.2861C14.8014 30.4061 15.0034 30.3961 15.0874 30.2691C15.4604 29.7061 14.9214 29.2451 14.3734 29.1641C13.6324 29.0541 12.7804 29.6101 12.3214 30.1391C11.6794 30.8791 11.4834 31.7991 11.7734 32.7351C12.0834 33.7401 13.0114 34.8941 14.1974 34.6201C14.2584 34.6061 14.2784 34.5281 14.2264 34.4901Z" fill="black"/>
<path d="M13.0141 31.1155C13.3641 31.5855 13.6971 32.0645 14.0371 32.5415C14.3121 32.9245 14.8781 32.4475 14.5971 32.0665C14.2321 31.5725 13.8191 31.0385 13.2361 30.7995C13.0391 30.7185 12.9011 30.9635 13.0141 31.1155Z" fill="black"/>
<path d="M35.0117 42.0058C35.3687 41.7788 35.9907 41.7098 36.3917 41.7928C36.3047 41.7128 36.2187 41.6328 36.1327 41.5538C36.2457 42.0628 36.2917 42.5638 36.1947 43.0808C36.0957 43.6088 36.9917 43.7058 37.0317 43.1598C37.0797 42.5038 36.9277 41.9768 36.6817 41.3778C36.6467 41.2918 36.5407 41.2138 36.4467 41.2128C36.1387 41.2118 35.8657 41.2538 35.5787 41.3638C35.2977 41.4718 35.1697 41.7328 34.9487 41.9088C34.8987 41.9498 34.9557 42.0418 35.0117 42.0058Z" fill="black"/>
<path d="M43.9379 52.1244C44.5709 52.9884 45.2459 53.6624 46.3239 53.9284C47.8949 54.3174 49.5409 53.4444 49.9789 51.8534C50.3989 50.3234 49.4749 48.5884 47.9039 48.1994C47.8539 48.1864 47.8029 48.1744 47.7529 48.1614C47.9889 48.2614 48.2259 48.3614 48.4619 48.4604C48.4209 48.4424 48.3799 48.4234 48.3379 48.4044C48.6479 48.5784 48.8909 48.8184 49.0689 49.1254C48.5919 48.4754 48.0989 47.9814 47.2929 47.7604C46.5259 47.5494 45.6899 47.6574 45.0039 48.0594C43.7149 48.8144 42.9789 50.8154 43.9379 52.1244Z" fill="#F16776"/>
<path d="M16.7779 39.117C17.4169 39.98 18.0829 40.648 19.1629 40.92C20.7329 41.314 22.3819 40.431 22.8179 38.845C23.2399 37.311 22.3129 35.585 20.7429 35.19L20.5919 35.152C20.8289 35.252 21.0659 35.352 21.3019 35.451C21.2609 35.433 21.2199 35.414 21.1779 35.395C21.4879 35.569 21.7319 35.81 21.9089 36.118C21.4279 35.469 20.9419 34.975 20.1329 34.753C19.3659 34.542 18.5299 34.65 17.8439 35.052C16.5609 35.804 15.8119 37.812 16.7779 39.117Z" fill="#F16776"/>
<path d="M32.2217 49.0785C33.1287 52.2575 37.6257 52.8765 39.3287 50.0655C39.6257 49.5755 38.9077 49.0615 38.5947 49.5515C36.9837 52.0785 34.0657 50.9175 32.6477 48.8785C32.5127 48.6835 32.1567 48.8485 32.2217 49.0785Z" fill="#EE313E"/>
<path d="M41.9814 40.3142C42.6164 42.5132 45.0254 45.0192 47.5064 44.0282C47.7934 43.9142 47.6824 43.5002 47.4064 43.4642C46.2474 43.3142 45.3254 43.4092 44.3554 42.6222C43.5174 41.9422 43.1394 40.8752 42.3954 40.1202C42.2474 39.9692 41.9104 40.0672 41.9814 40.3142Z" fill="black"/>
<path d="M25.3546 36.2171C27.3406 37.3761 30.6296 37.6971 31.9066 35.3441C32.0666 35.0481 31.7546 34.7431 31.4706 34.9471C30.4546 35.6761 29.7616 36.3581 28.4256 36.3381C27.4296 36.3231 26.4986 35.8801 25.5126 35.7871C25.2886 35.7661 25.1426 36.0931 25.3546 36.2171Z" fill="black"/>
<path d="M17.0302 30.1502C20.0892 29.6382 23.0572 29.4092 26.0162 28.4052C28.7842 27.4652 31.2752 25.9272 33.5852 24.1642C33.7302 24.0532 33.5502 23.8542 33.4042 23.9512C31.0042 25.5592 28.4972 26.9142 25.7972 27.9442C22.9222 29.0402 19.8942 29.0632 16.9992 29.9712C16.8912 30.0052 16.9112 30.1702 17.0302 30.1502Z" fill="#E17026"/>
<path d="M34.6436 24.9095C34.6016 27.3115 35.3346 29.6665 36.6856 31.6545C37.9716 33.5455 40.2316 34.1335 42.3346 34.5645C42.6106 34.6205 42.7136 34.1595 42.4446 34.0845C40.6476 33.5825 38.8916 32.9085 37.5576 31.5565C35.9706 29.9475 35.1136 27.0865 34.9606 24.8965C34.9486 24.7165 34.6466 24.7305 34.6436 24.9095Z" fill="#E17026"/>
<path d="M41.7369 27.0683C41.0989 30.5083 41.4219 36.8953 45.5179 38.1173C45.7259 38.1793 45.8849 37.9063 45.6979 37.7743C42.3199 35.3933 41.9699 30.8783 41.8889 27.0833C41.8869 26.9853 41.7549 26.9703 41.7369 27.0683Z" fill="#E17026"/>
<path d="M46.0757 28.1298C45.4337 34.2418 47.3887 41.1218 53.5327 43.5388C53.9237 43.6928 54.1077 43.1228 53.7527 42.9428C48.0137 40.0178 46.5667 34.1938 46.3667 28.1568C46.3607 27.9738 46.0957 27.9368 46.0757 28.1298Z" fill="#E17026"/>
<path d="M53.3388 32.7694C56.9778 37.8694 57.9978 43.2084 55.5738 49.1254C55.4708 49.3774 55.8718 49.5964 56.0028 49.3494C57.4408 46.6334 57.8978 44.0934 57.4868 41.0374C57.0258 37.6054 55.5688 35.2804 53.4848 32.6464C53.4068 32.5494 53.2688 32.6704 53.3388 32.7694Z" fill="#E17026"/>
<path d="M51.2579 35.5956C53.6959 37.1386 54.4939 39.6556 54.4699 42.3996C54.4559 44.0296 55.5019 45.3416 56.6329 46.3926C56.8999 46.6406 57.3259 46.3096 57.0759 46.0176C56.2439 45.0456 55.4119 44.2206 55.0489 42.9456C54.7389 41.8586 54.9549 40.6296 54.6509 39.5046C54.1749 37.7456 52.9689 36.2686 51.3779 35.4246C51.2619 35.3636 51.1419 35.5216 51.2579 35.5956Z" fill="#E17026"/>
<path d="M32.6933 9.70686C28.3223 9.00686 23.8783 9.78486 19.9943 11.8839C15.5983 14.2589 12.7263 18.0959 9.87533 22.0539C8.26333 24.2919 6.39633 26.0629 4.30933 27.8339C2.85433 29.0689 1.67033 30.4369 0.903328 32.1949C-0.963672 36.4729 0.889329 41.9149 3.89433 45.1809C4.09833 45.4029 4.48933 45.1719 4.34633 44.8889C2.04733 40.3109 -0.649672 35.7599 2.63233 30.8029C3.71033 29.1749 5.48633 27.9829 6.94233 26.7159C8.34133 25.4989 9.47133 24.0239 10.5653 22.5379C13.4253 18.6489 16.1133 15.1299 20.3453 12.6229C24.1743 10.3549 28.3393 10.2509 32.6493 10.1739C32.9483 10.1679 32.9973 9.75486 32.6933 9.70686Z" fill="#E17026"/>
<path d="M7.99658 37.8655C6.00658 38.6505 7.16758 41.7425 7.73358 43.1655C8.71258 45.6275 11.2776 47.7415 13.9656 47.8425C14.4176 47.8585 14.4556 47.2485 14.0306 47.1575C11.9356 46.7105 10.4086 45.8345 9.10958 44.1125C8.20158 42.9065 6.62858 39.3725 8.14158 38.0895C8.26258 37.9875 8.13558 37.8105 7.99658 37.8655Z" fill="#E17026"/>
<path d="M42.0225 16.1775C44.2835 12.8965 44.6075 7.81753 43.2405 4.11853C41.6285 -0.245466 37.0765 -1.57847 33.8275 2.26553C30.4795 6.22953 31.8805 12.3725 35.4715 15.7605C36.5255 16.7545 38.6955 17.8925 40.1475 17.2035C42.5955 16.0425 39.5505 12.6835 40.5985 11.0385C40.8985 10.5675 40.1895 10.0675 39.8875 10.5405C39.3555 11.3755 39.1785 12.1525 39.5235 13.1175C39.8055 13.9075 41.2165 16.4495 39.1035 16.5335C38.1705 16.5705 37.1105 15.8565 36.3825 15.3745C32.7805 12.9895 31.6675 6.69153 34.1015 3.27653C35.7575 0.950535 38.9475 -0.191467 41.1835 1.96653C42.3635 3.10653 42.8025 4.91553 43.0785 6.46253C43.6055 9.41253 43.3695 13.3775 41.7495 15.9865C41.6355 16.1675 41.8995 16.3565 42.0225 16.1775Z" fill="#E257A0"/>
<path d="M41.9877 15.6737C44.3837 13.9137 46.1817 11.4907 48.4927 9.62765C51.8207 6.94465 57.3587 6.51865 59.6777 10.7057C62.2827 15.4087 56.4787 18.1767 52.9177 18.8867C48.8197 19.7047 44.5697 19.1277 41.5887 15.9857C41.4367 16.2027 41.2847 16.4197 41.1327 16.6367C44.1397 18.0897 47.6517 17.4557 50.8437 17.1267C51.3747 17.0727 51.2277 16.2577 50.7007 16.3137C47.6417 16.6327 44.2997 17.2577 41.4177 15.8657C41.0447 15.6857 40.6867 16.2277 40.9617 16.5167C44.3687 20.1087 49.0317 20.4667 53.6647 19.5427C57.1427 18.8487 61.5277 16.5457 60.9117 12.2847C60.2797 7.90465 56.0337 6.25066 52.0577 7.05865C47.6867 7.94666 44.6827 12.4507 41.8317 15.4887C41.7267 15.6017 41.8597 15.7677 41.9877 15.6737Z" fill="#E257A0"/>
<path d="M55.6645 19.3129C58.2575 19.6969 60.8165 22.7069 62.3515 24.6419C64.3375 27.1459 65.5605 30.2289 66.7375 33.1679C68.4945 37.5549 69.6055 42.2609 69.7545 46.9919C69.9075 51.8539 68.6305 56.7429 65.1985 60.3089C62.0375 63.5919 55.4345 66.2389 51.2385 63.5639C50.7185 63.2329 50.2175 63.9599 50.6935 64.3429C54.4955 67.3969 60.9615 64.8589 64.3815 62.3489C68.8065 59.0999 70.5345 53.6279 70.7105 48.3569C70.8975 42.7519 69.3185 37.1879 67.2075 32.0519C65.8585 28.7689 64.2965 25.5679 61.8905 22.9239C60.4425 21.3339 57.9985 18.8449 55.7065 18.8689C55.4225 18.8719 55.3755 19.2709 55.6645 19.3129Z" fill="#E17026"/>
<path d="M57.8227 58.0224C56.3957 59.8114 54.9447 61.4784 52.5797 61.9374C52.0677 62.0364 52.2057 62.8044 52.7207 62.7324C55.0897 62.4034 57.4347 60.5074 58.3447 58.2954C58.4787 57.9694 58.0257 57.7684 57.8227 58.0224Z" fill="#E17026"/>
<path d="M53.1186 57.4363C52.1806 58.5943 50.9266 59.5853 50.6286 61.1153C50.5476 61.5353 51.2506 61.6943 51.3606 61.2823C51.7346 59.8843 52.9416 58.9493 53.4776 57.6243C53.5686 57.3983 53.2596 57.2633 53.1186 57.4363Z" fill="#E17026"/>
<path d="M29.6637 15.3045C23.9907 13.1845 16.8627 20.1835 14.7367 24.8485C14.5997 25.1495 15.0927 25.4095 15.2507 25.1175C17.7817 20.4445 23.8087 14.4735 29.5957 15.6005C29.7707 15.6345 29.8217 15.3635 29.6637 15.3045Z" fill="#E17026"/>
<path d="M61.4786 48.0551C63.1786 44.9701 63.2306 40.9051 62.8836 37.4801C62.8556 37.2071 62.4066 37.2251 62.4006 37.5001C62.3276 41.1041 62.2066 44.4311 61.2586 47.9401C61.2246 48.0671 61.4056 48.1881 61.4786 48.0551Z" fill="#E17026"/>
<path d="M51.2251 12.1962C51.1701 12.2932 51.1151 12.3902 51.0601 12.4882C50.4951 13.4902 52.0351 14.3882 52.6001 13.3872C52.6551 13.2902 52.7091 13.1932 52.7641 13.0952C53.3301 12.0932 51.7901 11.1952 51.2251 12.1962Z" fill="white"/>
<path d="M57.0096 12.4026C57.0246 12.3756 57.0396 12.3486 57.0546 12.3206C57.6096 11.3136 56.1016 10.4316 55.5156 11.4216C55.4436 11.5446 55.3746 11.6706 55.3046 11.7946C54.7396 12.7976 56.2806 13.6956 56.8436 12.6946C56.9146 12.5696 56.9826 12.4446 57.0546 12.3206C56.5416 12.0216 56.0286 11.7216 55.5156 11.4216C55.5006 11.4486 55.4856 11.4756 55.4706 11.5036C54.9106 12.5076 56.4496 13.4066 57.0096 12.4026Z" fill="white"/>
<path d="M37.0937 7.84015C38.2427 7.84015 38.2427 6.05815 37.0937 6.05815C35.9447 6.05815 35.9447 7.84015 37.0937 7.84015Z" fill="white"/>
<path d="M39.0142 3.77574C38.6432 4.45274 38.7812 5.06374 39.4622 5.45274C40.4622 6.02474 41.3602 4.48374 40.3622 3.91374C40.2342 3.83674 40.2192 3.83074 40.3172 3.89674C40.3932 4.02774 40.4702 4.15874 40.5462 4.28974C40.5422 4.27374 40.5372 4.25674 40.5332 4.24074V4.71374C40.4732 4.82074 40.4802 4.80774 40.5532 4.67474C41.1062 3.66674 39.5662 2.76774 39.0142 3.77574Z" fill="white"/>
<path d="M46.6362 15.5266C47.7852 15.5266 47.7852 13.7446 46.6362 13.7446C45.4872 13.7446 45.4872 15.5266 46.6362 15.5266Z" fill="white"/>
<path d="M26.6734 60.9091C24.4574 68.1481 23.3214 76.0371 22.3954 83.5331C22.2114 85.0221 21.1474 89.4131 22.4584 90.7101C25.5344 93.7531 31.2344 92.6651 35.0974 92.2631C38.9324 91.8651 42.7524 91.3161 46.5684 90.7701C50.2124 90.2491 53.9874 90.5411 57.5844 89.7361C60.7104 89.0361 60.1814 86.6031 59.4444 84.1731C56.9594 75.9841 52.2604 68.3291 48.2144 60.8381C47.8984 60.2531 46.9604 60.6931 47.2784 61.2821C50.8414 67.8741 54.4844 74.4651 57.3534 81.3981C57.9484 82.8381 58.4914 84.3081 58.8584 85.8251C59.4114 88.1111 58.5524 88.7111 56.0854 89.1031C52.8924 89.6111 49.6184 89.4311 46.4144 89.8971C42.9074 90.4071 39.3974 90.8941 35.8774 91.3041C33.3544 91.5971 23.6044 93.3281 22.9054 89.6221C22.3984 86.9341 23.1574 83.7531 23.5434 81.0961C24.5194 74.3641 26.2384 67.7531 27.1954 61.0281C27.2384 60.7251 26.7634 60.6161 26.6734 60.9091Z" fill="#DC6496"/>
<path d="M27.5053 61.411C27.0793 63.196 27.4023 65.027 27.1033 66.838C26.6973 69.289 25.9383 71.618 25.7213 74.109C25.6403 75.049 27.0893 75.184 27.1763 74.247C27.5843 69.842 29.0163 65.911 28.1513 61.47C28.0923 61.167 27.5873 61.068 27.5053 61.411Z" fill="#F1677B"/>
<path d="M7.47371 70.327C7.53771 70.327 7.54771 70.227 7.48371 70.227C7.41971 70.227 7.40971 70.327 7.47371 70.327Z" fill="black"/>
<path d="M7.45758 70.4989C14.7406 70.8089 21.9876 65.8739 27.2966 61.3659C27.8356 60.9079 27.1456 60.1019 26.5886 60.5319C23.8446 62.6489 21.1326 64.7119 18.0896 66.3949C14.7136 68.2619 11.1406 69.1239 7.43958 70.0579C7.20758 70.1169 7.19258 70.4879 7.45758 70.4989Z" fill="black"/>
<path d="M55.4273 67.1405C57.7283 68.3055 76.9903 73.7025 75.9193 68.8725C75.8453 68.5425 75.3373 68.3485 75.1433 68.7005C73.7613 71.2185 67.0393 69.0985 65.0023 68.6315C62.0473 67.9565 58.5983 67.3325 55.8643 65.9605C55.1363 65.5965 54.7143 66.7795 55.4273 67.1405Z" fill="black"/>
<path d="M78.3219 66.4203C77.5509 67.4193 76.7589 68.5483 75.7399 69.3083C75.1159 69.7743 75.9269 70.7493 76.5259 70.2343C77.5759 69.3333 78.4359 68.1813 79.2689 67.0833C79.7219 66.4873 78.7769 65.8323 78.3219 66.4203Z" fill="black"/>
<path d="M76.957 71.1546C77.768 72.0756 78.645 73.0066 79.299 74.0466C79.747 74.7576 80.918 74.2596 80.514 73.4686C80.218 72.8916 79.77 72.4506 79.292 72.0236C78.743 71.5316 78.058 71.1856 77.559 70.6436C77.215 70.2716 76.619 70.7706 76.957 71.1546Z" fill="black"/>
<path d="M77.1085 70.4916C77.4935 70.9236 78.1435 70.8416 78.6685 70.8026C79.1765 70.7636 80.1995 70.8206 80.2655 70.1126C80.3305 69.4336 79.4285 69.5096 79.0215 69.5966C78.4465 69.7206 77.5815 69.7296 77.1365 70.1506C77.0425 70.2396 77.0175 70.3886 77.1085 70.4916Z" fill="black"/>
<path d="M31.2227 94.4651C31.2637 94.4651 31.2707 94.4011 31.2287 94.4011C31.1877 94.4011 31.1807 94.4651 31.2227 94.4651Z" fill="black"/>
<path d="M31.0196 94.4134C30.4676 98.8254 29.9096 103.237 29.3666 107.65C29.2506 108.596 29.1536 109.543 29.0586 110.49C28.9636 111.444 29.2856 111.874 28.3876 111.948C26.8906 112.071 25.4566 112.528 24.0006 112.878C23.4486 113.012 22.8936 113.097 22.3296 113.166C21.6506 113.26 21.0026 113.148 20.3866 112.832C20.0026 112.558 19.7566 112.196 19.6466 111.747C20.3506 111.316 21.6786 111.587 22.4526 111.653C24.1266 111.796 25.7596 112.21 27.4256 112.39C28.0196 112.454 28.1036 111.533 27.5126 111.469C25.9546 111.302 19.5776 109.32 18.7406 111.396C18.2746 112.552 19.8986 113.843 20.8906 113.998C23.7786 114.451 26.4346 112.503 29.2846 112.851C29.5096 112.879 29.7346 112.694 29.7486 112.467C30.1266 106.452 31.3376 100.481 31.4316 94.4524C31.4366 94.1874 31.0526 94.1454 31.0196 94.4134Z" fill="black"/>
<path d="M42.0748 95.9105C42.1168 95.9105 42.1218 95.8465 42.0808 95.8465C42.0388 95.8465 42.0328 95.9105 42.0748 95.9105Z" fill="black"/>
<path d="M42.2907 96.3036C42.5917 99.7976 41.9797 103.489 42.4937 106.944C42.6897 108.268 42.3217 110.159 43.3777 111.19C44.3797 112.167 46.5727 112.329 47.9007 112.573C49.6217 112.888 51.5487 112.888 52.7837 111.51C52.8777 111.405 52.8937 111.184 52.8207 111.065C50.9787 108.039 46.6487 108.796 43.7437 109.497C43.1617 109.637 43.3277 110.564 43.9047 110.412C45.9787 109.867 48.2007 109.519 50.3057 110.093C51.3807 110.251 51.5147 110.806 50.7067 111.757C50.0147 111.939 49.2597 111.844 48.5587 111.78C47.5577 111.69 46.6217 111.345 45.6467 111.15C43.8887 110.799 43.5377 110.234 43.4727 108.617C43.4267 107.461 43.2577 106.345 43.2257 105.181C43.1407 102.188 43.1267 99.2076 42.5687 96.2546C42.5347 96.0726 42.2747 96.1246 42.2907 96.3036Z" fill="black"/>
<path d="M29.124 11.0658C27.296 11.5768 25.406 11.2838 23.772 11.9038C20.529 12.6458 17.821 14.7168 15.416 16.7028C9.95203 21.8438 3.36503 29.4368 2.08203 37.1908C1.70203 38.7748 1.61403 42.5788 3.37003 43.5658C5.12403 44.5538 5.55103 41.9708 5.82103 40.5818C7.22303 42.6538 10.01 49.1058 13.608 47.2788C15.546 46.5728 14.39 43.6098 13.965 42.0848C13.759 40.1718 13.966 37.9758 13.346 36.3418C12.666 33.9038 7.43703 28.1328 13.716 28.8448C15.91 29.0538 17.19 29.5168 19.324 28.9218C21.874 28.0448 24.117 27.2538 26.75 26.6818C29.385 26.1108 31.043 24.9898 33.312 23.6988C35.47 22.6028 36.47 22.6518 37.151 25.0898C37.747 27.2248 37.843 29.3338 39.244 31.4068C40.17 32.9558 41.512 34.2258 42.851 35.4938C45.252 37.6158 48.567 39.4828 51.271 41.5208C52.332 42.3748 53.806 42.9478 55.172 43.7188C56.428 44.6808 57.461 46.0358 58.499 47.3898C61.047 50.6218 62.799 55.7188 56.86 56.2278C54.641 56.5198 52.971 55.8358 52.348 58.3108C52.054 60.1998 52.676 61.8348 51.687 63.5878C58.5 65.6298 64.927 63.3418 67.967 56.5758C71.005 49.8108 69.607 43.6298 67.843 36.7268C66.396 31.5438 64.071 23.8148 59.195 21.0688C56.355 19.7258 53.002 20.6618 50.004 20.5138C47.201 20.4758 44.555 19.2428 41.86 19.0098C38.166 18.7268 35.337 19.1878 32.767 16.4568C30.866 14.3578 29.929 11.0038 26.87 10.0528" fill="#F2E846"/>
<path d="M6.25825 72.1707C6.06965 73.2347 5.03678 73.9117 4.56539 74.8485C4.49553 74.9873 4.53504 75.2201 4.67537 75.307C5.13096 75.5865 6.02422 74.0816 6.26482 73.7345C6.58061 73.2781 6.86249 72.7627 6.81433 72.1902C6.78613 71.87 6.31356 71.8581 6.25825 72.1707Z" fill="black"/>
<path d="M6.00627 69.7788C5.73208 69.4844 5.37619 69.288 5.05502 69.0482C4.67729 68.7669 4.34185 68.4442 3.93023 68.2101C3.52439 67.9788 3.10744 68.6544 3.5008 68.9105C4.09282 69.2965 5.25659 70.3178 5.99581 69.8426C6.01436 69.8304 6.02252 69.7966 6.00627 69.7788Z" fill="black"/>
<path d="M4.9467 71.1071C4.36611 71.055 3.40607 71.2268 3.10503 71.7648C3.03955 71.8827 3.10868 72.0824 3.24176 72.1218C3.83411 72.3003 4.64396 71.7735 5.03024 71.3277C5.09454 71.2536 5.04853 71.116 4.9467 71.1071Z" fill="black"/>
</svg>
