<svg width="62" height="101" viewBox="0 0 62 101" fill="none" xmlns="http://www.w3.org/2000/svg">
<path d="M11.3729 100.287C12.9729 100.317 14.5729 100.346 16.1729 100.374C17.8459 100.405 17.8429 97.813 16.1729 97.783C14.5729 97.753 12.9729 97.724 11.3729 97.695C9.69988 97.664 9.70388 100.256 11.3729 100.287Z" fill="#7A5830"/>
<path d="M44.42 100.616C45.168 100.598 45.892 100.434 46.61 100.241C47.312 100.052 48.155 99.6905 48.895 99.8105C50.529 100.078 51.231 97.5795 49.584 97.3115C47.741 97.0115 46.208 97.9815 44.42 98.0235C42.751 98.0625 42.747 100.655 44.42 100.616Z" fill="#7A5830"/>
<path d="M22.499 80.2284C22.535 80.1844 22.571 80.1394 22.607 80.0944C21.215 79.2834 19.822 78.4724 18.429 77.6624C17.698 79.4014 17.083 81.1724 16.479 82.9634C16.122 84.0274 16.708 85.2324 17.629 85.7874C24.204 89.7434 25.585 84.7484 26.947 78.6124C25.31 78.3914 23.673 78.1694 22.036 77.9484C22.183 80.2284 22.12 82.4574 21.982 84.7374C21.784 88.0254 26.588 87.8404 26.982 84.7374C27.614 79.7634 30.765 77.0174 35.673 77.3844L33.262 75.5494C33.631 78.0164 33.271 80.3284 33.938 82.7614C34.374 84.3454 36.204 85.0374 37.611 84.2554C40.263 82.7844 45.276 85.1474 46.422 80.9854C47.059 78.6704 44.352 74.6464 43.167 72.8294C41.415 70.1404 37.084 72.6434 38.851 75.3534C39.922 76.9984 40.802 78.9124 41.531 80.7304C41.83 79.1104 41.333 78.4974 40.039 78.8884C39.324 78.8894 38.613 78.9324 37.904 79.0194C36.852 79.1164 36.001 79.4314 35.088 79.9384C36.312 80.4364 37.536 80.9344 38.761 81.4324C38.118 79.0914 38.441 76.6164 38.084 74.2204C37.913 73.0814 36.687 72.4604 35.673 72.3844C27.745 71.7914 22.965 77.0014 21.982 84.7374H26.982C27.12 82.4574 27.183 80.2284 27.036 77.9484C26.863 75.2534 22.767 74.3964 22.125 77.2834C21.749 78.9814 22.137 82.6634 20.152 81.4694C20.535 82.4104 20.918 83.3524 21.302 84.2924C21.905 82.4994 22.519 80.7334 23.251 78.9914C24.21 76.7074 20.601 74.6634 19.072 76.5584L18.964 76.6934C16.96 79.1774 20.475 82.7394 22.499 80.2284Z" fill="#85C98D"/>
<path d="M17.8624 75.245C17.3144 80.087 13.9724 83.65 11.6744 87.747C11.3674 88.294 11.8484 88.928 12.4614 88.679C17.4514 86.649 23.1584 89.378 28.3304 89.012C29.6044 88.922 30.4594 87.901 30.6764 86.701C31.2634 83.461 31.1834 80.221 33.1434 77.383C32.7074 77.347 32.2714 77.31 31.8354 77.274C33.4584 80.424 34.2614 83.663 34.1094 87.215C34.0794 87.933 35.1024 88.453 35.5204 87.734C37.0854 85.045 41.4914 85.907 44.0744 86.059C46.2934 86.191 48.7494 86.381 50.6814 85.101C50.9794 84.903 51.0264 84.439 50.8884 84.141C49.1584 80.41 47.4134 76.669 45.1984 73.195C44.6244 72.294 43.0964 73.005 43.6804 73.916C45.9044 77.387 47.6334 81.133 49.4334 84.832C49.5034 84.513 49.5714 84.193 49.6404 83.872C45.4024 86.71 37.3874 81.4 34.2474 86.843C34.7164 87.016 35.1874 87.189 35.6584 87.362C35.8094 83.542 34.9674 80.009 33.2084 76.621C32.9494 76.124 32.2324 76.026 31.8994 76.512C30.6154 78.387 30.0404 80.524 29.6494 82.739C29.4584 83.827 29.3994 84.932 29.2964 86.03C29.1274 87.814 27.6934 87.618 26.3384 87.53C21.6384 87.224 16.4474 85.624 11.9204 87.539C12.1824 87.849 12.4444 88.16 12.7074 88.471C14.9734 84.34 19.0014 80.236 18.7134 75.211C18.6844 74.712 17.9154 74.781 17.8624 75.245Z" fill="#53B949"/>
<path d="M18.211 90.7489C17.836 93.6219 16.74 96.4159 16.796 99.3339C16.801 99.6059 17.013 99.3749 16.552 99.3669C16.023 99.3569 15.491 99.3859 14.963 99.3999C13.806 99.4319 12.647 99.4539 11.496 99.3079C11.075 99.2539 9.42497 98.7489 10.533 98.4709C11.375 98.2599 12.287 98.2409 13.148 98.2069C14.484 98.1549 15.971 98.4209 17.282 98.1709C17.577 98.1149 17.644 97.6649 17.337 97.5679C16.001 97.1479 14.255 97.3929 12.878 97.4479C11.997 97.4839 9.97597 97.3609 9.35697 98.2019C8.75097 99.0219 10.088 99.6659 10.678 99.8989C12.571 100.648 15.091 100.08 17.076 100.095C17.259 100.096 17.454 99.9809 17.461 99.7769C17.567 96.7169 18.516 93.8319 18.662 90.7919C18.677 90.4989 18.249 90.4589 18.211 90.7489Z" fill="black"/>
<path d="M41.1278 88.8168C41.0508 90.5418 41.1738 92.2808 41.4208 93.9878C41.7198 96.0507 42.3958 98.0857 41.9908 100.184C41.9538 100.38 42.1408 100.587 42.3318 100.596C43.5338 100.654 50.0928 100.856 49.7658 98.7278C49.5518 97.3418 47.6618 96.8178 46.4958 96.9538C45.5208 97.0678 42.4138 97.3968 42.1498 98.6858C42.0898 98.9828 42.4658 99.0907 42.6628 98.9527C44.2158 97.8607 47.3078 97.1168 48.8018 98.5008C49.5848 99.2258 44.8488 99.7838 44.3918 99.8118C43.7738 99.8498 43.1538 99.8618 42.5358 99.8498C43.2288 99.8638 42.7618 97.4908 42.7068 97.0928C42.5338 95.8278 42.2058 94.5848 41.9958 93.3247C41.7428 91.8038 41.7828 90.2548 41.2768 88.7908C41.2518 88.7158 41.1308 88.7418 41.1278 88.8168Z" fill="black"/>
<path d="M4.35454 48.7703C7.57154 50.0593 11.3725 49.4953 14.6845 48.9053C16.8235 48.5233 18.9315 47.9673 21.0325 47.4163C22.6775 46.9853 24.5305 46.7253 26.0485 45.9533C26.3025 45.8243 26.2675 45.3693 25.9465 45.3683C22.7615 45.3563 19.2525 46.9783 16.1495 47.6893C12.2025 48.5923 8.42754 48.7213 4.40454 48.5553C4.27854 48.5503 4.23554 48.7233 4.35454 48.7703Z" fill="black"/>
<path d="M1.38387 46.4574C1.98987 46.6054 2.65587 46.9464 3.18887 47.2574C3.82387 47.6284 4.35987 48.3464 5.05887 48.5564C5.23287 48.6084 5.48287 48.4684 5.41887 48.2564C5.19687 47.5224 4.38587 47.0554 3.73487 46.7234C2.94187 46.3204 2.27487 46.1224 1.40387 46.2394C1.29587 46.2534 1.27187 46.4304 1.38387 46.4574Z" fill="black"/>
<path d="M0.231363 51.8031C1.27336 51.6601 2.16636 51.3421 3.09436 50.8501C3.83536 50.4571 4.91536 49.9331 5.33836 49.1971C5.43836 49.0221 5.32036 48.7691 5.09436 48.8151C4.39336 48.9551 3.85136 49.5161 3.26836 49.9111C2.32236 50.5531 1.26536 51.0941 0.161363 51.4001C-0.0896375 51.4701 -0.0336375 51.8391 0.231363 51.8031Z" fill="black"/>
<path d="M1.8585 49.222C2.4105 48.909 3.0095 48.752 3.6275 48.621C4.1885 48.501 4.7685 48.459 5.2595 48.143C5.4345 48.031 5.4475 47.688 5.1795 47.688C3.9675 47.685 2.6565 48.125 1.6415 48.766C1.3735 48.935 1.5705 49.386 1.8585 49.222Z" fill="black"/>
<path d="M47.1445 17.8451C47.8185 18.1341 48.5705 18.1791 49.2775 18.3561C50.0915 18.5601 50.7495 19.1161 51.5515 19.3001C51.7685 19.3501 52.0615 19.1511 51.9155 18.9031C51.0915 17.5111 48.5405 17.2511 47.1425 17.7841C47.1145 17.7951 47.1215 17.8351 47.1445 17.8451Z" fill="black"/>
<path d="M23.418 52.3593C21.855 57.3903 18.32 61.4883 16.751 66.5513C16.219 68.2693 17.366 70.0263 19.009 70.5283C28.444 73.4093 32.153 57.5743 34.593 51.5333C32.477 51.2473 30.359 50.9613 28.243 50.6743C28.141 57.4213 24.23 63.3603 24.492 70.1933C24.576 72.3883 26.482 73.7413 28.584 73.3103C36.767 71.6333 33.922 57.5613 36.096 51.9373C33.98 51.6513 31.862 51.3643 29.746 51.0783C29.619 57.8563 29.495 64.6343 29.368 71.4133C29.311 74.4913 33.984 76.0153 35.392 73.0443C36.18 71.3823 37.767 71.0743 39.447 71.0053C41.866 70.9073 43.514 68.3263 42.238 66.1423C39.644 61.6973 38.547 53.9743 38.889 48.8683C37.05 49.6303 35.21 50.3923 33.37 51.1533C34.548 52.1213 34.741 53.6403 35.076 55.0473C35.628 57.3683 37.166 59.6063 37.965 61.8813C39.202 65.4053 39.433 68.7653 42.032 71.6553C43.978 73.8183 47.515 72.0633 47.551 69.3703C47.554 69.1183 47.558 68.8673 47.562 68.6163C47.625 64.4443 41.16 64.4513 41.097 68.6163C41.093 68.8673 41.089 69.1183 41.086 69.3703C42.925 68.6083 44.765 67.8463 46.605 67.0843C44.229 64.4423 44.029 59.1953 42.569 55.9763C41.185 52.9213 40.659 48.8153 37.942 46.5823C35.735 44.7683 32.621 45.9193 32.424 48.8683C31.998 55.2253 33.424 63.8683 36.656 69.4043C37.587 67.7833 38.517 66.1623 39.447 64.5413C35.585 64.6973 31.563 66.0813 29.81 69.7813C31.817 70.3253 33.825 70.8693 35.833 71.4133C35.96 64.6343 36.084 57.8563 36.211 51.0783C36.283 47.2003 31.11 46.9853 29.861 50.2183C28.877 52.7653 28.992 66.6403 26.865 67.0763C28.23 68.1153 29.593 69.1543 30.957 70.1933C30.699 63.4793 34.606 57.4363 34.708 50.6743C34.768 46.7643 29.647 46.6243 28.358 49.8153C27.461 52.0383 23.576 65.1633 20.728 64.2943C21.48 65.6193 22.232 66.9443 22.985 68.2703C24.545 63.2383 28.08 59.1403 29.652 54.0783C30.893 50.0853 24.65 48.3913 23.418 52.3593Z" fill="#9E1B2F"/>
<path d="M24.336 54.6482C26.776 55.1332 29.39 54.6852 31.833 54.3862C34.911 54.0102 38.003 53.8062 41.079 53.4442C41.359 53.4112 41.324 52.9962 41.06 52.9642C38.552 52.6562 36.031 53.0512 33.543 53.3962C30.499 53.8172 27.34 53.9502 24.332 54.5332C24.264 54.5462 24.274 54.6362 24.336 54.6482Z" fill="#A0912C"/>
<path d="M19.872 63.6088C20.805 64.9018 23.951 63.7038 25.079 63.4008C28.929 62.3678 32.793 62.2268 36.686 61.5358C36.945 61.4898 36.909 61.1378 36.669 61.0958C33.72 60.5778 30.092 61.3048 27.231 62.0768C25.477 62.5498 21.724 64.4948 19.99 63.4798C19.902 63.4278 19.812 63.5258 19.872 63.6088Z" fill="#A0912C"/>
<path d="M19.2616 68.8104C26.6586 68.6014 33.5286 65.4694 40.8626 64.6934C41.0796 64.6704 41.0656 64.3134 40.8466 64.3084C33.4106 64.1124 26.6326 68.0624 19.2466 68.4404C19.0366 68.4514 19.0516 68.8164 19.2616 68.8104Z" fill="#A0912C"/>
<path d="M24.6221 71.9032C31.2571 69.4372 38.4481 69.5162 45.1021 67.3022C45.3261 67.2282 45.1931 66.9002 44.9811 66.9252C38.1441 67.7352 30.9131 69.0692 24.5521 71.7572C24.4551 71.7982 24.5251 71.9392 24.6221 71.9032Z" fill="#A0912C"/>
<path d="M25.8263 55.1127C24.8143 58.1377 23.9603 61.1547 23.1403 64.2337C22.7733 65.6147 21.4063 67.9357 22.1763 69.3417C22.2633 69.5007 22.5233 69.5177 22.5853 69.3227C24.0453 64.7307 24.8103 59.8897 26.2283 55.2617C26.3093 54.9987 25.9143 54.8487 25.8263 55.1127Z" fill="#A0912C"/>
<path d="M29.1815 52.4203C28.9745 55.8613 28.8075 59.3053 28.6015 62.7463C28.4155 65.8493 27.9105 69.1323 28.3025 72.2263C28.3375 72.5063 28.7295 72.4583 28.7725 72.2073C29.3505 68.8603 29.1835 65.2573 29.3235 61.8623C29.4525 58.7143 29.4945 55.5593 29.1875 52.4203C29.1865 52.4173 29.1825 52.4173 29.1815 52.4203Z" fill="#A0912C"/>
<path d="M31.1924 53.0702C31.4464 56.5312 32.6504 59.7532 33.5574 63.0772C34.2654 65.6702 33.9804 69.0422 35.9644 71.1042C36.1994 71.3472 36.5734 71.1002 36.4534 70.7882C35.3724 67.9892 35.0384 65.1812 34.2184 62.3212C33.3284 59.2152 32.0884 56.2102 31.6744 52.9852C31.6334 52.6672 31.1704 52.7612 31.1924 53.0702Z" fill="#A0912C"/>
<path d="M34.0459 51.1464C34.9039 54.2154 36.0629 57.1404 37.3429 60.0584C38.8619 63.5214 40.0269 67.1484 41.5659 70.5874C41.7119 70.9164 42.1969 70.7404 42.1509 70.4004C41.7219 67.2294 40.1219 64.1674 38.8119 61.2824C37.2849 57.9214 35.6549 54.5874 34.5439 51.0584C34.4479 50.7554 33.9569 50.8294 34.0459 51.1464Z" fill="#A0912C"/>
<path d="M35.9394 49.4769C39.5144 56.2389 43.6634 62.5059 46.6884 69.5429C46.7954 69.7929 47.2494 69.7399 47.2404 69.4459C47.1434 66.2179 44.7574 63.1429 43.2544 60.4069C41.1544 56.5819 38.5024 53.0069 36.0864 49.3819C36.0314 49.2979 35.8934 49.3889 35.9394 49.4769Z" fill="#A0912C"/>
<path d="M29.9268 44.1634C25.8568 48.1074 22.5978 52.1754 19.7488 57.0924C17.6518 60.7134 14.4268 64.1624 14.0998 68.5184C13.8418 71.9584 17.1128 73.4954 19.9708 73.9374C24.0728 74.5734 28.7238 73.8684 32.8348 73.6594C36.0938 73.4944 39.3378 73.0994 42.5668 72.6454C44.4428 72.3834 46.7858 72.5414 48.5308 71.7844C52.1918 70.1944 48.3968 64.6584 47.4018 62.4024C46.1008 59.4554 45.0358 56.4074 43.9238 53.3864C43.1778 51.3614 42.8788 49.0044 41.6318 47.1884C40.6018 45.6894 39.2878 44.7844 37.5268 44.3334C34.4758 43.5524 31.8858 45.1764 28.9008 45.2184C28.1978 45.2284 28.0878 46.3254 28.7968 46.3154C31.0348 46.2834 33.0488 45.2504 35.2828 45.2194C37.7478 45.1844 39.7278 46.1014 40.9888 48.2454C41.8518 49.7134 42.0298 51.4485 42.6218 53.0194C43.5488 55.4764 44.4278 57.9494 45.3898 60.3924C46.1348 62.2874 46.9578 64.1524 47.8628 65.9764C48.3148 66.8884 48.6918 67.7884 48.9288 68.7834C49.4358 70.9134 47.3268 71.0374 45.8538 71.1894C41.4478 71.6424 37.0778 72.3354 32.6508 72.6094C27.3058 72.9394 12.1748 75.4964 15.7528 65.7854C17.0818 62.1764 19.8138 58.8434 21.7578 55.5354C23.0288 53.3744 24.4138 51.3074 26.0318 49.3914C27.4218 47.7464 29.0818 46.2764 30.2568 44.4634C30.3908 44.2564 30.1168 43.9794 29.9268 44.1634Z" fill="#821420"/>
<path d="M27.7295 48.1801C27.8525 50.3011 28.2685 51.8351 30.8265 51.3331C32.9365 50.9181 34.1145 48.0941 34.9825 46.4231C34.7665 46.4041 34.5515 46.3841 34.3355 46.3651C34.6275 47.7101 35.4115 50.4331 37.1295 50.5951C38.9965 50.7701 40.1005 48.1971 40.6575 46.8221C40.8365 46.3781 40.1385 46.1221 39.9615 46.5651C39.5275 47.6511 38.9075 49.1081 37.8335 49.7171C36.1815 50.6551 35.1955 47.1401 34.9985 46.2481C34.9205 45.9001 34.5005 45.9011 34.3515 46.1901C33.8115 47.2421 33.2675 48.2601 32.5715 49.2171C31.8885 50.1541 31.0005 50.8191 29.7875 50.8261C28.0985 50.8361 28.2005 49.1511 27.9735 48.1371C27.9375 47.9781 27.7205 48.0241 27.7295 48.1801Z" fill="black"/>
<path d="M40.5272 43.6951C42.9792 46.2261 46.6342 47.3031 49.6182 49.0541C52.0522 50.4831 54.7872 52.0621 57.6882 52.0281C58.3232 52.0211 58.4172 51.0301 57.7822 51.0431C54.6052 51.1071 51.6422 49.1481 48.9922 47.6141C46.3442 46.0821 43.4352 44.8291 40.7042 43.4431C40.5602 43.3701 40.4202 43.5841 40.5272 43.6951Z" fill="black"/>
<path d="M58.1005 52.7079C58.1345 53.1299 58.2465 53.5259 58.3195 53.9419C58.3925 54.3639 58.2575 54.8949 58.6545 55.1599C58.7585 55.2289 58.8725 55.2139 58.9715 55.1449C59.3945 54.8509 59.1685 54.2279 59.0585 53.8119C58.9335 53.3379 58.7675 52.9099 58.4175 52.5589C58.2865 52.4259 58.0845 52.5249 58.1005 52.7079Z" fill="black"/>
<path d="M58.2968 51.3475C58.7998 51.4475 59.1328 51.4985 59.6508 51.4045C60.0468 51.3315 60.5808 51.2645 60.7928 50.8935C60.8828 50.7385 60.8328 50.5685 60.6678 50.4935C60.2898 50.3185 59.9528 50.5505 59.5918 50.6945C59.1828 50.8575 58.7198 51.0915 58.2898 51.1825C58.1938 51.2025 58.2068 51.3295 58.2968 51.3475Z" fill="black"/>
<path d="M58.8154 52.7889C59.1954 52.8319 59.5654 52.9039 59.9304 53.0169C60.2914 53.1269 60.6404 53.1869 61.0024 53.2759C61.3154 53.3529 61.5174 52.9929 61.2624 52.7789C60.9254 52.4979 60.6694 52.3129 60.2374 52.1899C59.7954 52.0639 59.3454 52.0059 58.8874 52.0189C58.4034 52.0339 58.3064 52.7309 58.8154 52.7889Z" fill="black"/>
<path d="M9.63957 11.7068C7.55057 20.0578 3.33657 31.5798 10.1866 38.8808C15.9646 45.0368 28.8976 47.2978 36.3326 43.5798C39.2816 42.1058 41.6406 39.9328 42.5086 36.7258C48.5936 39.1028 46.0036 30.9498 46.9736 28.3948C48.1066 25.4048 48.8756 24.9748 46.7706 21.8718C45.2566 19.6428 43.3286 17.8858 41.4986 15.9228C36.9476 11.0428 34.9886 8.44483 27.8146 8.09983C24.4916 7.93883 20.9456 7.57983 17.6416 7.88783C15.4066 8.09783 13.4786 9.40283 11.3676 9.49383L9.63957 11.7068Z" fill="#EFE3AE"/>
<path d="M8.32714 14.6444C7.77414 19.3514 6.03914 24.1464 6.16414 28.9054C6.23914 31.8114 6.62714 35.0614 8.09714 37.6144C9.60014 40.2264 12.7151 42.0564 15.2911 43.4184C21.1291 46.5054 28.2451 47.5564 34.6251 45.7154C41.4151 43.7554 42.8201 38.1484 44.1771 31.9184C44.2991 31.3584 43.4121 31.2824 43.2921 31.8344C42.6091 34.9664 42.0331 38.1704 40.3281 40.9374C38.5381 43.8434 34.8641 44.9334 31.7041 45.4904C25.4061 46.6014 18.6381 44.6664 13.3171 41.3084C10.4231 39.4804 8.24914 37.2384 7.50614 33.8214C7.00214 31.5064 6.75714 29.0204 7.03714 26.6684C7.51014 22.7144 8.92514 18.6254 8.75014 14.6274C8.73914 14.3784 8.35414 14.4144 8.32714 14.6444Z" fill="black"/>
<path d="M42.6747 35.5101C42.5657 36.4571 43.2037 37.0531 44.0817 37.2371C44.9987 37.4271 45.8857 36.7571 46.2857 35.9891C47.1327 34.3681 46.8987 31.5371 44.8307 30.9761C44.3907 30.8571 44.1407 31.5231 44.5827 31.6441C45.8427 31.9891 46.1237 33.4231 46.0107 34.5621C45.9457 35.2061 45.6577 35.8151 45.1887 36.2591C44.3897 37.0131 43.3857 36.3701 43.1617 35.4901C43.0957 35.2261 42.7067 35.2241 42.6747 35.5101Z" fill="black"/>
<path d="M43.8203 33.7376C44.1983 34.0556 44.5383 34.3846 44.8723 34.7496C45.0523 34.9476 45.4063 34.7406 45.2753 34.4886C44.9913 33.9386 44.5523 33.6316 43.9583 33.4736C43.7913 33.4296 43.6873 33.6256 43.8203 33.7376Z" fill="black"/>
<path d="M24.5089 28.6034C24.7729 28.3714 25.2829 28.2264 25.6189 28.2424C25.5539 28.1964 25.4879 28.1514 25.4239 28.1054C25.5779 28.4964 25.6799 28.9034 25.6659 29.3254C25.6499 29.8284 26.3899 29.8024 26.3519 29.2974C26.3129 28.7604 26.1199 28.3584 25.8599 27.8984C25.8049 27.8014 25.7129 27.7484 25.5999 27.7644C25.3759 27.7964 25.1509 27.8464 24.9579 27.9714C24.7149 28.1294 24.6349 28.3254 24.4459 28.5304C24.4049 28.5744 24.4609 28.6454 24.5089 28.6034Z" fill="black"/>
<path d="M36.7529 34.6068C37.4309 35.2818 38.1409 35.5258 39.0719 35.6248C40.4099 35.7658 41.5359 34.3968 41.5359 33.1608C41.5359 31.7108 40.4069 30.8378 39.0719 30.6968C40.2669 31.3738 40.6539 31.5158 40.2369 31.1228C39.2859 30.1748 37.7029 30.1718 36.7529 31.1228C35.8049 32.0698 35.8019 33.6598 36.7529 34.6068Z" fill="#EE6571"/>
<path d="M10.3779 28.8837C11.0479 29.5627 11.7689 29.8007 12.6949 29.9007C14.0329 30.0467 15.1589 28.6697 15.1589 27.4367C15.1589 25.9847 14.0299 25.1177 12.6949 24.9727C13.8859 25.6517 14.2739 25.7937 13.8619 25.3997C12.9189 24.4437 11.3219 24.4547 10.3779 25.3997C9.42388 26.3537 9.43488 27.9277 10.3779 28.8837Z" fill="#EE6571"/>
<path d="M7.26174 11.1937C7.29274 11.1937 7.29774 11.1447 7.26574 11.1447C7.23474 11.1447 7.22974 11.1937 7.26174 11.1937Z" fill="#47372F"/>
<path d="M22.8486 2.39972C22.8796 2.39972 22.8846 2.35072 22.8526 2.35072C22.8216 2.35072 22.8166 2.39972 22.8486 2.39972Z" fill="#96602C"/>
<path d="M19.7362 2.47836C15.8992 0.195358 11.8522 0.50536 15.1732 6.62536C12.9972 6.52036 -1.42375 7.76236 5.94125 11.8094C3.65825 12.1204 0.340248 14.8154 2.72525 17.6164C5.52425 20.5214 8.53225 15.5434 10.2962 13.7804C14.5492 10.8784 13.0972 11.3954 17.0382 11.5004C19.6322 11.7094 20.4602 17.2064 24.1952 11.0854C24.2972 15.9604 27.9262 17.3114 30.8332 12.7474C32.0762 14.8234 32.8003 17.2084 34.5653 18.9724C34.9793 17.3124 37.0542 16.0694 37.7782 14.9284C38.5062 17.3124 39.1292 20.1134 40.2673 22.6024C41.3073 21.9814 42.8602 21.0484 43.4832 20.3214C43.5853 23.4334 40.8903 30.6934 46.2822 28.5154C45.1413 31.3164 44.8312 34.3244 46.9032 36.6074C50.8462 33.1854 48.5653 29.9694 49.0853 26.1314C49.4993 22.7094 53.9582 18.9764 47.7372 17.4184C52.7152 13.3744 45.2512 9.74236 41.9302 12.4384C43.4832 6.21636 37.8882 3.93336 33.4262 7.66636C33.4262 2.37736 28.0342 -0.735641 25.9602 5.79836C25.8552 0.923359 22.2272 -0.42564 19.7362 2.47836Z" fill="#C0753D"/>
<path d="M38.578 16.9041C38.932 18.9751 39.665 21.1961 40.557 23.1011C40.643 23.2861 40.888 23.3341 41.042 23.2051C41.9 22.4921 42.947 21.5781 43.049 20.3971C43.068 20.1691 42.739 20.0211 42.612 20.2361C42.043 21.2061 41.507 21.9931 40.638 22.7281C40.799 22.7621 40.961 22.7971 41.123 22.8321C40.189 20.9191 39.844 18.6371 38.636 16.8771C38.616 16.8491 38.573 16.8741 38.578 16.9041Z" fill="#96602C"/>
<path d="M43.5762 20.7898C43.7312 23.6408 42.6112 27.1258 45.0172 29.3288C45.1482 29.4488 45.3762 29.4858 45.4852 29.3078C45.9122 28.6128 46.2862 27.9998 46.3812 27.1868C46.4032 26.9968 46.1192 26.8758 46.0172 27.0538C45.5172 27.9288 45.3072 29.2178 44.4952 27.7258C44.1092 27.0168 44.0242 26.1598 43.9542 25.3708C43.8182 23.8388 43.9732 22.2928 43.5992 20.7858C43.5962 20.7708 43.5762 20.7748 43.5762 20.7898Z" fill="#96602C"/>
<path d="M47.1435 30.2543C45.6675 31.5213 46.2855 34.2043 47.4425 35.4593C47.5775 35.6053 47.8195 35.6083 47.9365 35.4363C48.5785 34.4913 49.1385 33.2233 49.1215 32.0623C49.1185 31.8883 48.8685 31.7353 48.7615 31.9293C48.2055 32.9403 48.0765 34.0913 47.4245 35.0793C47.5895 35.0713 47.7535 35.0633 47.9185 35.0563C46.6375 33.7603 46.6195 31.9133 47.1955 30.2903C47.2065 30.2593 47.1685 30.2333 47.1435 30.2543Z" fill="#96602C"/>
<path d="M46.704 22.4486C46.453 21.6056 46.691 20.5456 46.956 19.7386C47.292 18.7166 48.68 17.4756 49.392 18.9586C50.176 20.5926 48.648 22.6136 48.271 24.1416C48.225 24.3276 48.429 24.5186 48.598 24.3696C49.433 23.6336 49.74 22.0856 49.948 21.0486C50.154 20.0176 50.216 18.6126 49.196 17.9906C46.921 16.6046 45.62 21.0146 46.697 22.4516C46.699 22.4546 46.705 22.4516 46.704 22.4486Z" fill="#96602C"/>
<path d="M27.1758 6.32554C27.7338 4.27854 29.2378 2.32254 31.1118 4.51454C32.3428 5.95354 32.5068 8.04754 32.1338 9.81454C32.3378 9.83354 32.5428 9.85354 32.7468 9.87254C32.7038 4.17454 43.9068 5.76354 38.9188 11.7875C39.0948 11.9105 39.2708 12.0335 39.4468 12.1575C40.8548 9.95054 43.3848 8.86254 44.9218 11.5775C46.4678 14.3085 43.9918 16.5815 41.6498 17.5255C41.4748 17.5965 41.5678 17.8855 41.7508 17.8415C44.9798 17.0755 47.1578 14.1855 45.3478 10.9995C43.6048 7.92954 40.4068 9.44554 38.9188 11.7875C38.6938 12.1415 39.1838 12.4755 39.4468 12.1575C45.1848 5.20454 31.9388 3.16754 32.1338 9.81454C32.1458 10.2085 32.6728 10.2685 32.7468 9.87254C33.1508 7.73254 32.6958 4.44454 30.4748 3.33854C28.2998 2.25554 27.4318 4.54354 27.1278 6.31454C27.1228 6.34154 27.1678 6.35254 27.1758 6.32554Z" fill="#96602C"/>
<path d="M11.4043 7.68442C8.77033 6.59142 4.11933 6.64742 3.18533 9.95442C2.35933 12.8854 7.33133 12.5094 8.77133 11.8824C9.09733 11.7404 8.92533 11.2424 8.58533 11.2974C6.47533 11.6404 -1.35067 15.2414 2.56933 17.9854C5.68633 20.1664 10.2563 12.5344 11.5253 10.6494C11.6703 10.4344 11.3753 10.1414 11.1803 10.3354C8.93533 12.5764 7.61433 15.7054 4.74233 17.3204C3.78633 17.8574 2.54933 17.7114 2.17233 16.5164C1.86133 15.5294 3.20033 14.5614 3.84633 14.0744C5.17833 13.0704 7.02733 12.1484 8.69233 11.9074C8.63033 11.7124 8.56833 11.5174 8.50633 11.3224C6.78433 11.9334 2.52733 12.0804 4.29533 9.09642C5.46233 7.12542 9.43733 7.59142 11.2673 8.05242C11.5093 8.11342 11.6423 7.78342 11.4043 7.68442Z" fill="#96602C"/>
<path d="M14.3955 8.17177C13.9175 6.42177 13.6195 3.60377 15.1165 2.27377C17.0955 0.512771 18.8465 4.27777 19.6955 5.54677C19.8305 5.74877 20.1165 5.59977 20.1475 5.40477C20.2365 4.85777 20.1475 4.33177 20.0075 3.79777C19.9605 3.61977 19.6875 3.61077 19.6715 3.81077C19.6335 4.32877 19.7105 4.84177 19.6355 5.35677C19.7865 5.30877 19.9365 5.26177 20.0875 5.21377C19.0145 3.66077 17.4895 0.297771 15.1085 1.68977C13.1555 2.83177 13.3095 6.48577 14.2905 8.20577C14.3195 8.25677 14.4135 8.23577 14.3955 8.17177Z" fill="#96602C"/>
<path d="M17.084 9.53205C17.33 11.0001 17.897 13.3651 19.87 13.0271C21.572 12.7341 22.931 10.3521 23.188 8.82405C23.22 8.63905 22.947 8.54405 22.85 8.69905C22.092 9.90805 21.613 11.2231 20.45 12.1301C18.644 13.5381 17.526 10.9041 17.1 9.52905C17.097 9.52005 17.083 9.52205 17.084 9.53205Z" fill="#96602C"/>
<path d="M25.5702 11.0193C25.8832 11.0193 25.9312 10.5323 25.6172 10.5323C25.3032 10.5323 25.2562 11.0193 25.5702 11.0193Z" fill="#96602C"/>
<path d="M25.5566 9.70345C25.6246 11.0164 25.8376 13.8034 27.6236 13.9934C29.1686 14.1574 30.5756 11.4394 30.5856 10.2284C30.5876 10.0044 30.3276 9.90445 30.1836 10.0804C29.4106 11.0284 29.2016 12.9194 27.8266 13.3074C26.3926 13.7114 25.8946 10.4574 25.7386 9.67145C25.7146 9.55145 25.5506 9.58745 25.5566 9.70345Z" fill="#96602C"/>
<path d="M27.4542 6.91877C28.6382 7.16677 29.5782 7.14177 30.3802 8.18977C31.0892 9.11477 31.0982 10.4778 31.1832 11.5848C31.1952 11.7498 31.4682 11.7748 31.5092 11.6138C31.8632 10.2248 31.6272 8.77577 30.7242 7.63877C29.9992 6.72677 28.4932 6.23677 27.4272 6.76177C27.3482 6.79977 27.3782 6.90277 27.4542 6.91877Z" fill="#96602C"/>
<path d="M31.7442 12.5521C32.8172 14.3691 33.4242 16.4461 34.4732 18.2851C34.5562 18.4291 34.7542 18.5431 34.9172 18.4431C36.1582 17.6861 37.7992 16.5021 38.0212 14.9511C38.0592 14.6881 37.7232 14.6151 37.5782 14.7881C37.1162 15.3351 36.8182 15.9681 36.3242 16.5051C35.8402 17.0321 35.2302 17.4581 34.6322 17.8411C34.7792 17.8931 34.9282 17.9461 35.0752 17.9991C33.9712 16.1531 33.1152 14.2261 31.7852 12.5251C31.7682 12.5041 31.7302 12.5281 31.7442 12.5521Z" fill="#96602C"/>
<path d="M39.9083 15.2469C40.6993 15.1049 41.4753 15.1789 42.0143 15.8269C42.4893 16.3969 42.5553 17.3589 42.3723 18.0469C42.3293 18.2109 42.5543 18.2989 42.6223 18.1389C43.0053 17.2359 43.0203 16.3139 42.3743 15.5219C41.7433 14.7479 40.6973 14.7359 39.9043 15.2319C39.8963 15.2369 39.8993 15.2479 39.9083 15.2469Z" fill="#96602C"/>
<path d="M16.7471 6.65904C17.0251 7.53804 17.5291 8.31104 18.5021 8.46804C19.4301 8.61704 20.3731 7.68904 20.3541 6.79704C20.3511 6.68004 20.2071 6.55604 20.1011 6.66504C19.6591 7.12204 19.4111 7.77004 18.7211 7.88804C17.9321 8.02304 17.3511 7.16504 17.1061 6.54404C17.0281 6.34604 16.6821 6.45304 16.7471 6.65904Z" fill="#96602C"/>
<path d="M6.8164 22.5756C6.59739 21.9406 5.61039 21.5996 5.01239 21.7966C4.48039 21.9716 4.2864 22.6336 4.2934 23.1306C4.3014 23.7806 4.5744 24.3856 5.0594 24.8146C5.57739 25.2726 6.71939 25.4536 7.16639 24.8386C7.24939 24.7246 7.20239 24.5256 7.0564 24.4866C6.5484 24.3486 6.0514 24.6286 5.5624 24.3186C5.1894 24.0816 5.01139 23.6446 4.96139 23.2226C4.92739 22.9516 4.97239 22.5376 5.24439 22.3926C5.69739 22.1506 6.2194 22.7716 6.6284 22.8436C6.78439 22.8696 6.8584 22.6976 6.8164 22.5756Z" fill="black"/>
<path d="M5.54779 23.3475C6.02179 23.4625 6.38679 23.8475 6.84879 23.9665C6.98579 24.0015 7.13679 23.8785 7.06379 23.7325C6.76079 23.1335 6.10079 23.1075 5.54579 23.2975C5.52479 23.3055 5.52679 23.3425 5.54779 23.3475Z" fill="black"/>
<path d="M17.3739 21.3754C17.9789 21.4734 18.4689 21.5624 18.5249 22.2604C18.5699 22.1734 18.6149 22.0864 18.6599 22.0004C18.1909 22.1624 17.5719 22.0564 17.1009 21.9644C16.9349 21.9314 16.6169 21.8614 16.5229 21.6984C16.4359 21.5434 16.7789 21.3014 16.9049 21.2764C17.2329 21.2094 18.5349 21.3394 18.3689 21.8884C18.3209 22.0464 17.7659 21.8344 17.6869 21.8044C17.4129 21.6984 17.0759 21.5074 16.9419 21.2334C16.8869 21.3914 16.8299 21.5494 16.7739 21.7084C17.0009 21.5864 17.0139 21.5754 17.1629 21.7724C17.2579 21.8964 17.3629 22.0014 17.4879 22.0954C17.8559 22.3704 18.2639 21.7864 17.8959 21.5124C17.6869 21.3554 17.5909 21.0994 17.3509 20.9734C17.0509 20.8154 16.7499 20.9144 16.4679 21.0644C16.2979 21.1554 16.2119 21.3584 16.2999 21.5394C16.6519 22.2654 18.1529 23.0764 18.8529 22.3884C19.1899 22.0554 19.1249 21.4854 18.8119 21.1664C18.4219 20.7674 17.7629 20.6344 17.2279 20.6124C16.7049 20.5904 16.3349 20.7534 16.0399 21.1904C15.7859 21.5664 15.8669 21.9784 16.1999 22.2614C16.8149 22.7834 18.1659 22.7314 18.8669 22.4374C18.9679 22.3954 19.0169 22.2794 19.0019 22.1764C18.8629 21.2214 18.1919 21.1394 17.3669 21.1924C17.2569 21.1994 17.2769 21.3594 17.3739 21.3754Z" fill="black"/>
<path d="M34.2743 25.6054C34.8793 25.7024 35.3703 25.7904 35.4263 26.4894C35.4713 26.4024 35.5163 26.3154 35.5613 26.2294C35.0923 26.3904 34.4733 26.2854 34.0013 26.1924C33.8353 26.1604 33.5183 26.0904 33.4253 25.9274C33.3363 25.7724 33.6833 25.5294 33.8063 25.5044C34.1343 25.4384 35.4403 25.5714 35.2723 26.1184C35.2233 26.2764 34.6703 26.0644 34.5903 26.0344C34.3173 25.9284 33.9803 25.7364 33.8463 25.4624C33.7913 25.6214 33.7343 25.7794 33.6783 25.9374C33.9043 25.8154 33.9163 25.8054 34.0653 26.0014C34.1603 26.1264 34.2663 26.2304 34.3923 26.3234C34.7613 26.5984 35.1703 26.0134 34.8003 25.7404C34.5903 25.5844 34.4923 25.3284 34.2533 25.2024C33.9543 25.0444 33.6533 25.1434 33.3723 25.2934C33.2033 25.3844 33.1153 25.5874 33.2043 25.7684C33.5583 26.4944 35.0543 27.3064 35.7543 26.6184C36.0943 26.2844 36.0293 25.7154 35.7143 25.3964C35.3233 24.9974 34.6653 24.8644 34.1293 24.8414C33.6063 24.8194 33.2363 24.9814 32.9413 25.4194C32.6883 25.7954 32.7683 26.2064 33.1023 26.4904C33.7163 27.0134 35.0663 26.9594 35.7683 26.6654C35.8693 26.6234 35.9183 26.5084 35.9033 26.4054C35.7633 25.4494 35.0923 25.3674 34.2673 25.4224C34.1573 25.4304 34.1773 25.5904 34.2743 25.6054Z" fill="black"/>
<path d="M19.9814 29.6576C20.8724 31.4076 22.7644 32.7996 24.5454 33.5526C26.6444 34.4396 28.7314 33.4926 30.4154 32.2326C30.7464 31.9846 30.3304 31.4946 30.0014 31.7426C28.1984 33.1006 26.4044 33.6676 24.2584 32.7836C22.5824 32.0926 21.5274 30.5296 19.9994 29.6426C19.9894 29.6366 19.9754 29.6456 19.9814 29.6576Z" fill="#EE6571"/>
</svg>
