<svg width="82" height="100" viewBox="0 0 82 100" fill="none" xmlns="http://www.w3.org/2000/svg">
<path d="M26.0255 97.8671C26.4675 97.5191 28.2275 97.9641 28.7965 98.0531C29.8975 98.2241 31.0505 98.4911 32.1705 98.3781C33.8165 98.2121 33.8335 95.6181 32.1705 95.7861C29.5705 96.0481 26.5045 94.2161 24.1935 96.0341C22.8795 97.0671 24.7275 98.8881 26.0255 97.8671Z" fill="#7A5830"/>
<path d="M52.5274 97.6244C54.6054 97.6244 56.6694 97.1804 58.7454 97.4564C60.3984 97.6754 60.3774 95.0814 58.7454 94.8644C56.6694 94.5884 54.6054 95.0334 52.5274 95.0324C50.8554 95.0324 50.8554 97.6244 52.5274 97.6244Z" fill="#7A5830"/>
<path d="M25.6504 56.0409C24.5384 62.9949 19.7204 74.3449 24.9604 80.6299C26.6074 82.6059 29.6794 81.3279 30.3634 79.2039C31.8994 74.4269 32.5074 69.4479 33.6444 64.5729C34.5194 60.8199 34.7294 56.1609 37.5714 53.2799C35.7694 52.8049 33.9684 52.3299 32.1684 51.8539C33.1974 59.3439 31.9814 71.6549 38.5834 77.1159C40.8674 79.0039 43.7784 77.7109 44.1014 74.8299C44.9544 67.2399 44.3934 59.4959 42.5084 52.0939C41.6974 48.9079 37.1844 49.1079 36.2744 52.0939C34.6464 57.4359 36.8134 62.9199 37.8924 68.1569C38.8454 72.7809 39.7244 77.7609 43.0244 81.3419C44.6844 83.1439 47.8154 82.1979 48.4274 79.9159C50.5624 71.9549 46.6044 63.9719 46.3344 56.0349H39.8694C40.1684 63.9019 43.8754 72.3369 47.4444 79.2699C48.8634 82.0289 53.7954 80.8609 53.4674 77.6389C53.0274 73.3029 52.0294 69.1139 50.9994 64.8859C50.0634 61.0429 47.7924 57.0619 48.2724 53.0589C46.4334 53.8199 44.5934 54.5829 42.7544 55.3439C45.4504 58.2109 46.2334 62.6299 47.6334 66.2069C49.1914 70.1849 50.2394 74.3079 51.9824 78.2249C52.9044 80.2979 55.6114 80.0559 57.0594 78.8789C59.9214 76.5509 59.0344 72.0779 58.4604 68.9389C57.4594 63.4709 54.2434 59.1669 51.6604 54.3679C49.8494 51.0039 50.2004 44.4549 44.8574 44.4549C43.1294 44.4549 41.3784 45.7019 39.7294 46.1749C38.0854 46.6469 35.8234 46.7859 34.4114 47.8399C31.1134 50.3039 34.3314 55.9209 37.6744 53.4219C38.8524 52.5419 41.6514 52.3909 43.1884 51.8679C45.0014 51.2509 43.7094 50.4339 44.1174 52.0949C44.4654 53.5159 44.8064 54.8749 45.4244 56.2159C47.1364 59.9259 49.9474 63.1949 51.2954 67.0579C51.6834 68.1739 53.5084 73.4769 52.4874 74.3079C54.1794 74.5249 55.8724 74.7439 57.5644 74.9619C54.1564 67.2999 53.2504 57.0729 47.3264 50.7729C45.1954 48.5069 42.1184 50.4709 41.8074 53.0589C41.3574 56.8119 42.8224 60.1989 44.0194 63.6849C45.5174 68.0459 46.5374 73.0589 47.0034 77.6389C49.0104 77.0949 51.0184 76.5509 53.0264 76.0079C50.0414 70.2069 46.5854 62.6289 46.3344 56.0349C46.1754 51.8809 39.7264 51.8619 39.8694 56.0349C40.1104 63.1369 44.0734 71.1859 42.1934 78.1969C43.9944 77.7209 45.7954 77.2459 47.5964 76.7699C45.2034 74.1729 44.8564 69.7579 44.1274 66.4379C43.2574 62.4809 41.2834 57.8339 42.5084 53.8129H36.2744C38.0244 60.6869 38.4274 67.7879 37.6364 74.8299C39.4754 74.0679 41.3154 73.3059 43.1554 72.5439C40.7164 70.5279 40.4364 66.7959 39.8604 63.8599C38.9774 59.3599 39.0274 54.6839 38.4024 50.1349C38.0594 47.6439 34.5404 47.1469 32.9994 48.7089C26.1044 55.6989 26.9714 68.6489 24.1294 77.4849C25.9294 77.0089 27.7304 76.5339 29.5324 76.0589C28.3634 74.6559 29.4214 70.6509 29.6764 69.0739C30.2944 65.2749 31.2774 61.5579 31.8844 57.7599C32.5374 53.6829 26.3074 51.9329 25.6504 56.0409Z" fill="#DE7EB3"/>
<path d="M9.46964 54.6698C8.73638 54.8667 8.15206 55.2888 7.61668 55.8141C7.032 56.3878 6.23059 57.1285 5.95619 57.9043C5.89404 58.0791 6.11021 58.2681 6.2765 58.2018C6.94869 57.9327 7.33137 57.2335 7.76918 56.6813C8.30623 56.0051 8.84533 55.4047 9.62242 55.0017C9.81308 54.9027 9.66263 54.6185 9.46964 54.6698Z" fill="black"/>
<path d="M7.76209 52.5407C7.22663 52.0831 6.68973 51.7428 6.05035 51.4425C5.55836 51.2114 4.81142 50.7391 4.25317 50.812C4.0666 50.8369 3.94663 51.0236 4.05103 51.1958C4.33497 51.6651 5.08616 51.8166 5.56804 52.0022C6.22234 52.252 6.90932 52.5391 7.49935 52.9192C7.72287 53.0629 7.95912 52.7094 7.76209 52.5407Z" fill="black"/>
<path d="M6.10307 53.3745C5.77317 53.666 5.39293 53.8614 4.98995 54.0305C4.56609 54.2092 4.11836 54.3037 3.76502 54.6092C3.60649 54.7469 3.77093 54.9625 3.93389 54.9722C4.82804 55.0271 5.9002 54.3609 6.49713 53.7303C6.73678 53.477 6.35419 53.1544 6.10307 53.3745Z" fill="black"/>
<path d="M26.4239 49.243C26.3809 51.608 25.7789 53.865 25.0559 56.105C24.3999 58.138 23.2679 60.234 22.9139 62.343C22.4989 64.818 22.0869 67.293 21.6429 69.763C21.1289 72.615 20.8239 75.962 19.6779 78.621C18.5349 81.271 18.4709 84.409 21.8879 85.269C22.7779 85.493 24.2369 84.825 24.8229 84.152C25.7579 83.08 26.8309 80.018 28.3829 81.86C29.6639 83.379 31.0639 86.123 33.5269 85.654C34.7599 85.418 35.7059 84.823 36.5279 83.866C37.1399 83.152 39.2949 79.809 39.8999 81.139C40.7509 83.009 42.7249 86.409 45.1909 86.23C48.1409 86.016 48.2939 82.919 48.6949 80.592C48.4809 80.726 48.2649 80.862 48.0499 80.997C50.7809 81.764 51.6949 84.132 54.8199 83.638C56.8269 83.321 57.6469 81.431 57.7699 79.631C57.5479 79.77 57.3259 79.909 57.1049 80.048C59.1009 81.041 60.6239 82.743 62.1089 80.109C63.3699 77.869 62.7859 74.676 62.1199 72.383C59.8109 64.431 56.2849 56.911 53.1509 49.272C51.0429 44.135 44.6999 43.731 40.0439 44.555C35.7709 45.311 29.1679 45.705 26.5029 49.714C26.1269 50.281 26.9899 50.888 27.3679 50.32C29.6629 46.869 35.4879 46.403 39.2229 45.768C44.0249 44.951 49.6119 44.667 52.1949 49.726C54.9409 55.109 57.1979 61.102 59.1109 66.83C60.1609 69.979 61.7279 73.183 61.7759 76.546C61.7919 77.702 61.5869 78.973 61.0239 79.985C60.2689 81.338 58.2199 79.499 57.4479 79.12C57.1619 78.979 56.8029 79.241 56.7829 79.537C56.6029 82.382 53.9899 83.743 51.5539 82.025C50.4579 81.252 49.7089 80.466 48.3839 80.096C48.0699 80.008 47.7939 80.179 47.7379 80.501C47.4069 82.442 47.0829 86.608 43.9529 84.882C42.2139 83.923 41.0949 81.573 40.3829 79.808C40.2779 79.545 39.9729 79.493 39.7359 79.578C38.0859 80.165 37.1429 81.575 36.0839 82.889C33.7579 85.779 31.4529 84.412 29.6699 81.941C29.0529 81.087 28.3429 80.008 27.1689 80.043C25.9219 80.08 25.1449 82.017 24.5899 82.874C22.5419 86.038 19.1949 83.245 20.0379 80.264C20.4199 78.911 20.9589 77.732 21.2659 76.338C22.0089 72.961 22.5729 69.544 23.1289 66.132C23.6849 62.721 24.6689 59.627 25.7109 56.347C26.4489 54.022 26.9339 51.678 26.7139 49.231C26.6989 49.067 26.4269 49.078 26.4239 49.243Z" fill="#EE3B96"/>
<path d="M34.3789 87.3958C34.0259 88.4838 33.3049 97.6418 32.6739 97.6218C32.1619 97.6058 31.7529 97.9928 31.2769 98.1748C30.0569 98.6418 28.6619 98.7988 27.3659 98.8318C26.3359 98.8578 24.5509 98.7938 24.1819 97.5798C23.7149 96.0438 26.4849 96.0948 27.3099 96.0758C29.4119 96.0258 31.5909 96.6248 33.6729 96.4178C34.0609 96.3798 33.9879 95.8318 33.6469 95.7718C31.5809 95.4158 23.0219 93.8588 23.4619 97.7068C23.6669 99.5058 26.4269 99.5738 27.6989 99.5388C28.7719 99.5078 29.8369 99.3168 30.8709 99.0418C31.4769 98.8818 32.2089 98.3038 32.7979 98.3058C32.9589 98.3058 33.0839 98.2358 33.1499 98.0848C34.5979 94.7078 33.6509 90.9818 34.6799 87.5068C34.7369 87.3108 34.4429 87.1988 34.3789 87.3958Z" fill="black"/>
<path d="M48.3955 86.247C49.6545 90.116 49.9305 94.077 50.9275 97.996C50.9975 98.265 51.2975 98.394 51.5265 98.212C53.1445 96.918 55.3745 98.076 57.2245 97.923C58.9585 97.781 59.8625 96.833 60.3655 95.213C60.4405 94.971 60.2955 94.731 60.0415 94.697C57.0775 94.304 54.2335 93.914 51.2765 94.543C50.7945 94.645 50.9235 95.393 51.4095 95.297C54.3125 94.726 57.0705 95.081 59.9685 95.462C59.8605 95.29 59.7525 95.118 59.6445 94.946C58.3195 99.236 53.7625 95.459 51.0515 97.652C51.2505 97.725 51.4515 97.796 51.6505 97.869C50.6425 94.062 50.8385 89.485 48.5705 86.133C48.4975 86.025 48.3615 86.144 48.3955 86.247Z" fill="black"/>
<path d="M9.2217 54.0668C14.5147 55.0858 20.2767 51.7128 24.9507 49.6758C25.4517 49.4568 25.0877 48.6898 24.5857 48.9088C19.5817 51.0998 14.7367 53.3578 9.2087 53.7418C9.0107 53.7548 9.0537 54.0348 9.2217 54.0668Z" fill="black"/>
<path d="M52.6613 47.3899C60.6493 48.5959 68.1213 51.5349 76.2943 51.8269C76.8763 51.8469 76.9613 50.9429 76.3803 50.9259C71.7693 50.7929 67.0453 50.0619 62.5903 48.8709C59.3493 48.0049 56.0473 46.7599 52.6433 46.9549C52.3843 46.9699 52.4303 47.3549 52.6613 47.3899Z" fill="black"/>
<path d="M77.8749 51.1639C78.6739 51.1119 79.4079 50.8169 80.1259 50.4759C80.7119 50.1979 81.4529 49.8819 81.8539 49.3559C81.9809 49.1869 81.8159 48.9239 81.6069 48.9709C80.9759 49.1109 80.4269 49.6159 79.8709 49.9399C79.2069 50.3269 78.4889 50.5869 77.7909 50.9019C77.6379 50.9709 77.7269 51.1739 77.8749 51.1639Z" fill="black"/>
<path d="M76.96 51.7885C77.045 52.4245 77.572 53.0405 77.882 53.5935C78.267 54.2785 78.293 55.0185 78.591 55.7125C78.709 55.9875 79.112 55.9495 79.214 55.6845C79.494 54.9505 79.058 54.0915 78.677 53.4655C78.307 52.8575 77.773 52.0355 77.156 51.6635C77.062 51.6055 76.944 51.6755 76.96 51.7885Z" fill="black"/>
<path d="M77.8028 52.768C78.4938 52.913 79.2108 52.943 79.9138 52.971C80.4998 52.994 81.1618 53.113 81.7098 52.861C81.9538 52.748 81.8958 52.44 81.6868 52.335C81.1168 52.05 80.3628 52.175 79.7418 52.177C79.0928 52.179 78.4258 52.193 77.7838 52.303C77.5058 52.351 77.5568 52.716 77.8028 52.768Z" fill="black"/>
<path d="M26.7988 56.536C28.0778 58.931 30.3918 60.634 32.8188 58.659C33.2778 58.285 35.9218 54.975 35.9508 55.028C36.7378 56.431 37.4638 57.807 38.8928 58.642C39.9228 59.245 41.0968 59.017 42.0188 58.391C43.2548 57.552 42.9438 53.879 44.7358 55.271C45.6738 56 46.8388 57.023 48.1298 56.411C49.5008 55.761 50.1898 53.432 50.6118 52.13C50.4188 52.086 50.2258 52.041 50.0328 51.997C49.8768 53.355 51.5058 56.513 52.3458 54.004C52.3978 53.85 52.1948 53.67 52.0658 53.808C50.7788 53.694 50.3008 53.109 50.6288 52.054C50.6798 51.71 50.1698 51.613 50.0508 51.922C49.4958 53.352 48.5758 57.013 46.0218 55.474C45.1708 54.962 44.5598 54.239 43.6218 53.857C43.4578 53.79 43.2678 53.887 43.2068 54.048C42.6128 55.63 42.4468 58.25 40.1948 58.328C38.1608 58.397 37.0768 55.691 36.2748 54.256C36.1718 54.073 35.9318 53.998 35.7618 54.145C34.6748 55.089 33.9398 56.332 33.0578 57.456C31.9638 58.849 30.5418 59.411 28.9098 58.368C28.1308 57.869 27.6998 56.955 26.9588 56.401C26.8728 56.337 26.7468 56.44 26.7988 56.536Z" fill="#88165E"/>
<path d="M28.1045 68.2278C29.3595 70.7848 30.6155 74.2248 34.1395 72.9168C35.5765 72.3848 36.5445 70.6808 37.2865 69.4638C37.5235 69.0748 38.2695 67.3288 38.6325 67.7018C39.3575 68.4448 40.1255 69.0848 41.0305 69.6008C42.1965 70.2658 44.0015 70.0848 44.9955 69.1678C46.0185 68.2238 46.2155 64.6158 48.0215 65.2948C49.9225 66.0098 50.6365 66.8818 52.7455 66.4838C54.5195 66.1498 56.1075 64.7938 56.7815 63.1568C56.8955 62.8778 56.4785 62.6588 56.3155 62.9128C54.9325 65.0618 52.4985 66.8088 49.8895 65.5698C48.8265 65.0648 47.8705 64.3638 46.6535 64.4658C46.1915 64.5038 45.9025 65.5958 45.7985 65.8818C45.3205 67.1988 45.2935 68.1258 43.8035 68.9678C41.7845 70.1078 39.8055 67.7738 38.6835 66.6148C38.5105 66.4358 38.2035 66.4178 38.0535 66.6448C36.9225 68.3518 36.1065 70.2658 34.5965 71.6938C31.5725 74.5558 29.7805 69.9598 28.2515 68.1328C28.1875 68.0558 28.0605 68.1368 28.1045 68.2278Z" fill="#88165E"/>
<path d="M25.329 77.2562C28.573 79.2192 32.452 78.8302 36.017 78.0772C37.926 77.6732 39.084 76.7102 40.77 75.7662C42.197 74.9682 43.891 77.2402 45.317 77.4892C46.475 77.6912 47.941 76.5952 48.87 76.0952C50.181 75.3902 51.592 74.9422 52.744 76.1642C53.174 76.6182 53.48 77.0742 53.998 77.4362C54.978 78.1202 56.641 77.6352 57.619 77.3172C58.719 76.9592 59.794 76.5552 60.936 76.3532C61.881 76.1862 62.691 76.2422 63.573 75.8652C63.865 75.7402 63.699 75.3312 63.411 75.3602C62.065 75.4952 60.687 75.5542 59.391 75.9892C56.834 76.8452 54.986 77.5362 52.937 75.3922C50.92 73.2812 47.828 76.2132 45.815 76.8022C44.117 77.2982 43.425 75.3112 42.065 75.0212C41.023 74.7992 40.185 75.3782 39.334 75.9432C35.511 78.4782 29.615 78.9232 25.415 77.0922C25.318 77.0492 25.238 77.2012 25.329 77.2562Z" fill="#88165E"/>
<path d="M80.4541 52.6151C80.4951 52.6151 80.5021 52.5511 80.4601 52.5511C80.4191 52.5511 80.4121 52.6151 80.4541 52.6151Z" fill="black"/>
<path d="M19.7198 28.0692C18.4438 38.2602 28.9708 45.0792 37.8078 45.6572C47.4108 46.2872 58.5508 38.9322 61.2478 29.5422C62.7418 24.3352 59.7318 20.5502 56.2558 16.8052C51.8818 12.0892 43.2738 9.52217 37.0698 9.92517C30.9218 10.3212 24.3538 12.4222 21.0198 17.8252C19.8658 19.7012 18.9528 21.5802 18.4008 23.6222C18.1578 24.5272 17.8788 26.0502 17.6548 26.3992L19.7198 28.0692Z" fill="#F6EDC4"/>
<path d="M19.0136 25.4501C19.2006 28.2621 19.3026 31.2021 20.1806 33.8991C21.0186 36.4731 22.6826 38.7371 24.5616 40.6441C28.2056 44.3441 32.9776 46.1881 38.0976 46.4491C48.4886 46.9781 59.0116 40.2881 59.7516 29.3001C59.7946 28.6761 58.8286 28.5851 58.7866 29.2081C58.0466 40.1901 47.5726 45.9731 37.4716 45.4891C32.5346 45.2531 28.1446 43.0481 24.6726 39.5931C22.9646 37.8921 21.7316 35.8081 20.8746 33.5691C19.8876 30.9881 20.0986 28.0411 19.4726 25.3691C19.4036 25.0721 18.9936 25.1541 19.0136 25.4501Z" fill="black"/>
<path d="M58.833 33.2284C58.887 34.2064 59.694 34.7594 60.63 34.7364C61.701 34.7094 62.404 33.8674 62.715 32.9224C63.317 31.0854 62.356 28.2944 60.205 28.1034C59.705 28.0584 59.633 28.8314 60.131 28.8764C61.547 29.0054 62.101 30.6334 62.102 31.8574C62.102 32.4944 61.901 33.1714 61.439 33.6254C60.67 34.3784 59.719 33.9064 59.341 33.0664C59.206 32.7684 58.817 32.9444 58.833 33.2284Z" fill="black"/>
<path d="M59.6748 31.1532C60.1338 31.4242 60.5558 31.7122 60.9788 32.0362C61.2278 32.2272 61.5048 31.8792 61.3318 31.6482C60.9448 31.1312 60.4208 30.9022 59.7838 30.8562C59.6298 30.8442 59.5278 31.0662 59.6748 31.1532Z" fill="black"/>
<path d="M18.8291 28.909C18.1461 28.7 17.5211 28.635 16.9941 28.095C16.4921 27.579 16.2381 26.932 16.4191 26.223C16.5301 25.787 16.8131 25.408 17.1541 25.126C17.5381 24.808 17.6701 24.959 18.0191 25.156C18.1361 25.221 18.3031 25.197 18.3501 25.053C18.5381 24.463 17.9031 24.205 17.4201 24.301C16.7341 24.436 16.2301 25.125 15.9481 25.71C15.1791 27.306 17.0121 30.107 18.8351 29.029C18.8791 29.002 18.8881 28.927 18.8291 28.909Z" fill="black"/>
<path d="M16.8086 26.3528C17.2436 26.6518 17.6616 26.9678 18.0866 27.2768C18.4316 27.5268 18.8136 26.9818 18.4656 26.7368C18.0086 26.4158 17.4986 26.0748 16.9286 26.0248C16.7496 26.0098 16.6586 26.2488 16.8086 26.3528Z" fill="black"/>
<path d="M38.8144 29.3899C39.0474 29.1029 39.5594 28.8669 39.9144 28.8249C39.8194 28.7759 39.7244 28.7269 39.6304 28.6779C39.8774 29.0759 40.0614 29.4959 40.1274 29.9619C40.1974 30.4489 40.9934 30.2999 40.8724 29.8309C40.7214 29.2489 40.4514 28.8469 40.0684 28.3949C39.9854 28.2969 39.8694 28.2899 39.7544 28.3269C39.5114 28.4079 39.2554 28.5219 39.0814 28.7179C38.9074 28.9139 38.8654 29.1179 38.7284 29.3289C38.6914 29.3869 38.7724 29.4419 38.8144 29.3899Z" fill="black"/>
<path d="M50.4716 33.6878C51.0326 34.0828 51.7926 34.2978 52.4766 34.2548C53.9376 34.1638 55.1636 33.1028 55.1636 31.5678C55.1636 30.1728 53.9396 28.7898 52.4766 28.8808C52.5636 28.8758 53.5146 29.2808 53.1846 29.0468C51.9856 28.2018 50.2006 28.8288 49.5076 30.0108C48.7196 31.3568 49.2776 32.8448 50.4716 33.6878Z" fill="#EE6571"/>
<path d="M25.08 35.2337C25.643 35.6257 26.4 35.8447 27.085 35.7997C28.546 35.7047 29.772 34.6497 29.772 33.1127C29.772 31.7207 28.548 30.3307 27.085 30.4257C27.172 30.4207 28.128 30.8267 27.793 30.5927C26.589 29.7537 24.811 30.3697 24.116 31.5567C23.331 32.8977 23.882 34.3977 25.08 35.2337Z" fill="#EE6571"/>
<path d="M38.4658 36.3041C40.1928 38.8381 44.1988 37.8571 44.8328 34.9991C44.9318 34.5541 44.1628 34.3801 44.0538 34.8211C43.4028 37.4501 40.5768 37.3411 38.7598 35.9811C38.5458 35.8211 38.3328 36.1091 38.4658 36.3041Z" fill="#EE2E3B"/>
<path d="M62.9687 36.5867C62.2757 38.5247 61.4977 40.3937 59.6067 41.4557C59.2027 41.6817 59.4937 42.3207 59.9187 42.1117C61.8627 41.1527 63.3297 38.8667 63.4887 36.7057C63.5107 36.4037 63.0727 36.2947 62.9687 36.5867Z" fill="#D46D27"/>
<path d="M58.7666 37.4392C58.2866 38.6882 57.5066 39.9122 57.6766 41.2992C57.7316 41.7442 58.3696 41.6062 58.3466 41.1812C58.2806 39.9092 59.0406 38.7772 59.1226 37.5212C59.1366 37.3122 58.8416 37.2412 58.7666 37.4392Z" fill="#D46D27"/>
<path d="M34.4707 11.7908C36.7307 15.5638 31.7897 18.2688 28.5177 18.6748C29.8447 22.4288 26.3377 23.0638 23.7647 23.4808C22.7497 27.8918 17.8907 26.1708 18.9587 31.3188C19.5987 34.5928 23.5077 37.4618 22.0367 41.3988C21.2927 43.7148 16.5037 40.2398 14.1667 40.4298C11.1337 40.6068 6.36671 44.1388 4.06771 42.4648C-0.532291 39.1158 -2.28629 33.0238 4.50171 31.5168C0.645709 25.8518 3.56271 19.3788 9.19271 17.3848C7.67871 11.0638 12.2647 2.52384 19.6497 6.62284C20.7087 -0.350163 29.5427 0.977839 33.1997 5.00884C36.5387 0.873838 46.8077 0.131839 50.2127 5.09084C55.1597 2.38384 65.5997 4.90984 63.3597 12.5588C66.1327 14.0088 69.5747 16.8708 70.4507 19.9158C71.3297 22.7298 69.1857 25.2538 69.6027 28.0588C69.9837 32.7288 73.5907 39.0888 65.6427 40.3398C68.3237 46.6828 55.2757 46.4418 56.5007 43.2018C49.8287 38.4158 59.4447 35.3308 59.0497 31.3598C58.4407 26.4538 55.8247 29.4358 53.5047 28.6938C51.4187 27.9558 50.7797 24.9138 50.1227 22.5698C47.5377 23.6888 40.7417 25.6608 42.2467 19.8608C39.1657 22.6008 35.0147 20.1928 34.6187 16.4568" fill="#E7DE4E"/>
<path d="M18.7754 15.931C23.6244 5.99599 41.6014 4.231 50.3764 8.823C53.6064 10.514 55.8924 13.121 56.9864 16.87C50.2524 15.581 45.1894 11.99 37.7204 12.551C32.5884 12.922 18.7754 15.931 18.7754 15.931Z" fill="#E63F74"/>
<path d="M46.4825 25.8178C46.8465 25.0058 47.4845 24.2618 48.4545 24.5578C48.8295 24.6728 49.1115 24.9578 49.3385 25.2628C49.5745 25.5778 49.5745 26.0298 49.9815 26.1618C50.0855 26.1948 50.1785 26.1608 50.2465 26.0788C50.6035 25.6458 50.1045 25.0048 49.8065 24.6598C49.4585 24.2558 48.9725 24.0238 48.4605 23.9188C47.2575 23.6728 46.3635 24.6638 46.1825 25.7498C46.1515 25.9328 46.4145 25.9708 46.4825 25.8178Z" fill="black"/>
<path d="M33.172 26.7234C33.032 25.6444 32.233 24.7184 31.065 24.8204C30.511 24.8684 30.028 25.1084 29.625 25.4864C29.271 25.8194 28.763 26.4844 29.116 26.9454C29.16 27.0024 29.257 27.0424 29.328 27.0214C29.693 26.9154 29.707 26.6884 29.883 26.3714C30.104 25.9744 30.44 25.6774 30.854 25.4974C31.843 25.0674 32.555 26.0194 32.878 26.8174C32.946 26.9854 33.193 26.8904 33.172 26.7234Z" fill="black"/>
<path d="M34.824 16.1703C35.678 18.3653 37.003 19.8373 39.489 19.5473C39.688 19.5243 41.15 18.9623 41.189 19.1283C41.315 19.6723 41.47 20.0913 41.753 20.5803C42.143 21.2573 42.929 21.5913 43.647 21.7683C44.436 21.9623 45.427 21.7873 46.165 21.4903C46.636 21.3013 47.106 21.1033 47.523 20.8083C48.574 20.0653 48.506 20.5943 49.1 21.6783C50.589 24.3913 52.621 25.0233 54.926 22.8053C55.169 22.5713 54.918 22.1203 54.593 22.2903C53.304 22.9613 52.223 24.1423 50.553 22.5053C49.718 21.6883 49.207 20.5063 48.634 19.4983C48.528 19.3143 48.253 19.2033 48.079 19.3793C46.368 21.1083 41.516 22.6883 41.637 18.5033C41.644 18.2813 41.428 18.1053 41.214 18.2063C38.449 19.5173 36.447 18.8323 35.181 16.0003C35.077 15.7653 34.732 15.9343 34.824 16.1703Z" fill="#E58D2F"/>
<path d="M57.96 17.6287C63.492 17.4617 58.526 22.0257 60.977 22.8927C62.242 23.3407 65.281 22.3547 64.22 25.5147C63.789 26.7977 62.657 27.6167 62.341 28.9827C62.292 29.1937 62.389 29.3847 62.615 29.4207C63.132 29.4997 63.632 29.5177 64.153 29.5347C67.517 29.6487 63.291 33.8957 63.051 34.1177C62.873 34.2817 62.936 34.6587 63.22 34.6577C67.318 34.6397 63.5 37.5507 62.29 38.4167C62.139 38.5247 62.304 38.7137 62.451 38.6657C65.122 37.7937 67.693 34.1017 63.278 34.0457C63.335 34.2257 63.391 34.4057 63.447 34.5867C64.78 33.3957 67.084 30.9957 65.316 29.2407C64.989 28.9157 63.037 28.8407 63.075 28.6747C63.43 27.1317 64.898 26.2587 65.072 24.5907C65.161 23.7427 64.635 22.9797 63.931 22.6077C62.895 22.0617 60.316 23.0207 61.252 20.5347C62.13 18.2017 59.991 17.2927 57.955 17.4897C57.876 17.4977 57.881 17.6307 57.96 17.6287Z" fill="#E58D2F"/>
<path d="M56.4737 25.1962C57.9177 26.0342 59.7147 25.0952 60.4357 27.4402C61.0697 29.4982 59.1917 31.4272 58.4417 33.2002C58.3627 33.3852 58.5097 33.5862 58.6977 33.6082C59.9047 35.1712 59.8047 36.1772 58.3977 36.6292C58.0497 36.7922 57.7057 36.9622 57.3667 37.1402C56.8267 37.4162 56.4707 37.7722 56.1427 38.2692C55.6197 39.0592 56.1137 40.3542 56.3817 41.1332C57.3807 44.0302 60.5057 42.5422 61.9667 40.8962C62.0827 40.7652 61.8927 40.5372 61.7437 40.6322C59.7087 41.9312 57.3097 42.9792 56.5487 39.8462C56.0327 37.7242 58.9217 37.1952 59.9827 36.1482C61.0757 35.0702 60.8097 33.7282 59.5227 33.1172C58.9347 32.8392 60.4177 30.7492 60.7117 30.1032C61.0817 29.2892 61.1907 28.1462 60.8847 27.2962C59.9867 24.8032 58.6147 25.8022 56.5407 25.0692C56.4647 25.0422 56.4007 25.1542 56.4737 25.1962Z" fill="#E58D2F"/>
<path d="M61.4336 41.2781C60.7666 41.9241 59.5196 43.3111 60.5256 44.1991C61.4286 44.9971 63.3686 43.9681 63.7716 43.0711C63.8336 42.9321 63.6686 42.8051 63.5436 42.8621C62.7006 43.2471 61.9726 44.3151 60.9036 43.9621C59.7076 43.5661 61.0846 41.7811 61.4906 41.3441C61.5276 41.3041 61.4746 41.2381 61.4336 41.2781Z" fill="#E58D2F"/>
<path d="M61.9015 13.8939C64.9565 13.3649 68.1855 13.4358 69.0815 17.1848C69.5435 19.1128 68.2265 21.4738 67.9295 23.3988C67.8995 23.5938 68.0605 23.7238 68.2295 23.7618C68.8445 23.8978 69.4525 23.9678 70.0805 24.0178C71.8595 24.1578 69.6505 27.0248 69.3005 27.4758C68.6575 28.3038 67.4355 29.5389 67.4045 30.6839C67.3825 31.4729 67.6585 31.8158 68.3755 32.1158C68.5735 32.1648 68.7755 32.1859 68.9825 32.1769C70.5075 32.3029 68.7965 34.5508 68.5795 34.8898C67.9645 35.8468 68.6505 36.6258 67.6645 37.6728C67.5695 37.7728 67.6915 37.9258 67.8045 37.8388C69.0715 36.8608 69.2925 35.0228 70.0765 33.6788C70.4365 33.0618 70.4325 32.0088 69.6295 31.7108C65.0915 30.0268 72.9685 26.7018 71.3925 24.0888C71.0175 23.4658 70.4115 23.4178 69.7245 23.3328C67.7305 23.0878 69.8905 19.3059 69.7345 17.7659C69.2995 13.4918 65.4125 12.6859 61.8625 13.6749C61.7265 13.7129 61.7575 13.9189 61.9015 13.8939Z" fill="#E58D2F"/>
<path d="M50.1485 6.51105C52.9245 4.23805 56.8325 4.02405 59.9425 5.73405C62.7295 7.26705 61.0955 10.771 60.7875 13.128C60.7535 13.385 61.0295 13.536 61.2455 13.449C61.4845 13.353 63.1315 12.597 63.0975 13.531C63.0895 13.739 63.3805 13.816 63.4585 13.613C63.8605 12.553 63.1345 12.313 62.1605 12.475C61.8995 12.519 61.5165 12.668 61.2645 12.755C61.7365 12.592 61.7415 11.312 61.8325 10.871C62.0585 9.77305 62.2105 8.73405 62.0255 7.62305C61.6765 5.53505 59.1935 4.69805 57.4325 4.35105C54.8045 3.83305 52.1315 4.84905 50.1075 6.46405C50.0775 6.48905 50.1175 6.53605 50.1485 6.51105Z" fill="#E58D2F"/>
<path d="M20.8778 8.90265C20.1218 6.13865 20.2468 1.82265 23.7938 1.19065C26.7578 0.661653 31.2128 3.27665 31.8858 6.21465C31.9618 6.54765 32.3988 6.58365 32.5338 6.27365C33.9668 2.99565 37.2298 1.33165 40.7298 1.63565C44.3118 1.94665 45.3138 4.54365 46.2038 7.52665C46.2748 7.76665 46.5278 7.88465 46.7408 7.72065C47.2698 7.31265 47.7468 6.87965 48.2288 6.41765L48.7238 5.96765C49.7148 4.83865 50.7408 5.01765 51.8048 6.50665C51.7738 6.69865 52.0438 6.73265 52.1178 6.57765C53.1208 4.46465 51.1008 4.08965 49.4728 4.68265C48.4998 5.03665 46.8978 7.56565 46.5028 6.25465C46.2048 5.26765 45.9058 4.17565 45.2738 3.34365C41.6788 -1.37435 33.9718 1.27565 31.9008 6.03865C32.1168 6.05865 32.3338 6.07765 32.5498 6.09765C31.7028 2.54965 27.1068 0.373652 23.7018 0.670652C20.0348 0.990652 19.3938 6.34765 20.7278 8.95065C20.7678 9.02765 20.9028 8.99265 20.8778 8.90265Z" fill="#E58D2F"/>
<path d="M17.7247 7.84608C14.5677 6.86208 11.6167 8.84908 10.2397 11.6691C8.71066 14.7991 11.6617 16.6041 14.4377 15.9181C14.3747 15.7251 14.3137 15.5321 14.2517 15.3391C10.3377 17.5791 6.63466 19.7161 6.01966 24.5961C5.83366 26.0721 5.95266 27.7411 7.26566 28.6341C8.67566 29.5931 10.3737 28.1901 11.0587 27.0571C11.1897 26.8391 10.9837 26.6011 10.7487 26.6911C6.30766 28.3911 3.99166 31.8091 3.98366 36.5681C3.97466 41.1571 7.53566 42.0471 11.0657 40.0641C11.3297 39.9151 11.1467 39.5341 10.8647 39.6401C9.70666 40.0781 8.56666 40.5241 7.31166 40.5691C4.56166 40.6661 4.42866 36.9901 4.45666 35.2751C4.50966 32.1371 6.33166 29.2011 9.02266 27.6221C6.18366 29.2881 6.55766 25.0781 6.67266 24.1531C6.85366 22.6891 7.51966 21.3671 8.38866 20.2001C9.87566 18.2031 12.4067 17.0871 14.5157 15.8931C14.8067 15.7281 14.6867 15.2441 14.3297 15.3141C11.3147 15.8991 9.80766 13.5021 11.4097 10.8901C12.6277 8.90208 15.3227 7.56908 17.6227 8.12208C17.8027 8.16608 17.9107 7.90408 17.7247 7.84608Z" fill="#E58D2F"/>
<path d="M33.3751 14.9545C31.7211 17.7485 28.3311 17.9425 26.0411 19.9475C25.9181 20.0555 25.9451 20.2735 26.1071 20.3285C27.2961 20.4915 27.4591 21.3365 26.5961 22.8635C25.9581 23.1055 25.3031 23.2745 24.6301 23.3715C23.4811 23.5815 22.3251 23.6685 21.1851 23.9335C20.9701 23.9835 20.9621 24.3255 21.2001 24.3355C24.4841 24.4735 20.5001 27.3015 19.5281 28.0495C18.6761 28.7055 17.3351 29.4235 16.8731 30.4495C16.7711 30.6785 17.1391 30.8725 17.2641 30.6535C18.3621 28.7345 21.0931 27.6285 22.5861 25.9785C22.8981 25.6335 23.2931 25.0545 23.0621 24.5675C22.9921 24.4205 22.8291 24.2685 22.6831 24.2045C22.5111 24.1165 22.3301 24.0555 22.1391 24.0235C21.3591 23.8245 21.8491 24.2055 21.8951 24.1965C23.0441 23.9505 30.0171 23.5545 28.0471 20.8155C27.9531 20.6845 26.7301 19.9955 26.8111 19.9365C27.7741 19.2305 28.8871 18.7635 29.9601 18.2545C31.5401 17.5065 32.7441 16.6205 33.5361 15.0385C33.5831 14.9455 33.4281 14.8655 33.3751 14.9545Z" fill="#E58D2F"/>
<path d="M18.8233 16.6571C16.4523 16.9341 14.5013 19.1281 13.9453 21.3721C13.7463 22.1761 13.9783 22.9061 14.4643 23.5401C14.6413 23.7721 15.4933 24.0211 15.2253 24.2191C14.3493 24.8641 13.4323 25.4491 12.5493 26.0831C10.3093 27.6871 8.54526 30.5611 9.65926 33.3501C10.5823 35.6621 13.8143 34.8371 15.2963 33.7801C15.5943 33.5661 15.2693 33.1671 14.9693 33.2751C13.5183 33.7991 9.77026 35.7181 11.0293 37.9281C12.8373 41.0991 16.7103 40.5541 19.4653 39.0661C19.2713 38.9661 19.0793 38.8661 18.8863 38.7671C19.0293 39.5771 19.4553 41.6221 20.5973 41.6821C21.6903 41.7401 22.5473 40.6011 22.6083 39.5381C22.7303 37.4521 20.9673 33.6971 18.4813 35.5051C18.1213 35.7671 18.5103 36.3481 18.9003 36.1531C20.7323 35.2381 21.4703 37.5211 21.7083 38.6491C21.9883 39.7951 21.4693 40.2791 20.1503 40.0991C19.9183 39.6311 19.7643 39.1391 19.6923 38.6251C19.6433 38.3811 19.3513 38.1901 19.1133 38.3261C17.3523 39.3361 15.5473 39.9141 13.5233 39.3101C9.14326 38.0041 12.2853 35.3671 13.5163 34.5751C14.0423 34.2381 14.6453 34.0281 15.2293 33.8221C15.1213 33.6541 15.0123 33.4861 14.9033 33.3181C13.8333 34.0701 12.6883 34.4141 11.3993 34.0751C8.99626 33.4431 10.0703 29.9791 10.8803 28.6011C12.0073 26.6811 14.4693 25.5941 16.1703 24.2651C16.3423 24.1321 16.2933 23.8211 16.0803 23.7561C11.7763 22.4521 16.5473 17.3201 18.8233 16.6621C18.8263 16.6611 18.8263 16.6571 18.8233 16.6571Z" fill="#E58D2F"/>
</svg>
