<svg width="83" height="98" viewBox="0 0 83 98" fill="none" xmlns="http://www.w3.org/2000/svg">
<path d="M49.5557 97.7382C50.8947 97.1842 52.6907 97.5502 54.0637 97.8372C56.0977 98.2632 56.9627 95.1472 54.9227 94.7202C53.0407 94.3262 50.5417 93.8582 48.6967 94.6212C47.8827 94.9572 47.3117 95.6802 47.5677 96.6092C47.7797 97.3802 48.7407 98.0752 49.5557 97.7382Z" fill="#DE7EB3"/>
<path d="M24.5752 96.2112C25.8502 96.2352 27.1232 96.2582 28.3762 96.5142C30.4102 96.9312 31.2772 93.8152 29.2352 93.3972C27.6952 93.0822 26.1422 93.0082 24.5752 92.9792C22.4892 92.9392 22.4932 96.1712 24.5752 96.2112Z" fill="#DE7EB3"/>
<path d="M26.4406 12.4612C22.0636 14.8172 18.8106 18.9222 20.8556 23.7832C21.2056 24.6162 21.3936 27.2482 21.6226 28.3172C21.9806 30.0012 23.0606 31.8452 23.7716 33.4262C24.9476 36.0442 26.9876 37.9972 29.2866 39.6162C33.6536 42.6922 40.6776 43.1462 45.6196 41.5802C48.6966 40.6062 51.2806 38.4242 53.5156 36.1862C55.6356 34.0622 56.2546 31.0602 58.1696 28.9272H54.5036C54.6456 29.2112 54.7886 29.4962 54.9306 29.7802C55.6826 32.5232 60.3526 32.0632 60.0216 29.0912C59.5666 25.0022 58.9896 19.3322 56.2056 16.0832C53.3506 12.7512 49.1696 11.2102 44.8996 10.6362C37.7786 9.68024 28.9336 10.6552 25.1506 17.6222C23.8266 20.0622 26.3966 22.1902 28.6976 21.1692C34.5316 18.5792 43.2626 15.8472 49.6666 17.0522V12.0532C41.4836 13.8632 22.9586 12.8062 21.8566 25.0922C21.6756 27.1082 24.1736 28.2452 25.7566 27.3302C30.5486 24.5592 35.4446 22.4062 40.9756 21.6682C46.1746 20.9742 49.2596 22.4202 52.8636 26.0712C53.4746 24.5962 54.0856 23.1212 54.6966 21.6462C51.9036 21.7902 48.9466 19.3772 46.2806 18.5892C43.2016 17.6802 39.6876 17.5032 36.5286 17.9022C31.4106 18.5492 27.4366 21.4692 24.4396 25.5202C22.7596 27.7902 25.8916 30.1132 27.9866 29.0662C32.2186 26.9512 36.7916 26.5752 41.4576 26.6372C42.7226 26.6532 52.2206 27.3352 52.1046 28.5942L53.3876 26.3562C52.5756 26.7342 48.5136 24.1622 47.3056 24.0522C43.6886 23.7222 40.3196 23.9632 36.7206 24.3192C31.8586 24.8002 28.1156 26.5352 24.7496 30.0782C22.9526 31.9702 24.7326 35.0452 27.2716 34.4112C31.5756 33.3342 35.4846 32.3672 39.9536 31.8422C41.4476 31.6672 46.7286 30.4792 47.5306 32.2362C48.0466 30.9672 48.5636 29.6982 49.0796 28.4282C45.0036 29.9782 28.6246 27.7532 28.1846 35.4132C27.9466 39.5622 34.5046 38.4932 36.6816 38.3632C42.0276 38.0442 46.5366 39.4722 50.7116 35.0042C52.9906 32.5652 49.3326 28.8912 47.0446 31.3382C44.5666 33.9902 41.3566 33.5432 38.1166 33.2502C36.7906 33.1302 35.5596 33.2482 34.2426 33.3812C32.2336 33.0272 31.7536 34.1232 32.8026 36.6682C33.2856 36.3692 33.7936 36.1232 34.3266 35.9282C39.5616 33.8352 45.3306 35.3762 50.4586 33.4272C52.1276 32.7932 52.7456 31.2382 52.0066 29.6202C50.3886 26.0722 45.8616 26.1432 42.5446 26.3722C36.7706 26.7712 31.4566 28.0212 25.8926 29.4122C26.7336 30.8562 27.5746 32.3002 28.4156 33.7442C33.3956 28.5022 43.0406 27.5702 49.5616 30.2932C52.0836 31.3462 59.5546 32.0142 56.9746 26.8432C54.7356 22.3542 48.8816 22.0532 44.4806 21.6262C37.9696 20.9942 31.2646 21.6452 25.3696 24.5902C26.5516 25.7722 27.7336 26.9542 28.9166 28.1362C32.5136 23.2742 37.6396 22.4162 43.2986 23.2602C47.4066 23.8732 50.4746 27.0472 54.6966 26.8302C56.9166 26.7152 58.1756 24.0742 56.5296 22.4052C52.4526 18.2752 48.5696 16.0522 42.6456 16.3382C35.6016 16.6792 29.1686 19.3682 23.1396 22.8542C24.4406 23.6002 25.7406 24.3462 27.0406 25.0922C27.3096 22.0892 32.7946 20.0562 35.1806 19.3012C40.2116 17.7102 45.8756 18.1952 51.0446 17.0522C53.4826 16.5132 53.5716 12.5292 51.0446 12.0532C43.1076 10.5602 33.2946 13.4902 26.0806 16.6922C27.2626 17.8742 28.4446 19.0562 29.6276 20.2382C32.1296 15.6292 37.9386 15.3182 42.6156 15.5612C45.1286 15.6922 47.5756 16.3842 49.8466 17.4482C53.6086 19.2102 54.4256 25.3942 54.8376 29.0912C56.5356 28.8622 58.2326 28.6322 59.9286 28.4022C59.5276 26.9382 59.2136 26.3452 58.1696 25.2612C57.2276 24.2852 55.4346 24.2232 54.5036 25.2612C52.1516 27.8812 51.2296 31.1382 48.6526 33.7202C44.8786 37.4992 39.7566 37.7352 34.8976 36.4852C29.7656 35.1642 26.6816 29.5732 26.2656 24.5862C26.1566 23.2742 25.7776 22.0352 25.2026 20.8582C24.6216 19.6692 28.2536 17.3702 29.0576 16.9382C32.0016 15.3532 29.3836 10.8772 26.4406 12.4612Z" fill="#EBC598"/>
<path d="M5.00812 50.0949C4.21645 49.7677 3.41687 49.9943 2.6798 50.3461C1.93358 50.7024 0.980357 51.2404 0.462078 51.8949C0.347333 52.0384 0.344695 52.2566 0.417034 52.4184C0.405785 52.3841 0.394536 52.3498 0.383286 52.3156C0.3576 52.4902 0.506853 52.6531 0.675706 52.6689C0.649279 52.6553 0.621886 52.642 0.594493 52.6286C0.739688 52.7377 0.956786 52.752 1.11773 52.6727C1.67087 52.4033 2.13534 51.8958 2.63433 51.5364C3.17502 51.1472 4.11463 50.4348 4.82379 50.6009C5.1555 50.6797 5.33764 50.2313 5.00812 50.0949Z" fill="black"/>
<path d="M4.73094 46.9026C3.56518 46.659 2.65533 45.4927 1.67111 44.8951C0.995671 44.4839 0.357259 45.4087 0.974887 45.9016C2.04251 46.7564 3.26611 47.5829 4.65277 47.7352C5.20295 47.7948 5.24408 47.0094 4.73094 46.9026Z" fill="black"/>
<path d="M2.92179 48.0137C2.10414 48.1034 1.1141 48.0249 0.514995 48.6907C0.364977 48.8572 0.504335 49.0952 0.668433 49.1744C1.42549 49.5348 2.33151 49.0601 3.06192 48.8458C3.57533 48.6947 3.47285 47.953 2.92179 48.0137Z" fill="black"/>
<path d="M36.6143 43.7444C32.5153 44.3334 31.0413 47.9734 29.7833 51.3474C28.5603 54.6294 28.1973 58.3394 27.5643 61.7674C26.9863 64.8994 26.8693 68.7944 24.8143 71.3854C23.4353 73.1234 24.2853 75.4674 26.5823 75.6524C32.4103 76.1224 37.9623 76.3414 43.7953 76.0064C47.4473 75.7964 51.0253 76.0924 54.6083 75.1434C64.6353 72.4874 57.2673 60.8934 55.2333 55.1594C53.2213 49.4864 46.2343 43.4694 39.9883 44.4184C36.1363 45.0034 35.0603 50.7234 34.3933 53.6674C33.0753 59.4894 31.8593 65.0134 32.2253 71.0214C32.3523 73.0984 34.9063 74.4604 36.4933 72.7894C38.7973 70.3644 38.9203 66.8794 39.5843 63.7354C40.5333 59.2414 40.7483 54.3754 42.4613 50.0984H37.6383C38.2353 53.5474 37.1923 57.0534 37.1403 60.5104C37.0863 64.1464 37.7463 67.7264 37.5413 71.3734C37.3843 74.1774 41.8993 74.8064 42.4523 72.0374C43.6813 65.8734 44.3733 59.6214 45.6033 53.4564C43.9663 53.2354 42.3293 53.0144 40.6923 52.7924C40.5513 56.2234 41.1773 59.5474 41.7133 62.9244C42.3223 66.7604 42.3473 70.4054 43.7413 74.0964C44.7813 76.8474 48.2873 76.2214 48.6523 73.4314C49.2053 69.2094 48.2183 65.2524 47.7053 61.0734C47.3103 57.8674 47.3073 54.6924 46.4953 51.5464C44.8873 51.9894 43.2803 52.4324 41.6733 52.8754C44.2123 59.1644 46.9003 65.3704 48.4153 72.0044C50.0223 71.5614 51.6303 71.1184 53.2373 70.6754C52.1803 67.2604 51.8563 63.7424 51.2083 60.2384C50.6233 57.0824 49.5443 54.0584 48.9413 50.9064C47.7173 51.8474 46.4923 52.7884 45.2683 53.7294C50.3393 56.0914 49.4363 67.3074 50.7823 71.7334C51.7183 74.8084 56.5453 73.4964 55.6043 70.4044C53.7483 64.3004 54.8623 52.7054 47.7923 49.4124C45.7533 48.4624 43.6903 49.9934 44.1193 52.2354C44.7223 55.3884 45.7803 58.4164 46.3853 61.5674C47.0593 65.0694 47.3583 68.5854 48.4153 72.0044C49.3693 75.0884 53.9553 73.8184 53.2373 70.6754C51.7213 64.0414 49.0333 57.8354 46.4953 51.5464C45.3183 48.6324 40.8453 49.6734 41.6733 52.8754C42.4873 56.0234 42.4843 59.2794 42.8803 62.4934C43.3353 66.1934 44.1423 69.6894 43.6523 73.4314C45.2893 73.2094 46.9263 72.9884 48.5633 72.7664C46.4343 67.1324 45.4453 58.7704 45.6923 52.7924C45.8083 49.9954 41.3363 49.3484 40.7813 52.1274C39.5523 58.2924 38.8603 64.5444 37.6303 70.7084C39.2673 70.9304 40.9043 71.1514 42.5413 71.3734C42.7683 67.3254 42.0983 63.3234 42.1593 59.2774C42.2143 55.6754 43.0863 52.3864 42.4613 48.7694C41.9903 46.0514 38.4483 46.7494 37.6383 48.7694C36.3143 52.0774 36.1003 55.6124 35.4633 59.0894C35.0073 61.5764 34.8073 67.3064 32.9583 69.2544C34.3813 69.8434 35.8023 70.4324 37.2253 71.0214C36.8143 64.2884 37.9923 55.8494 40.8923 49.6494C41.8433 47.6164 47.0053 52.2134 47.6013 52.7604C50.0713 55.0244 50.8853 57.7934 51.8283 60.9454C52.4123 62.8964 56.4903 68.1934 54.3483 69.8274C52.4063 71.3104 48.8813 70.9604 46.5853 70.9784C39.8393 71.0324 33.3433 71.1984 26.5823 70.6524C27.1713 72.0754 27.7603 73.4974 28.3493 74.9204C31.1773 71.3564 31.5143 67.4464 32.3853 63.0974C33.0693 59.6834 33.4173 49.2164 37.9443 48.5654C41.1253 48.1084 39.7673 43.2914 36.6143 43.7444Z" fill="#8C459A"/>
<path d="M36.1152 42.4511C35.2612 43.3411 33.9842 43.0921 33.1022 43.8431C32.3082 44.5191 31.8562 45.3671 31.4252 46.3031C30.0782 49.2251 29.2962 52.8431 28.5162 55.9571C27.6432 59.4471 26.8672 62.8681 25.5512 66.2271C24.9502 67.7581 24.0772 69.1511 23.4342 70.6621C22.7962 72.1641 22.3592 73.6951 21.4112 75.0501C21.2532 75.2751 21.3342 75.6811 21.6312 75.7551C28.5212 77.4641 35.9502 78.7021 43.0642 77.9611C46.7652 77.5751 50.4532 77.5911 54.0882 76.6891C57.1392 75.9331 59.5542 74.0921 62.4172 73.0271C62.6802 72.9291 62.7362 72.6081 62.6482 72.3771C61.2712 68.7581 59.5052 65.3241 58.2842 61.6321C56.9442 57.5831 55.6342 53.5721 53.6092 49.8001C52.0202 46.8401 50.5292 45.0821 47.2662 44.1511C43.6162 43.1101 39.8702 42.7671 36.0862 42.8661C35.4122 42.8831 35.3092 43.9371 35.9862 43.9161C38.9512 43.8261 41.8662 43.9861 44.7722 44.5961C46.7692 45.0151 49.0382 45.3681 50.5262 46.9011C51.8232 48.2351 52.7202 50.2001 53.5522 51.8481C56.5692 57.8361 57.8492 64.5341 60.7862 70.5721C61.5522 72.1481 61.6512 72.1551 60.2162 73.0691C58.9562 73.8721 57.5502 74.4581 56.1642 75.0171C52.7732 76.3841 49.0712 76.5911 45.4682 76.8221C37.4252 77.3371 29.8022 76.8171 21.9552 74.8801C22.0282 75.1151 22.1012 75.3501 22.1752 75.5851C23.5792 73.5751 24.2232 71.0961 25.3232 68.9161C26.9172 65.7541 27.9472 62.3931 28.7362 58.9521C29.5232 55.5251 30.5942 52.2151 31.4672 48.8161C31.9492 46.9331 32.5562 44.7231 34.5172 43.9111C35.3082 43.5831 35.8622 43.3711 36.3262 42.6431C36.4102 42.5121 36.2322 42.3281 36.1152 42.4511Z" fill="#C7383A"/>
<path d="M35.9072 51.5652C36.4222 51.8652 36.9352 52.1662 37.4492 52.4672C38.6252 53.1582 40.1822 52.7432 40.8692 51.5702C41.5592 50.3932 41.1452 48.8392 39.9722 48.1502C39.4592 47.8482 38.9452 47.5482 38.4302 47.2482C37.2542 46.5602 35.6982 46.9692 35.0102 48.1452C34.3222 49.3192 34.7322 50.8792 35.9072 51.5652Z" fill="#DB2390"/>
<path d="M42.0235 51.1829C42.6145 51.9729 43.2235 52.5319 44.1765 52.8569C45.4675 53.2979 46.9075 52.3649 47.2525 51.1109C47.6305 49.7369 46.7945 48.4759 45.5065 48.0359C45.7815 48.1049 46.0175 48.2399 46.2125 48.4419C46.0255 48.2559 46.0675 48.3289 46.3395 48.6599C45.9315 48.1139 45.5295 47.6989 44.8465 47.5109C44.2015 47.3329 43.4975 47.4239 42.9195 47.7629C41.8445 48.3919 41.2045 50.0899 42.0235 51.1829Z" fill="#DB2390"/>
<path d="M32.7636 70.4657C33.1336 70.5427 33.5016 70.6207 33.8706 70.6977C35.2036 70.9767 36.5686 70.3257 36.9476 68.9517C37.2906 67.7007 36.5346 66.1557 35.2016 65.8767C34.8316 65.7997 34.4626 65.7217 34.0936 65.6447C32.7606 65.3667 31.3966 66.0157 31.0176 67.3907C30.6736 68.6407 31.4296 70.1877 32.7636 70.4657Z" fill="#DB2390"/>
<path d="M47.5537 72.4296L47.9227 72.5086C49.2547 72.7926 50.6207 72.1336 50.9987 70.7626C51.3437 69.5086 50.5857 67.9716 49.2527 67.6876C49.1287 67.6606 49.0057 67.6346 48.8837 67.6086C47.5527 67.3216 46.1847 67.9866 45.8077 69.3546C45.4617 70.6116 46.2217 72.1426 47.5537 72.4296Z" fill="#DB2390"/>
<path d="M56.9678 73.017C60.1928 73.017 60.1928 68.017 56.9678 68.017C53.7428 68.017 53.7428 73.017 56.9678 73.017Z" fill="#DB2390"/>
<path d="M37.1415 61.5731C37.2045 61.5861 37.2655 61.5981 37.3275 61.6111C38.6615 61.8851 40.0235 61.2431 40.4035 59.8651C40.7455 58.6181 39.9925 57.0641 38.6575 56.7901C38.5945 56.7771 38.5335 56.7641 38.4715 56.7521C37.1375 56.4781 35.7755 57.1201 35.3955 58.4981C35.0525 59.7451 35.8065 61.2991 37.1415 61.5731Z" fill="#DB2390"/>
<path d="M27.0948 75.955C30.3198 75.955 30.3198 70.955 27.0948 70.955C23.8698 70.955 23.8698 75.955 27.0948 75.955Z" fill="#DB2390"/>
<path d="M41.5352 75.9218C44.7602 75.9218 44.7602 70.9218 41.5352 70.9218C38.3102 70.9218 38.3102 75.9218 41.5352 75.9218Z" fill="#DB2390"/>
<path d="M42.1778 67.3973C45.4028 67.3973 45.4028 62.3973 42.1778 62.3973C38.9528 62.3973 38.9528 67.3973 42.1778 67.3973Z" fill="#DB2390"/>
<path d="M34.5861 4.84015C36.5771 2.29215 40.7571 3.06315 43.3021 4.01015C43.7701 4.18415 44.0291 3.47215 43.5691 3.28715C40.8121 2.17915 36.2211 1.70915 34.4361 4.73515C34.3751 4.83615 34.5131 4.93415 34.5861 4.84015Z" fill="#000014"/>
<path d="M46.7745 4.56626C48.6285 4.83826 50.3215 4.68826 52.1465 5.32526C53.8895 5.93426 54.5385 7.31626 55.7715 8.48826C55.9125 8.62326 56.2055 8.54126 56.1505 8.31026C55.1925 4.32426 50.0335 3.79026 46.7615 4.25326C46.5795 4.27926 46.6035 4.54126 46.7745 4.56626Z" fill="#000014"/>
<path d="M47.3222 2.48864C46.7582 1.85964 46.1802 1.22764 45.7142 0.520638C45.6742 0.460638 45.5702 0.527637 45.6072 0.588637C46.0562 1.32364 46.6472 1.93764 47.2382 2.55964C47.2872 2.61064 47.3692 2.54164 47.3222 2.48864Z" fill="#000014"/>
<path d="M33.5342 2.56131C34.4722 2.58631 35.1112 3.57731 35.8932 3.98931C36.1622 4.13031 36.4432 3.76531 36.1732 3.59031C35.2922 3.02131 34.7192 1.98631 33.5232 2.29631C33.3862 2.33231 33.3752 2.55731 33.5342 2.56131Z" fill="#000014"/>
<path d="M46.6017 3.50912C47.4047 3.68312 48.2367 3.53012 49.0377 3.74412C49.4377 3.85112 49.6607 3.23712 49.2597 3.13912C48.3797 2.92512 47.4717 3.03012 46.5887 3.18412C46.3927 3.21712 46.4297 3.47212 46.6017 3.50912Z" fill="#000014"/>
<path d="M21.8788 17.3129C23.0438 13.2629 28.2958 9.47885 32.2568 8.57785C31.7288 7.89185 31.2008 7.20485 30.6728 6.51885C30.1358 7.35685 29.5408 8.15285 28.8888 8.90485C28.1028 9.86185 28.8048 11.8149 30.2528 11.2479C32.9498 10.1909 34.2958 7.43185 36.9008 6.27385C36.1968 5.87085 35.4938 5.46685 34.7908 5.06385C34.5878 6.74485 33.7728 8.19585 33.5508 9.87785C33.4258 10.8309 34.5348 11.4099 35.3258 11.2299C38.8068 10.4389 44.5498 11.7609 45.1558 6.40785C45.6788 1.78485 40.4478 2.64885 37.2898 2.64585C35.7178 2.64485 35.3648 5.01585 36.9168 5.39985C38.1928 5.71585 38.9088 5.82285 40.2278 5.98385C39.8978 5.18685 39.5668 4.38885 39.2358 3.59085C37.8328 4.96985 37.0098 6.45585 36.1048 8.20385C35.4058 9.55385 37.2378 11.1789 38.3068 9.90285C39.5638 8.40185 40.5208 6.60185 42.0698 5.39585C41.2888 5.18885 40.5078 4.98285 39.7278 4.77685C39.8758 5.66785 40.1738 6.50485 40.3158 7.38785C40.4058 7.95085 41.1038 8.47485 41.6678 8.41685C44.2008 8.15785 45.8778 5.73985 48.4448 5.38685C47.9168 5.17185 47.3898 4.95785 46.8608 4.74285C47.3498 5.51485 45.9168 8.52385 45.5868 8.98485C46.4418 9.34485 47.2958 9.70585 48.1498 10.0649C48.2928 8.93385 48.6438 7.86285 49.2008 6.85285C48.3468 6.49285 47.4918 6.13285 46.6388 5.77285C45.9398 7.54785 44.5488 9.65385 45.6288 11.4959C46.5708 13.1019 50.4088 13.5479 51.9898 14.0839C56.7008 15.6789 58.2178 9.01285 54.3328 6.83985C53.3368 6.28285 52.3268 7.00885 52.2228 8.04985C52.1898 9.03185 51.9968 9.98385 51.6448 10.9079L54.2578 11.6149C54.3268 10.1299 54.4738 8.75785 55.0158 7.36685C55.5918 5.88985 53.0748 4.83085 52.4528 6.28685C51.7768 7.86885 51.1678 9.43685 50.1668 10.8509L52.7798 11.5579C52.8238 9.28685 54.0168 6.77885 52.6108 4.72085C52.0898 3.95885 50.6348 3.66685 50.1898 4.72085C49.6878 5.91185 49.6438 7.65985 48.7698 8.60285C49.5028 8.69685 50.2368 8.79185 50.9718 8.88685C51.7228 8.20885 52.3728 8.26385 52.9228 9.05085C54.7618 10.4539 54.3278 11.9709 54.1248 13.6179C53.9468 15.0649 56.0818 15.4419 56.7378 14.3259C57.6918 12.7009 58.8408 11.7969 59.5628 10.0759C58.7808 10.2829 58.0008 10.4889 57.2198 10.6949C58.8618 12.3189 57.5838 14.5769 56.5178 16.1659C55.8948 17.0939 56.7328 18.2309 57.7288 18.2749C58.5328 18.3109 58.2028 23.0559 60.9868 21.4249C64.0538 19.6279 63.0348 14.9779 61.3978 12.6639C60.3378 11.1669 58.2588 12.4319 58.9758 14.0789C60.2638 17.0349 62.0748 19.0539 58.8348 21.8799C59.4958 22.5409 60.1558 23.2019 60.8168 23.8619C61.3378 23.4619 61.9368 23.2819 62.6108 23.3189C62.2078 22.6159 61.8048 21.9129 61.3998 21.2099C60.7208 22.6289 60.3118 24.2799 58.9798 25.2479C57.6698 26.1989 58.4658 28.0799 60.0608 27.8099C62.7308 27.3579 64.4708 25.6079 64.6678 22.8139C64.7948 21.0269 64.5958 19.3079 64.3258 17.5439C64.1168 16.1709 63.6528 14.8689 63.1678 13.5759C63.1198 13.4639 63.0728 13.3529 63.0258 13.2409C61.5328 11.2249 62.1088 10.6109 64.7568 11.3979C65.6168 14.8189 67.3208 15.5739 70.6588 14.1659C72.2748 13.4829 76.7738 10.7259 76.5838 16.5569C76.5428 17.7979 76.6298 18.2259 76.8998 19.4199C77.2598 21.0219 78.7868 22.0249 80.0918 22.7619C80.4518 21.9079 80.8128 21.0539 81.1728 20.1989C80.7798 19.6359 80.3878 19.0729 79.9948 18.5099C79.9268 17.5729 78.8088 16.6019 77.8848 17.2989C76.9558 17.9999 76.1158 18.4999 75.7878 19.6939C75.6538 20.1799 75.6688 20.7669 75.7758 21.2569C76.4708 24.4219 73.7668 26.4959 71.0008 26.6779C64.7508 27.0899 64.5868 13.3929 63.7758 9.70385C62.8748 9.95185 61.9748 10.1999 61.0728 10.4489C62.5958 15.4719 64.4228 20.3449 64.6558 25.6429C64.7358 27.4419 67.5258 27.4539 67.4608 25.6429C67.3168 21.6799 67.2958 17.5509 67.7088 13.6039L65.0958 14.3119C67.4388 18.4519 66.5088 23.7509 69.2358 27.7849C70.0088 28.9259 71.8118 28.5209 71.8498 27.0769C71.9378 23.6559 70.7668 20.3399 70.7558 16.8899C69.8378 17.0139 68.9198 17.1379 68.0018 17.2619C69.1558 20.2119 70.0988 23.1899 71.6288 25.9739C72.4258 27.4229 74.5098 26.3999 74.1918 24.8939C73.4088 21.1869 72.3018 17.0759 73.5998 13.3569C72.7458 13.4689 71.8918 13.5809 71.0368 13.6919C72.6278 16.3659 73.3828 20.1789 73.4138 23.2259C73.4338 25.0339 76.2068 25.0349 76.2188 23.2259C76.2338 20.5799 75.0788 16.2919 76.2038 13.7959H73.7818C75.5628 16.6169 74.8538 23.4639 71.8898 24.8919C70.2618 25.6769 71.6848 28.0939 73.3058 27.3129C75.1948 26.4019 77.1148 24.5809 77.2718 22.3589C77.4768 19.4609 77.8278 14.9569 76.2038 12.3809C75.6928 11.5719 74.2388 11.3689 73.7818 12.3809C72.3138 15.6409 73.4358 19.7489 73.4138 23.2259H76.2188C76.1808 19.5999 75.3338 15.4289 73.4588 12.2769C72.8078 11.1839 71.2878 11.4899 70.8968 12.6119C69.4388 16.7869 70.6068 21.4649 71.4878 25.6389C72.3418 25.2789 73.1958 24.9179 74.0508 24.5589C72.6398 21.9929 71.7688 19.2319 70.7048 16.5169C70.1538 15.1099 67.9458 15.2099 67.9508 16.8899C67.9618 20.3289 69.1338 23.6709 69.0448 27.0769L71.6578 26.3699C68.9598 22.3799 69.8598 17.0369 67.5178 12.8959C66.7748 11.5839 65.0408 12.3009 64.9038 13.6039C64.4918 17.5509 64.5138 21.6799 64.6558 25.6429H67.4608C67.2148 20.0849 65.3768 14.9839 63.7758 9.70385C63.2498 7.96685 60.6858 8.68685 61.0728 10.4489C62.4748 16.8269 61.9168 26.7169 69.4518 29.2839C71.6168 30.0219 74.9498 29.1259 76.6828 27.7119C77.9108 26.7099 78.5058 25.8799 78.8908 24.3379C79.2178 23.0299 77.9918 20.7079 79.3008 19.7199C78.5978 19.3169 77.8938 18.9129 77.1908 18.5099C77.3598 20.8329 78.0118 22.4379 80.4268 22.9029C81.9328 23.1929 82.9578 21.1599 81.5078 20.3409C78.8138 18.8189 79.8518 14.5579 78.3208 12.2489C77.2738 10.6679 75.2048 10.4299 73.5008 10.3479C72.5078 10.2999 67.9448 12.5239 67.6508 11.6669C67.1498 10.2079 67.1288 8.25685 65.4608 7.45385C63.5788 6.54785 58.9368 6.22685 59.1228 9.62985C59.3068 12.9829 65.6078 24.0419 59.3148 25.1059C59.6748 25.9599 60.0348 26.8139 60.3958 27.6679C62.2318 26.3339 62.8578 24.6379 63.8218 22.6249C64.2408 21.7499 63.7578 20.4269 62.6108 20.5159C61.1778 20.6259 59.8998 20.8809 58.8348 21.8799C57.5048 23.1259 59.4678 25.0399 60.8168 23.8619C65.4828 19.7929 63.3798 17.2159 61.3978 12.6639C60.5898 13.1349 59.7828 13.6069 58.9758 14.0789C59.3618 14.6239 61.3618 20.9829 60.5628 18.2059C60.3888 17.5999 60.1738 17.1209 59.8968 16.5599C59.4678 15.6939 58.5778 15.5079 57.7288 15.4709C58.1318 16.1739 58.5348 16.8769 58.9398 17.5809C60.8518 14.7299 62.0088 11.4879 59.2018 8.71185C58.3798 7.89785 57.2538 8.38985 56.8588 9.33085C56.2968 10.6709 55.0548 11.6539 54.3168 12.9109L56.9298 13.6179C57.4978 9.00085 55.3228 6.44085 51.0088 4.76885C47.4858 3.40285 47.5948 8.54285 48.5498 10.3019C48.9718 11.0779 50.1488 11.2369 50.7518 10.5849C51.9818 9.25885 51.9238 7.76485 52.6108 6.13585H50.1898C51.0258 7.36085 50.0048 10.0819 49.9758 11.5579C49.9458 13.0499 51.8268 13.3409 52.5888 12.2659C53.6248 10.8009 54.1698 9.35185 54.8748 7.70185C54.0208 7.34185 53.1658 6.98085 52.3128 6.62185C51.6678 8.27285 51.5358 9.85385 51.4528 11.6149C51.3908 12.9619 53.4718 13.5959 54.0668 12.3229C54.7708 10.8129 54.8578 9.73685 55.0268 8.04985C54.3238 8.45385 53.6208 8.85685 52.9168 9.26085C52.5038 11.0149 51.6878 11.4559 50.4688 10.5819C49.9298 10.4429 49.3918 10.2999 48.8548 10.1509C47.7708 9.85685 49.2188 6.83285 49.3418 6.51785C49.9228 5.04185 47.4188 3.98985 46.7788 5.43785C46.2098 6.72885 45.7168 7.92485 45.4458 9.31985C45.1358 10.9169 47.0778 11.7029 48.0088 10.3999C49.2598 8.64685 50.5328 5.30385 49.2828 3.32785C48.9108 2.73985 48.3528 2.59285 47.6988 2.68285C45.4808 2.98785 43.6838 5.40685 41.6678 5.61285C42.1178 5.95585 42.5688 6.29885 43.0198 6.64285C42.8778 5.75985 42.5788 4.92285 42.4308 4.03185C42.2368 2.86885 40.8178 2.84385 40.0878 3.41285C38.5168 4.63585 37.5938 6.40385 36.3238 7.91985C37.0578 8.48685 37.7918 9.05285 38.5258 9.61885C39.3258 8.07385 39.9348 6.83685 41.2188 5.57385C42.1758 4.63285 41.3688 3.32085 40.2278 3.18085C39.3728 3.01885 38.5178 2.85785 37.6628 2.69585C37.5378 3.61385 37.4138 4.53185 37.2898 5.44985L38.7698 5.45185C41.2048 4.98885 41.0118 5.90285 38.1908 8.19185C36.2558 8.13785 36.5158 8.08685 34.5798 8.52585L36.3558 9.87785C36.5758 8.19785 37.3908 6.76285 37.5958 5.06385C37.7368 3.88885 36.3278 3.47885 35.4848 3.85385C33.1018 4.91285 31.9218 7.59785 29.5068 8.54385C29.9618 9.32485 30.4168 10.1059 30.8708 10.8869C31.6598 9.92585 32.4158 8.97485 33.0948 7.93385C33.8028 6.84585 32.6438 5.61685 31.5108 5.87385C26.6238 6.98585 20.6108 11.5729 19.1758 16.5679C18.6748 18.3099 21.3808 19.0479 21.8788 17.3129Z" fill="#292B37"/>
<path d="M27.0167 8.11555C26.7267 9.25655 27.5427 10.7276 28.5867 11.2246C29.0367 11.4386 29.4487 11.3166 29.7387 10.9236C30.2807 10.1876 30.3517 8.72255 31.2377 8.33355L30.0857 8.03155C30.4627 8.91155 30.8187 10.1796 32.0377 9.93555C33.1007 9.72255 32.6497 8.10155 31.5897 8.31355C32.0497 8.52555 32.1837 8.50655 31.9927 8.25455C31.9407 8.15755 31.8947 8.05655 31.8527 7.95455C31.7457 7.69755 31.6487 7.43755 31.5387 7.18155C31.3437 6.72755 30.7647 6.71455 30.3877 6.88055C29.0527 7.46855 29.0547 9.02955 28.2857 10.0736L29.4367 9.77155C29.0897 9.60755 28.5317 8.98755 28.6397 8.56255C28.9077 7.51155 27.2857 7.06455 27.0167 8.11555Z" fill="#70727B"/>
<path d="M36.1561 6.15165C36.1191 7.17965 35.8941 10.5286 37.9181 9.74365C39.1951 9.24865 40.0801 7.47265 40.5591 6.26865C40.1471 6.43665 39.7351 6.60365 39.3231 6.77165C39.1951 6.68065 39.2781 7.00565 39.2731 7.14265C39.2641 7.42365 39.2251 7.70365 39.2131 7.98565C39.1881 8.52865 39.3821 9.04665 39.8621 9.32865C40.1891 9.51965 40.6141 9.46365 40.8821 9.19665C41.4131 8.66765 41.7271 8.07165 41.9971 7.37865C42.3891 6.36565 40.7621 5.93165 40.3741 6.93165C40.2111 7.35265 40.0121 7.68765 39.6921 8.00665L40.7121 7.87565C40.8641 8.19165 40.9251 8.22765 40.8941 7.98565C40.8981 7.87765 40.9041 7.77065 40.9141 7.66265C40.9361 7.37465 40.9641 7.09065 40.9581 6.80165C40.9451 6.17165 40.6811 5.67765 40.1731 5.31865C39.6871 4.97565 39.1201 5.35965 38.9361 5.82165C39.0081 5.64265 38.8411 6.01565 38.8251 6.04765C38.7171 6.26365 38.5971 6.47465 38.4761 6.68365C38.2401 7.09465 37.9801 7.49865 37.6721 7.85865C37.5801 7.96465 37.4751 8.07965 37.3601 8.15765C37.9091 7.78665 37.9111 8.77265 37.8421 8.11065C37.7741 7.46365 37.8151 6.79965 37.8381 6.15165C37.8771 5.06665 36.1941 5.06965 36.1561 6.15165Z" fill="#70727B"/>
<path d="M48.8575 11.6488C49.5295 11.7438 50.0055 11.5368 50.4725 11.0468C50.9335 10.5628 51.1755 9.71776 51.7045 9.32176L50.4385 8.59576C50.3955 9.67776 50.0665 12.0348 51.6255 12.2548C52.9765 12.4458 54.0255 10.9198 54.7145 9.96876C55.3525 9.08876 53.8925 8.25076 53.2615 9.11976C52.8715 9.65776 52.4315 10.2358 51.8575 10.5868C52.1245 10.8618 52.2145 10.8828 52.1305 10.6478C52.0995 10.4148 52.1005 10.1758 52.0945 9.94176C52.0845 9.49376 52.1035 9.04376 52.1205 8.59576C52.1435 8.00377 51.3695 7.48376 50.8545 7.86876C50.4425 8.17776 50.1625 8.55476 49.8795 8.98276C49.7205 9.22576 49.5665 9.47076 49.4015 9.70876C49.2525 9.92476 48.9875 9.98176 49.3045 10.0268C48.2445 9.87776 47.7875 11.4978 48.8575 11.6488Z" fill="#70727B"/>
<path d="M58.3291 18.5808C59.0331 18.6088 59.7361 18.6348 60.4401 18.6608C61.5251 18.7018 61.5211 17.0188 60.4401 16.9778C59.7361 16.9518 59.0331 16.9268 58.3291 16.8978C57.2441 16.8538 57.2481 18.5368 58.3291 18.5808Z" fill="#70727B"/>
<path d="M21.0888 24.5433C21.4478 30.0063 22.2618 34.4623 26.2588 38.4493C29.5748 41.7573 33.8918 43.3623 38.5068 43.5773C47.9078 44.0143 57.3298 37.9363 58.0158 28.0233C58.0548 27.4533 57.1718 27.3703 57.1328 27.9393C56.4448 37.8793 47.0308 43.0973 37.8798 42.6993C33.4228 42.5053 29.4648 40.5283 26.3078 37.4403C24.7348 35.9023 23.6088 34.0073 22.8118 31.9743C21.8888 29.6213 22.0748 26.9123 21.5048 24.4703C21.4418 24.2003 21.0708 24.2753 21.0888 24.5433Z" fill="black"/>
<path d="M57.1797 31.5839C57.2197 32.4739 57.9627 32.9759 58.8097 32.9549C59.7827 32.9299 60.4207 32.1649 60.7017 31.3069C61.2487 29.6389 60.3747 27.1079 58.4217 26.9359C57.9647 26.8959 57.8987 27.6029 58.3557 27.6449C59.6357 27.7599 60.1377 29.2319 60.1387 30.3399C60.1397 30.9159 59.9587 31.5299 59.5407 31.9399C58.8447 32.6239 57.9897 32.1919 57.6437 31.4359C57.5187 31.1639 57.1687 31.3259 57.1797 31.5839Z" fill="black"/>
<path d="M57.9425 29.7025C58.3555 29.9535 58.7365 30.2195 59.1275 30.5035C59.3575 30.6715 59.6025 30.3645 59.4475 30.1515C59.1015 29.6795 58.6185 29.4665 58.0415 29.4325C57.9015 29.4255 57.8085 29.6215 57.9425 29.7025Z" fill="black"/>
<path d="M39.0352 28.1093C39.2492 27.8463 39.7122 27.6363 40.0342 27.5963C39.9492 27.5523 39.8632 27.5083 39.7772 27.4633C39.9922 27.8313 40.1622 28.2033 40.2242 28.6283C40.2902 29.0743 41.0192 28.9363 40.9062 28.5073C40.7682 27.9843 40.5292 27.6083 40.1762 27.2073C40.0982 27.1193 39.9962 27.1103 39.8902 27.1453C39.6542 27.2243 39.4582 27.3303 39.2772 27.5013C39.1072 27.6613 39.0782 27.8673 38.9572 28.0543C38.9242 28.1073 38.9962 28.1563 39.0352 28.1093Z" fill="black"/>
<path d="M48.9735 33.9345C49.4805 34.2945 50.1725 34.4895 50.7915 34.4505C52.1165 34.3685 53.2275 33.4055 53.2275 32.0155C53.2275 30.7505 52.1185 29.4975 50.7915 29.5805C50.8715 29.5755 51.7335 29.9425 51.4325 29.7295C50.3475 28.9595 48.7265 29.5335 48.1005 30.6025C47.3845 31.8245 47.8935 33.1675 48.9735 33.9345Z" fill="#F16776"/>
<path d="M24.4816 30.8808C24.9906 31.2378 25.6776 31.4328 26.2966 31.3948C27.6216 31.3128 28.7326 30.3488 28.7326 28.9598C28.7326 27.6938 27.6236 26.4428 26.2966 26.5248C26.3766 26.5198 27.2386 26.8848 26.9406 26.6758C25.8516 25.9108 24.2366 26.4758 23.6086 27.5488C22.8946 28.7668 23.3986 30.1198 24.4816 30.8808Z" fill="#F16776"/>
<path d="M38.7228 34.3743C40.2888 36.6763 43.9198 35.7883 44.4958 33.1913C44.5868 32.7843 43.8828 32.6243 43.7838 33.0283C43.1938 35.4043 40.6358 35.3153 38.9898 34.0813C38.7948 33.9363 38.6028 34.1973 38.7228 34.3743Z" fill="#EE313E"/>
<path d="M36.3428 20.3773C35.6028 29.3843 22.4038 28.9223 22.3398 19.8783C22.3128 15.9383 25.9008 13.1503 29.5918 13.1253C33.5318 13.0983 36.3198 16.6853 36.3428 20.3773C36.3448 20.7353 36.9038 20.7913 36.9018 20.4303C36.8738 16.1713 33.9008 12.9193 29.6448 12.5663C25.4048 12.2153 22.1108 15.8553 21.7808 19.8253C21.4298 24.0663 25.0708 27.3583 29.0418 27.6893C33.2798 28.0423 36.5748 24.3993 36.9018 20.4303C36.9308 20.0693 36.3718 20.0173 36.3428 20.3773Z" fill="black"/>
<path d="M56.2821 22.138C55.5371 31.142 42.3441 30.683 42.2791 21.638C42.2511 17.698 45.8391 14.91 49.5311 14.887C53.4711 14.861 56.2571 18.445 56.2821 22.138C56.2851 22.496 56.8441 22.552 56.8411 22.191C56.8111 17.932 53.8411 14.68 49.5841 14.328C45.3451 13.977 42.0481 17.612 41.7201 21.585C41.3721 25.825 45.0061 29.12 48.9781 29.45C53.2161 29.801 56.5121 26.159 56.8411 22.191C56.8711 21.83 56.3121 21.778 56.2821 22.138Z" fill="black"/>
<path d="M36.5909 20.8993C38.2719 21.3863 40.1509 21.3743 41.8849 21.5453C42.4249 21.5993 42.4879 20.7183 41.9629 20.7213C40.2129 20.7293 38.3539 20.2053 36.6229 20.5373C36.4489 20.5703 36.4039 20.8453 36.5909 20.8993Z" fill="black"/>
<path d="M48.0518 22.0199C48.5088 21.4339 49.1998 21.0649 49.9508 21.2669C50.9748 21.5409 50.9438 22.9839 49.8898 23.1979C49.0268 23.3739 48.6768 22.7869 48.9018 22.0049C49.0658 21.4359 49.8318 20.7029 50.1288 21.6789C50.2128 21.9539 50.1138 22.2199 49.9538 22.4429C49.8748 22.5529 49.6118 22.7939 49.5198 22.6289C49.4008 22.4139 49.5588 21.6649 49.7698 22.0449C49.8188 22.1329 49.7028 22.3689 49.6978 22.0849C49.5488 22.2079 49.4008 22.3319 49.2508 22.4549C49.3218 22.4579 49.3918 22.4599 49.4618 22.4629C49.9898 22.4829 50.0678 21.6679 49.5398 21.6469L49.3288 21.6389C49.1258 21.6309 48.8778 21.7759 48.8818 22.0079C48.8898 22.4439 48.9998 22.7969 49.4158 22.9909C49.7548 23.1489 50.2398 22.9389 50.4438 22.6529C50.9978 21.8699 50.0818 20.7069 49.2058 21.2289C48.4288 21.6929 48.4138 23.1149 49.3018 23.4639C50.1658 23.8039 50.8928 22.7139 50.9698 22.0029C51.0528 21.2309 50.3928 20.3629 49.5818 20.3789C48.9138 20.3929 48.4678 20.9409 48.2178 21.5069C47.9678 22.0739 47.9178 22.8309 48.2498 23.3739C48.6458 24.0219 49.5648 24.1919 50.2428 23.9079C51.5008 23.3809 51.6658 21.7369 50.4588 21.0359C49.5548 20.5099 48.3768 21.0969 47.9868 21.9859C47.9688 22.0259 48.0278 22.0519 48.0518 22.0199Z" fill="black"/>
<path d="M27.5928 20.3759C28.0488 19.7899 28.7388 19.4209 29.4888 19.6229C30.5078 19.8969 30.4858 21.3419 29.4308 21.5549C28.5428 21.7329 28.2098 21.1139 28.4508 20.3259C28.6238 19.7579 29.3838 19.0849 29.6698 20.0349C29.7528 20.3099 29.6528 20.5759 29.4928 20.7979C29.4238 20.8949 29.1528 21.1559 29.0588 20.9859C28.9408 20.7719 29.0978 20.0219 29.3088 20.3999C29.3568 20.4869 29.2398 20.7289 29.2348 20.4419C29.0848 20.5649 28.9368 20.6889 28.7868 20.8119L28.9978 20.8199C29.5258 20.8429 29.6038 20.0279 29.0758 20.0049C29.0058 20.0009 28.9358 19.9989 28.8648 19.9949C28.6618 19.9859 28.4138 20.1329 28.4178 20.3649C28.4258 20.8009 28.5348 21.1539 28.9518 21.3489C29.2918 21.5059 29.7768 21.2949 29.9798 21.0099C30.5368 20.2259 29.6228 19.0629 28.7448 19.5859C27.9688 20.0499 27.9518 21.4719 28.8408 21.8209C29.7038 22.1599 30.4318 21.0699 30.5098 20.3589C30.5948 19.5849 29.9398 18.7299 29.1328 18.7339C28.4708 18.7379 28.0248 19.2779 27.7698 19.8329C27.5108 20.3949 27.4598 21.1339 27.7628 21.6889C28.1448 22.3889 28.9798 22.4689 29.6828 22.2959C31.0698 21.9539 31.1478 20.1999 30.0958 19.4509C29.2008 18.8129 27.9268 19.4309 27.5278 20.3419C27.5098 20.3819 27.5688 20.4079 27.5928 20.3759Z" fill="black"/>
<path d="M19.96 22.1747C19.36 21.2107 20.023 19.1227 20.139 18.0407C20.348 16.0907 21.491 13.6997 22.591 12.0977C24.902 8.73167 28.656 6.98767 32.425 5.83567C32.769 5.73067 32.698 5.19967 32.325 5.26967C28.071 6.07467 24.155 8.85367 21.744 12.4057C20.533 14.1907 19.773 16.6577 19.587 18.7947C19.494 19.8567 19.127 21.3307 19.857 22.2407C19.9 22.2937 19.997 22.2347 19.96 22.1747Z" fill="#000014"/>
<path d="M26.4618 12.1815C28.2978 11.4635 30.3238 12.2825 32.0758 11.2905C33.3108 10.5925 33.5348 8.97847 33.6738 7.72247C33.6868 7.61147 33.5248 7.54347 33.4638 7.64547C32.5298 9.20247 32.6878 10.8995 30.4038 11.2565C28.9628 11.4825 27.6888 11.1645 26.3758 11.9995C26.2678 12.0685 26.3388 12.2305 26.4618 12.1815Z" fill="#000014"/>
<path d="M28.5898 10.3847C29.6498 10.3587 30.3838 9.40467 31.4158 9.25367C31.5838 9.22967 31.5658 8.98267 31.4038 8.96367C30.3098 8.82867 29.5118 9.78867 28.5518 10.1687C28.4508 10.2087 28.4768 10.3877 28.5898 10.3847Z" fill="#000014"/>
<path d="M29.9377 8.15906C30.6397 8.25806 31.3317 8.31106 32.0407 8.33906C32.3777 8.35206 32.4277 7.82706 32.0887 7.81606C31.3627 7.79106 30.6507 7.78906 29.9247 7.83806C29.7347 7.85006 29.7657 8.13506 29.9377 8.15906Z" fill="#000014"/>
<path d="M34.378 6.27967C34.759 7.96567 33.933 9.66167 33.323 11.1947C33.234 11.4187 33.446 11.6887 33.689 11.6327C35.051 11.3167 36.896 12.0027 38.322 12.0357C39.492 12.0617 40.617 11.9747 41.725 11.5927C43.508 10.9787 44.505 8.52567 44.403 6.80167C44.389 6.55867 43.988 6.52767 43.927 6.75867C43.285 9.18667 42.517 11.0367 39.775 11.3007C38.504 11.4227 37.134 11.3717 35.881 11.1127C35.068 10.9457 34.385 10.7847 33.575 10.9847C33.696 11.1307 33.818 11.2767 33.94 11.4227C34.546 9.83367 35.589 7.80467 34.524 6.21167C34.477 6.14167 34.36 6.20167 34.378 6.27967Z" fill="#000014"/>
<path d="M36.3848 8.79814C37.3088 8.03214 37.6238 6.83114 38.4578 5.98714C38.3078 5.93314 38.1578 5.87914 38.0078 5.82414C38.3148 6.91814 37.9308 8.08314 38.4838 9.11414C38.5868 9.30714 38.8398 9.37814 39.0148 9.22914C39.9778 8.40514 40.7388 7.73714 41.3648 6.62914C41.4848 6.41714 41.2128 6.22514 41.0568 6.41314C40.3458 7.26414 39.3748 7.93614 38.5718 8.70614C38.7478 8.74414 38.9258 8.78214 39.1028 8.82014C38.5538 7.89414 38.8458 6.73914 38.5508 5.72914C38.4988 5.55114 38.2618 5.40014 38.1008 5.56614C37.2558 6.44114 36.8698 7.61014 36.1188 8.55514C35.9878 8.72014 36.2298 8.92714 36.3848 8.79814Z" fill="#000014"/>
<path d="M47.3808 8.16434C46.7358 9.10334 45.5268 10.5593 45.5208 11.7383C45.5198 11.8873 45.5898 12.0593 45.7498 12.1033C47.0288 12.4513 48.4488 13.2093 49.6928 13.7053C50.7008 14.1063 51.7818 14.8133 52.9138 14.7623C54.6368 14.6833 56.7368 13.2163 56.7098 11.3513C56.7048 11.0663 56.3508 10.9773 56.2268 11.2403C55.3918 13.0153 53.9298 14.3563 51.8278 13.7513C50.7698 13.4473 49.7658 12.8583 48.7148 12.5053C48.0588 12.2843 45.9548 11.8813 46.5878 10.8093C47.0728 9.98634 47.3258 9.20734 47.6108 8.28534C47.6538 8.14534 47.4678 8.03734 47.3808 8.16434Z" fill="#000014"/>
<path d="M50.4588 9.35874C50.1058 10.1087 49.7268 10.8377 49.4508 11.6207C49.4098 11.7367 49.4648 11.8997 49.5948 11.9337C51.5358 12.4397 52.5878 11.0827 53.9698 9.98074C53.8018 9.89374 53.6338 9.80574 53.4658 9.71774C53.4728 9.98774 53.4818 10.1527 53.5178 10.4207C53.5538 10.7007 53.9268 10.6397 53.9778 10.4017C54.0318 10.1967 54.0648 9.98774 54.0768 9.77574C54.1058 9.49974 53.7788 9.34974 53.5728 9.51274C52.3688 10.4647 51.4108 11.7737 49.7008 11.4637C49.7698 11.5717 49.8378 11.6807 49.9058 11.7897C50.1358 10.9947 50.5088 10.2567 50.7638 9.47074C50.8288 9.26974 50.5478 9.17174 50.4588 9.35874Z" fill="#000014"/>
<path d="M57.5712 12.6039C57.1812 14.0469 56.7152 15.7769 55.2692 16.4959C54.9892 16.6359 55.0602 17.0679 55.3762 17.0999C57.4752 17.3089 57.8652 19.9909 57.9012 21.6279C57.9102 22.0529 58.0292 22.6269 58.4912 22.7989C60.0422 23.3749 62.2742 21.9779 62.8072 20.5619C62.9562 20.1669 62.3842 19.8569 62.1492 20.2169C61.8452 20.6829 58.7202 23.3199 58.6572 21.3249C58.6322 20.5199 58.4682 19.7909 58.2322 19.0179C57.7792 17.5419 56.9432 16.7159 55.4362 16.4669C55.4712 16.6679 55.5072 16.8689 55.5432 17.0699C57.1942 16.4579 57.9362 14.2469 57.7862 12.6229C57.7752 12.5149 57.5992 12.4979 57.5712 12.6039Z" fill="#000014"/>
<path d="M58.5799 16.621C58.4059 17.289 58.0629 17.847 57.8059 18.48C57.6679 18.818 57.6419 19.258 57.8619 19.566C58.0879 19.882 58.7109 19.816 59.0329 19.829C59.6899 19.853 60.3169 19.813 60.8349 19.367C61.1839 19.064 60.7379 18.545 60.3719 18.822C60.0019 19.101 59.5469 19.1 59.1029 19.091C58.9079 19.087 58.7139 19.079 58.5189 19.066C58.2869 19.052 58.4389 19.124 58.4309 19.034C58.3879 18.622 58.6879 18.153 58.8409 17.783C58.9919 17.414 59.0559 17.057 59.0179 16.661C58.9979 16.44 58.6369 16.404 58.5799 16.621Z" fill="#000014"/>
<path d="M60.7442 23.3046C59.8402 23.6656 59.2282 24.4596 58.3202 24.8276C57.9222 24.9896 58.1712 25.5036 58.5312 25.4876C59.2492 25.4556 59.4842 26.6676 59.9722 27.0906C60.4142 27.4736 61.1072 27.3566 61.6192 27.2476C62.2172 27.1206 62.9722 26.9226 63.4622 26.5406C63.7902 26.2846 63.9332 25.7636 63.4392 25.5886C63.1072 25.4716 62.8002 25.8126 62.9432 26.1316C63.0602 25.8236 63.0412 25.7386 62.8872 25.8756C62.8002 25.9266 62.7112 25.9716 62.6192 26.0146C62.3982 26.1236 62.1632 26.2066 61.9322 26.2886C61.4242 26.4686 60.6812 26.7436 60.2542 26.2896C59.5922 25.5846 59.5892 24.7366 58.4102 24.7996C58.4802 25.0196 58.5512 25.2396 58.6212 25.4596C59.5652 25.0666 60.1852 24.2886 61.0272 23.7426C61.2902 23.5726 61.0062 23.2006 60.7442 23.3046Z" fill="#000014"/>
<path d="M61.62 25.9241C61.933 25.6931 62.205 25.5081 62.445 25.1951C62.569 25.0321 62.37 24.8041 62.19 24.8941C61.834 25.0731 61.502 25.1481 61.2 25.4301C60.893 25.7161 61.284 26.1731 61.62 25.9241Z" fill="#000014"/>
<path d="M58.0782 9.36703C58.8202 7.56103 61.9812 7.92703 63.4452 8.03103C66.5862 8.25403 68.2672 9.85103 68.1962 13.015C68.1872 13.383 68.6372 13.711 68.9472 13.408C70.7272 11.671 72.8392 10.705 75.3562 11.017C76.7032 11.185 77.7942 12.032 78.6702 12.999C80.4002 14.913 80.3292 16.995 79.2642 19.193C78.1772 21.434 80.7022 23.38 82.5692 21.73C82.3292 21.604 82.0882 21.479 81.8482 21.353C79.7892 22.972 78.4742 22.925 77.9052 21.21C77.6482 20.671 77.4802 20.075 77.2542 19.521C77.1102 19.169 76.5512 19.199 76.4372 19.557C76.1952 20.32 75.9202 21.167 76.2682 21.957C76.4712 22.415 76.6572 22.812 76.9602 23.218C78.8032 25.685 76.9842 27.895 74.7132 28.5C71.1502 29.449 66.4062 28.642 64.5772 25.1C62.9552 21.957 64.6092 18.053 63.0212 14.856C61.9922 12.783 59.8082 11.438 57.5412 11.336C56.9552 11.31 56.8682 12.215 57.4552 12.243C63.8222 12.552 62.6442 19.535 63.3572 23.909C63.8522 26.95 66.3512 28.725 69.1932 29.492C71.8332 30.204 75.1532 29.694 77.5022 28.358C81.5622 26.046 76.3822 22.687 77.2692 19.865C76.9972 19.877 76.7242 19.889 76.4532 19.902C77.0552 21.365 77.6332 23.602 79.5702 23.802C81.2662 23.976 82.5942 23.222 82.7232 21.436C82.7502 21.056 82.3002 20.805 82.0012 21.06C80.5362 20.436 80.0312 19.728 80.4882 18.934C80.6492 18.642 80.7642 18.336 80.8312 18.015C81.0882 16.794 81.0402 15.9 80.6892 14.703C80.1962 13.018 78.8222 11.601 77.3442 10.743C74.3372 8.99903 70.6152 10.481 68.3552 12.709C68.6052 12.84 68.8562 12.971 69.1062 13.101C69.1652 9.70803 67.6772 7.77903 64.2702 7.23903C62.2692 6.92203 58.3392 6.73303 57.5312 9.16503C57.4132 9.52203 57.9352 9.71403 58.0782 9.36703Z" fill="#000014"/>
<path d="M21.2793 13.9984C21.2203 14.8444 21.7633 15.9614 22.6473 16.1374C22.8013 16.1684 23.0063 16.0404 23.0453 15.8874C23.3323 14.7724 23.4313 13.6164 23.7153 12.4994C23.7893 12.2074 23.3893 11.9344 23.2103 12.2354C22.5783 13.2994 22.5373 14.5294 22.3003 15.7174C22.4393 15.6014 22.5803 15.4854 22.7193 15.3704C22.2233 15.3194 21.7433 14.4314 21.6783 13.9824C21.6463 13.7564 21.2963 13.7714 21.2793 13.9984Z" fill="#000014"/>
<path d="M69.706 16.7221C69.996 17.1241 70.417 17.3961 70.937 17.2541C71.421 17.1221 71.806 16.7101 72.301 16.6501C73.194 16.5421 73.123 17.7251 73.104 18.3331C73.071 19.4181 74.754 19.4151 74.786 18.3331C74.817 17.3271 74.7 16.1281 73.865 15.4451C73.416 15.0761 72.874 14.9441 72.301 14.9681C71.971 14.9811 71.586 15.0451 71.29 15.1961C71.143 15.2721 71.002 15.3571 70.86 15.4451C70.3 15.7921 70.773 15.3371 71.159 15.8721C70.531 15.0011 69.07 15.8401 69.706 16.7221Z" fill="#70727B"/>
<path d="M69.7911 25.6029C71.0061 27.7129 73.4021 26.9219 74.6411 25.3079C74.9201 24.9429 74.6971 24.3669 74.3391 24.1569C73.9051 23.9039 73.4661 24.0959 73.1871 24.4589C72.6911 25.1049 71.7511 25.6349 71.2441 24.7539C70.7031 23.8139 69.2491 24.6619 69.7911 25.6029Z" fill="#70727B"/>
<path d="M61.9793 11.5341C62.4873 11.5671 62.9583 11.8101 63.4273 11.9901C63.8563 12.1551 64.3493 11.8121 64.4623 11.4031C64.5923 10.9281 64.3023 10.5331 63.8753 10.3681C63.2423 10.1241 62.6653 9.89709 61.9793 9.85109C60.8953 9.78009 60.9023 11.4631 61.9793 11.5341Z" fill="#70727B"/>
<path d="M7.05658 48.6346C7.12058 48.6346 7.13058 48.5346 7.06658 48.5346C7.00158 48.5346 6.99258 48.6346 7.05658 48.6346Z" fill="black"/>
<path d="M7.40628 48.9516C11.1743 48.9346 14.8783 48.2186 18.5893 47.6436C22.6453 47.0146 26.8553 46.2156 30.6513 44.6176C31.4273 44.2906 30.8673 43.1466 30.0943 43.4456C23.0223 46.1766 14.8893 47.3776 7.37928 48.2706C6.99728 48.3166 7.01628 48.9536 7.40628 48.9516Z" fill="black"/>
<path d="M34.4658 80.5551C34.5068 80.5551 34.5138 80.4911 34.4718 80.4911C34.4308 80.4911 34.4238 80.5551 34.4658 80.5551Z" fill="black"/>
<path d="M34.1991 80.8748C33.9031 83.1598 33.4741 85.3898 32.8581 87.6118C32.3451 89.4638 31.6311 93.1198 30.0641 94.3598C28.9191 95.2688 27.5321 95.7998 26.1221 96.1118C25.5341 96.2428 20.2471 95.5488 22.5381 94.1318C24.5081 92.9148 27.3231 94.0948 29.4231 94.2708C30.0461 94.3228 30.1291 93.3908 29.5141 93.3098C27.3761 93.0298 22.8691 91.4888 21.1921 93.8908C19.9531 95.6658 22.4081 96.9278 23.9321 97.1228C26.6641 97.4708 30.6311 96.3748 31.7121 93.5968C33.3031 89.5028 34.5641 85.3398 34.6811 80.9208C34.6901 80.6098 34.2391 80.5628 34.1991 80.8748Z" fill="black"/>
<path d="M45.2481 82.723C45.6031 84.476 45.0771 86.216 45.2411 87.97C45.5021 90.737 45.9341 93.545 45.8311 96.326C45.8241 96.521 45.9251 96.742 46.1291 96.8C48.6681 97.53 50.9731 98.377 53.6181 97.691C54.4591 97.473 56.2211 96.629 55.7551 95.427C53.9801 90.844 48.4751 96.024 45.7651 94.773C45.2821 94.551 44.9611 95.265 45.3511 95.563C46.4011 96.367 47.9061 95.658 49.0071 95.292C50.3751 94.838 51.7071 94.416 53.1671 94.529C53.4211 95.215 53.6761 95.9 53.9301 96.586C53.3621 96.814 52.7771 96.966 52.1741 97.044C51.0441 97.241 49.7211 96.86 48.6501 96.577C46.7291 96.068 46.8051 95.446 46.6881 93.648C46.5731 91.871 46.2401 90.107 46.0351 88.339C45.8341 86.596 46.3201 84.249 45.2881 82.704C45.2751 82.685 45.2441 82.702 45.2481 82.723Z" fill="black"/>
<path d="M51.0859 44.6176C53.8769 45.7256 57.0119 46.2676 59.8949 47.1706C62.5759 48.0096 65.4489 48.9286 68.2889 48.7356C68.7709 48.7036 68.7029 47.9686 68.2559 47.9156C64.9059 47.5196 61.8059 46.7626 58.5789 45.7896C56.2539 45.0886 53.5329 44.0746 51.0899 44.5736C51.0669 44.5776 51.0649 44.6086 51.0859 44.6176Z" fill="black"/>
<path d="M69.0146 47.657C69.1226 47.658 69.2346 47.976 69.2296 48.011C69.2126 48.124 69.3386 48.199 69.4356 48.156C70.0056 47.897 70.5866 47.634 71.1686 47.402C71.5136 47.264 71.8706 47.157 72.2336 47.079C72.2786 47.069 72.8026 46.892 72.7926 46.888C72.9486 46.962 73.0636 46.75 72.9716 46.632C72.4946 46.019 71.8236 46.341 71.2026 46.594C70.7706 46.769 70.3396 46.987 69.9516 47.244C69.7886 47.352 69.6266 47.46 69.4976 47.608C69.4296 47.675 69.3726 47.751 69.3276 47.836C69.3066 47.87 69.0356 47.759 69.0496 47.628C69.0606 47.531 68.9216 47.656 69.0146 47.657Z" fill="black"/>
<path d="M69.6602 49.1971C70.2042 49.5481 70.6682 50.1701 71.0862 50.6641C71.2732 50.8851 71.4402 51.1211 71.5862 51.3721C71.7362 51.6291 71.8152 51.7041 72.0772 51.8241C72.1912 51.8771 72.3482 51.8011 72.3852 51.6831C72.4682 51.4131 72.4752 51.2781 72.3142 51.0261C72.1192 50.7241 71.8892 50.4521 71.6402 50.1931C71.0702 49.5981 70.4632 49.3481 69.6832 49.1531C69.6572 49.1461 69.6352 49.1801 69.6602 49.1971Z" fill="black"/>
<path d="M70.4455 48.8597C71.1055 49.1167 71.7765 49.2687 72.4815 49.3467C73.2195 49.4277 73.9865 49.6197 74.6965 49.3467C74.8685 49.2807 74.9035 48.9887 74.7345 48.8987C74.1355 48.5777 73.5025 48.6307 72.8355 48.6187C72.0195 48.6037 71.2425 48.6387 70.4475 48.8357C70.4355 48.8387 70.4325 48.8557 70.4455 48.8597Z" fill="black"/>
<path d="M76.4844 48.8881C76.5254 48.8881 76.5324 48.8241 76.4904 48.8241C76.4494 48.8241 76.4424 48.8881 76.4844 48.8881Z" fill="black"/>
<path d="M74.373 46.4886C74.414 46.4886 74.421 46.4246 74.379 46.4246C74.338 46.4246 74.331 46.4886 74.373 46.4886Z" fill="black"/>
<path d="M76.336 22.2904C75.108 22.3654 74.477 21.3964 74.596 20.2534C74.639 19.8474 74.817 19.3904 75.202 19.1994C75.731 18.9354 76.224 19.5254 76.74 19.4964C77.005 19.4804 77.083 19.1724 77.012 18.9694C76.746 18.2114 75.44 18.1044 74.805 18.3634C74.127 18.6404 73.806 19.4024 73.692 20.0724C73.406 21.7684 74.671 23.4554 76.469 23.0434C76.959 22.9314 76.819 22.2604 76.336 22.2904Z" fill="black"/>
<path d="M74.5507 20.8866C75.2487 21.0076 75.8817 21.4846 76.6097 21.4976C76.8677 21.5026 77.0717 21.1326 76.8007 20.9786C76.1117 20.5856 75.3027 20.5646 74.5397 20.6316C74.3857 20.6446 74.4157 20.8636 74.5507 20.8866Z" fill="black"/>
</svg>
