<svg width="64" height="96" viewBox="0 0 64 96" fill="none" xmlns="http://www.w3.org/2000/svg">
<path d="M20.2472 93.0887C20.6552 93.8727 21.8182 94.2637 22.5892 94.5987C23.3812 94.9427 24.6312 95.4577 25.3722 94.8327C25.5232 94.7047 25.5612 94.4427 25.4162 94.2937C24.8212 93.6797 23.7852 93.7497 22.9892 93.5187C22.1922 93.2877 21.1662 92.6907 20.3302 92.9287C20.2622 92.9477 20.2102 93.0177 20.2472 93.0887Z" fill="#3B79BD"/>
<path d="M46.6636 92.5497C47.6536 92.4207 48.5706 91.7347 49.4296 91.2607C50.4976 90.6717 51.5626 90.0887 52.7416 89.7517C52.5656 89.3767 52.3896 89.0007 52.2126 88.6257C50.6806 89.8087 49.2856 91.1257 48.0116 92.5837C47.5296 93.1357 48.2996 93.9707 48.9126 93.6487C49.3986 93.3917 49.8556 93.0907 50.3416 92.8317C50.1346 92.3947 49.9266 91.9577 49.7186 91.5207C49.0056 91.9147 48.4246 92.4397 47.8376 93.0007C47.3676 93.4507 47.6846 94.5077 48.4376 94.2777C48.9146 94.1317 49.2276 93.9637 49.4966 93.5237C49.6056 93.3437 49.5936 93.0797 49.3956 92.9577C48.9736 92.6967 48.6716 92.7507 48.1836 92.8387C48.3836 93.2637 48.5836 93.6897 48.7836 94.1147C49.2696 93.6457 49.7466 93.1637 50.3416 92.8317C51.1526 92.3807 50.5486 91.0747 49.7186 91.5207C49.2336 91.7807 48.7776 92.0837 48.2926 92.3457C48.5936 92.7007 48.8926 93.0557 49.1936 93.4107C50.3456 92.0077 51.6276 90.7387 53.0466 89.6087C53.5206 89.2307 53.1466 88.2927 52.5176 88.4827C51.3566 88.8337 50.3126 89.3827 49.2796 90.0127C48.3296 90.5917 47.1026 91.3437 46.5086 92.3057C46.4356 92.4237 46.5246 92.5677 46.6636 92.5497Z" fill="#3B79BD"/>
<path d="M5.33756 18.6043C1.53956 24.5613 -1.31144 30.8403 0.622564 37.9413C2.45056 44.6493 8.51456 50.3763 14.7896 52.8193C20.3026 54.9653 30.0706 55.9643 35.5866 53.4703C39.1376 51.8643 42.3736 49.4673 45.1106 46.7033C46.1706 45.6313 50.0466 39.3943 49.9246 39.3913C51.0106 39.4123 52.2066 38.5933 52.4246 37.4883C53.0896 34.1213 50.9936 28.8233 48.5256 26.4303C45.2286 23.2333 43.4836 19.9733 39.0706 18.2243C34.7886 16.5283 29.6016 17.0573 25.1016 16.7973C18.5066 16.4163 12.7266 16.8023 6.79056 19.9443C4.50356 21.1553 5.56056 24.8333 8.09856 24.7743C15.8816 24.5943 23.6926 23.7843 31.4166 25.1263C35.9576 25.9153 45.6966 30.1123 45.9366 35.9263C47.2366 35.1803 48.5366 34.4343 49.8366 33.6873C43.3036 30.2983 36.2956 28.4193 29.2916 26.2773C25.6266 25.1573 21.8146 24.6223 18.0046 24.3283C14.8166 24.0833 10.8846 25.0393 7.92756 23.5893C7.72156 25.1683 7.51556 26.7483 7.30856 28.3273C10.7696 27.0453 15.4676 28.0183 19.1126 28.0853C23.6446 28.1693 28.1946 28.0533 32.7196 28.2673C37.8716 28.5103 45.4146 33.4623 40.8586 38.8123C37.7926 42.4123 34.2426 45.1953 29.5236 46.0843C30.1886 47.6633 30.8546 49.2423 31.5206 50.8223C38.2806 46.6063 42.5056 40.3453 45.4426 33.1213C46.4406 30.6673 42.7866 28.7883 41.1096 30.5993C35.4256 36.7393 28.3706 42.1443 22.1456 47.7653L25.8116 51.4313C27.9176 49.2553 29.1436 46.4133 30.8656 43.9303C33.3196 40.3923 35.7596 36.8073 37.8486 33.0393C39.1496 30.6913 36.5936 28.3293 34.3016 29.4933C31.4036 30.9643 29.5046 33.9613 27.3026 36.2773C23.8666 39.8913 20.5696 43.5623 17.0726 47.1053C18.4296 48.1533 19.7866 49.2003 21.1436 50.2473C24.3266 44.1183 27.3426 37.9043 30.5256 31.7743C32.0786 28.7853 27.9266 26.4113 26.0496 29.1583C21.9346 35.1803 16.1706 39.8043 12.4566 46.1413C14.0666 46.5773 15.6766 47.0133 17.2866 47.4493C18.0136 41.4713 23.3606 36.8943 24.2916 31.0353C24.6546 28.7473 21.8336 26.3283 19.9596 28.5133C17.9456 30.8603 16.1876 33.4053 14.1746 35.7523C12.2616 37.9843 11.3376 40.9663 9.51456 43.2933C10.9586 43.6753 12.4026 44.0563 13.8466 44.4373C13.4516 42.5693 14.7716 40.1883 15.4076 38.4903C16.4646 35.6673 17.1176 32.7103 17.8166 29.7853C18.4816 26.9973 14.4936 25.1133 13.0786 27.7883C10.5816 32.5063 8.03056 37.1543 6.06556 42.1263C7.64456 41.9193 9.22356 41.7133 10.8026 41.5073C9.26357 38.3663 10.3816 31.7243 11.0596 28.5293C11.7486 25.2773 6.82556 23.8853 6.06056 27.1513C5.78056 28.3483 5.48456 30.5123 4.32156 31.2003C5.59056 31.7163 6.85956 32.2323 8.12956 32.7493C8.30156 32.6553 8.47356 32.5613 8.64556 32.4673C10.8696 29.9863 7.21556 26.3073 4.97956 28.8013C3.39956 30.5643 2.80356 31.7913 3.13056 34.1273C3.36656 35.8153 5.63756 36.4453 6.93856 35.6763C9.50356 34.1583 10.4116 31.2973 11.0596 28.5293C9.39256 28.0703 7.72656 27.6113 6.06056 27.1513C4.99156 32.1943 3.97356 39.3223 6.32656 44.1233C7.42056 46.3543 10.3236 45.3783 11.0646 43.5043C12.8606 38.9583 15.2726 34.7173 17.5546 30.4043C15.9756 29.7393 14.3966 29.0733 12.8166 28.4073C12.0326 31.6903 11.2226 34.9373 10.0376 38.1033C9.08156 40.6573 8.27156 43.0943 8.84756 45.8153C9.22357 47.5913 11.9856 48.4833 13.1806 46.9593C16.9176 42.1883 19.6386 36.8273 23.6256 32.1793C22.1806 31.3383 20.7366 30.4973 19.2926 29.6573C18.8076 32.7123 16.6206 35.2243 15.4636 38.0623C14.1596 41.2643 12.5266 43.9663 12.1036 47.4493C11.7776 50.1233 15.7216 50.8253 16.9336 48.7573C20.6296 42.4483 26.4146 37.7913 30.5256 31.7743L26.0496 29.1583C22.8666 35.2873 19.8506 41.5013 16.6676 47.6303C15.3346 50.1963 18.6086 52.9303 20.7386 50.7713C23.4866 47.9863 25.9746 44.8323 28.8086 42.1633C31.3996 39.7233 33.7396 35.5833 36.9186 33.9693L33.3716 30.4233C31.7716 33.3103 29.9086 36.0233 28.1306 38.8023C26.3286 41.6193 24.4526 45.3823 22.1456 47.7653C19.8076 50.1823 23.3406 53.6633 25.8116 51.4313C32.0356 45.8093 39.0906 40.4053 44.7756 34.2653C43.3316 33.4243 41.8876 32.5833 40.4436 31.7433C38.0336 37.6723 34.4396 42.8943 28.9036 46.3453C26.3186 47.9583 28.0606 51.6183 30.9006 51.0833C37.0626 49.9233 41.5306 45.9933 45.4916 41.3423C49.1306 37.0693 47.8746 32.3243 44.4216 28.1203C40.0036 22.7413 32.6186 22.9523 26.2546 23.0133C22.2776 23.0503 18.2646 22.9603 14.2926 22.7843C11.4606 22.6583 8.64356 22.3243 5.93056 23.3283C4.01956 24.0353 3.11256 26.9873 5.31156 28.0653C10.5006 30.6093 17.0106 29.1603 22.5976 30.0363C30.8036 31.3223 39.8746 34.3533 47.2206 38.1643C48.8816 39.0263 51.2056 37.9873 51.1206 35.9263C50.8386 29.1203 43.4796 24.1723 37.9346 21.6593C28.8936 17.5613 17.6706 19.3693 8.09856 19.5903C8.53456 21.2003 8.97056 22.8103 9.40656 24.4203C16.6706 20.5753 25.1416 21.7983 33.0536 22.3253C34.6686 22.4323 36.1516 22.7733 37.6926 23.2233C39.9846 23.8923 40.2886 25.7653 41.8046 27.2153C43.7946 29.1163 48.0476 32.9613 47.4256 36.1103C48.2586 35.4763 49.0916 34.8423 49.9246 34.2083C45.6066 34.1263 44.8166 38.8933 42.5186 41.7813C38.1456 47.2753 32.9246 49.4603 26.1096 49.2983C18.9656 49.1283 13.5626 47.6243 8.81056 42.0833C2.90856 35.2023 5.45156 28.0633 9.81456 21.2203C11.6166 18.3933 7.12856 15.7953 5.33756 18.6043Z" fill="#FAE4C0"/>
<path d="M27.6827 70.7054C27.1407 73.7464 25.5287 76.4524 24.9977 79.4414C24.9337 79.8054 25.2687 80.1744 25.6227 80.1964C27.0487 80.2854 29.6067 81.4364 30.8587 80.2194C31.5287 79.5684 31.8957 78.8194 32.3187 77.9934C33.2587 76.1574 34.2067 74.3534 35.2467 72.5694L33.9897 72.4644C34.7007 74.0484 35.0837 76.3744 35.0777 78.0994C35.0747 78.6984 35.5827 79.0464 36.1417 78.8454C38.0397 78.1624 39.8557 77.3114 41.6787 76.4524C43.2877 75.6934 45.0107 75.2274 46.6027 74.4474C49.0057 73.2694 49.2427 70.6304 48.2767 68.3564C47.0187 65.3974 44.7427 66.6674 42.3537 67.5254C37.7827 69.1684 32.3107 70.4544 27.4477 70.0584C26.9097 70.0144 26.5507 70.4694 26.5997 70.9764C26.7087 72.0794 26.8877 73.0444 26.7567 74.1724C26.5827 75.6724 25.9017 77.0994 25.5607 78.5644C25.3787 79.3484 26.4857 80.1474 26.9407 79.2884C28.3377 76.6474 29.3187 73.8194 30.7137 71.1804C30.2377 71.0044 29.7617 70.8294 29.2847 70.6544C28.7457 73.4584 27.4027 76.0394 26.9167 78.8524C26.7807 79.6424 27.9397 80.0314 28.3567 79.3824C29.7127 77.2774 30.0477 74.0384 32.0767 72.4274C31.6357 72.1974 31.1947 71.9674 30.7547 71.7374C30.7827 73.1884 30.0077 74.4194 29.3997 75.6894C28.7547 77.0354 28.3357 78.7304 28.0827 80.1994C27.9467 80.9964 29.1507 81.4344 29.5627 80.7444C31.4447 77.5994 33.5427 74.7864 35.6617 71.7984C35.1617 71.6144 34.6617 71.4304 34.1627 71.2464C34.0687 73.8054 34.2407 77.1004 35.4397 79.4004C35.8047 80.0994 36.9717 79.9784 37.0197 79.1224C37.1567 76.6634 36.1517 74.3524 36.4847 71.8704C35.9617 71.9624 35.4387 72.0544 34.9157 72.1464C35.7667 73.6864 36.1637 75.6014 36.6327 77.2854C36.8667 78.1274 38.2197 78.2124 38.2657 77.2204C38.3487 75.4014 37.4277 73.7794 37.4697 71.9314C36.9477 72.0234 36.4257 72.1154 35.9037 72.2074C36.5517 73.6974 36.8037 75.2774 37.6007 76.7024C38.0467 77.4984 39.3077 77.1534 39.1547 76.2064C38.8877 74.5594 38.1447 72.9744 38.3547 71.2814L36.9147 71.7334C37.8537 73.0354 38.0837 74.6464 38.7757 76.0694C39.1197 76.7744 40.2937 76.6264 40.3327 75.7944C40.4047 74.2734 39.5527 72.9224 39.4607 71.4144C38.9427 71.5804 38.4237 71.7464 37.9047 71.9124C38.6437 73.0714 39.1257 74.3464 39.9277 75.4684C40.3317 76.0324 41.3757 75.7104 41.3797 75.0124C41.3877 73.6994 40.6157 72.5844 40.6287 71.2844C40.1437 71.4364 39.6587 71.5894 39.1727 71.7414C39.8927 72.7454 40.3137 73.8804 41.0977 74.8364C41.6267 75.4814 42.6817 74.9584 42.5447 74.1574C42.3247 72.8614 41.6787 71.7264 41.9617 70.3784C41.4747 70.5314 40.9887 70.6844 40.5027 70.8374C41.4117 71.9744 41.5897 73.4824 42.6717 74.5164C43.2117 75.0314 44.3467 74.7174 44.1267 73.8324C43.7957 72.4974 43.4747 71.3114 43.5547 69.9134L41.9667 70.1934C42.6337 71.5874 43.2547 72.8934 44.4297 73.9174C44.9607 74.3804 45.6327 73.8534 45.7477 73.3094C46.0197 72.0294 45.0197 70.8094 45.1487 69.4504C44.6547 69.6054 44.1597 69.7604 43.6647 69.9164C44.4347 70.9604 45.0127 72.0444 45.8697 73.0304C46.4467 73.6954 47.4357 73.1534 47.3497 72.3354C47.2307 71.2054 46.6007 70.1094 46.5997 68.9764C46.1007 69.1334 45.6027 69.2894 45.1047 69.4464C45.8447 70.3274 46.2447 71.3424 46.7657 72.3494C47.2857 73.3544 48.6487 72.6374 48.3117 71.6144C47.9327 70.4664 47.3847 69.4284 47.2027 68.2184C46.6997 68.4544 46.1977 68.6904 45.6947 68.9264C45.6717 68.8874 45.6487 68.8484 45.6257 68.8094C45.9367 69.8654 47.6407 69.5774 47.3267 68.5094C47.2477 68.2434 47.1717 68.0374 47.0107 67.8104C46.4907 67.0774 45.3797 67.7234 45.5027 68.5184C45.7127 69.8744 46.3337 71.0554 46.7657 72.3494C47.2807 72.1044 47.7967 71.8594 48.3117 71.6144C47.7177 70.4764 47.2347 69.3334 46.4017 68.3464C45.9597 67.8224 44.9047 68.0534 44.9067 68.8164C44.9097 70.1934 45.5357 71.2744 45.6817 72.6294C46.1747 72.3984 46.6687 72.1664 47.1617 71.9344C46.3147 70.9644 45.7137 69.8544 44.9527 68.8244C44.5067 68.2224 43.5337 68.5984 43.4687 69.2904C43.3557 70.5064 44.2997 72.0854 44.0757 73.1504C44.5147 72.9474 44.9537 72.7454 45.3937 72.5414C44.4637 71.7344 43.9957 70.5524 43.4777 69.4764C43.1277 68.7494 41.9367 68.9134 41.8897 69.7554C41.7997 71.3544 42.1017 72.5804 42.4867 74.1214C42.9717 73.8934 43.4567 73.6654 43.9417 73.4374C42.8727 72.4194 42.6707 70.8894 41.7677 69.7634C41.2767 69.1504 40.4457 69.5664 40.3087 70.2224C39.9967 71.7214 40.6657 72.9864 40.9137 74.4444C41.3967 74.2184 41.8787 73.9924 42.3617 73.7654C41.5857 72.8194 41.1487 71.6624 40.4357 70.6704C40.0287 70.1034 38.9867 70.4274 38.9797 71.1274C38.9657 72.4464 39.7407 73.5674 39.7357 74.8554C40.2197 74.7044 40.7037 74.5524 41.1877 74.3994C40.4697 73.3994 40.0537 72.2394 39.3937 71.2044C38.8867 70.4074 37.7807 70.7474 37.8377 71.7014C37.9177 73.0284 38.7577 74.3164 38.7007 75.6404C39.2197 75.5484 39.7387 75.4574 40.2577 75.3654C39.4887 73.7994 39.1967 72.1094 38.1637 70.6744C37.7277 70.0684 36.8057 70.4734 36.7237 71.1264C36.4917 72.9854 37.2437 74.6794 37.5347 76.4924C38.0517 76.3274 38.5697 76.1614 39.0877 75.9964C38.2997 74.5844 38.0357 72.9774 37.3927 71.4994C37.0777 70.7724 35.8467 70.9534 35.8277 71.7764C35.7867 73.6004 36.7037 75.2994 36.6237 77.0644C37.1677 77.0424 37.7117 77.0204 38.2557 76.9994C37.7447 75.1594 37.3367 73.1214 36.4087 71.4374C36.0137 70.7204 34.9527 70.8834 34.8397 71.7144C34.5017 74.2024 35.5037 76.5094 35.3637 78.9644C35.8897 78.8724 36.4157 78.7794 36.9427 78.6864C35.9327 76.7424 35.7347 73.4594 35.8067 71.4024C35.8347 70.5964 34.8047 70.1484 34.3087 70.8514C32.1937 73.8464 30.0997 76.6654 28.2267 79.8094C28.7207 79.9904 29.2137 80.1724 29.7067 80.3534C29.9637 78.8454 30.5037 77.1294 31.1627 75.7424C31.7637 74.4824 32.3887 73.3144 32.3567 71.8894C32.3417 71.2014 31.6307 70.7234 31.0357 71.1994C28.8427 72.9514 28.4997 76.2184 27.0577 78.4724C27.5367 78.6484 28.0167 78.8254 28.4967 79.0014C28.9747 76.1904 30.3157 73.6054 30.8527 70.8024C30.9977 70.0494 29.7887 69.5844 29.4237 70.2764C28.0287 72.9174 27.0497 75.7474 25.6537 78.3864C26.1147 78.6274 26.5747 78.8694 27.0347 79.1094C27.3547 77.7274 27.8897 76.4114 28.1767 75.0194C28.5027 73.4354 28.3017 72.2694 28.1467 70.7034C27.8647 71.0094 27.5817 71.3154 27.2997 71.6214C32.8537 72.0744 38.6927 70.4584 43.8817 68.5994C45.6627 67.9614 46.7917 68.7934 47.2317 70.5594C47.8777 73.1564 44.6987 73.4324 43.3557 74.0184C40.7287 75.1654 38.1907 76.4934 35.5007 77.4944L36.5657 78.2404C36.5517 76.1804 36.1567 73.7254 35.3077 71.8384C35.0957 71.3654 34.3297 71.2534 34.0517 71.7324C33.0967 73.3734 32.1247 74.9844 31.3227 76.7054C29.8307 79.9074 28.2787 78.9284 25.7537 78.8164C25.9617 79.0684 26.1697 79.3204 26.3777 79.5724C26.8717 76.5234 28.4407 73.9664 28.4917 70.7824C28.4997 70.2564 27.7747 70.1894 27.6827 70.7054Z" fill="#1C5CAB"/>
<path d="M27.4595 57.1057C27.2805 60.4737 27.8745 63.9247 27.8295 67.3077C27.8255 67.6177 27.9775 68.0097 28.3215 68.0907C33.2265 69.2487 39.4935 68.4827 43.8615 65.8177C45.3885 64.8867 45.0515 63.3797 44.2845 62.0617C42.5545 59.0877 41.0125 56.1087 39.8145 52.8547C39.5445 52.1227 38.3785 52.3747 38.3365 53.1157C38.2005 55.5257 37.3615 57.5727 35.4515 59.1077C33.9475 60.3167 32.0165 60.5707 30.5875 59.1447C29.8995 58.4577 29.5975 57.3067 29.2725 56.4187C28.9645 55.5757 27.5495 56.0327 27.7685 56.8997C28.6485 60.3897 28.0375 63.9447 29.1595 67.3787C29.4075 68.1377 30.6435 67.8627 30.6725 67.1117C30.7395 65.4127 30.6415 63.7167 30.6905 62.0177L29.1595 62.0787C29.5605 63.7227 29.6605 66.2797 31.3525 67.1507C31.9015 67.4327 32.4245 66.8147 32.3615 66.3087C32.1935 64.9437 31.6705 63.6647 31.4825 62.2897C31.0425 62.4957 30.6045 62.7017 30.1645 62.9077C31.2195 64.2507 30.8695 66.1607 32.3045 67.2657C32.8355 67.6747 33.5775 67.1427 33.4735 66.5217C33.2605 65.2537 32.1005 63.6067 32.5945 62.3297L31.3265 62.5537C32.3105 63.8087 32.3555 65.7117 33.3055 67.0627C33.6735 67.5857 34.5865 67.2687 34.6105 66.6527C34.6665 65.2137 33.8455 63.8397 33.5815 62.4267C33.1505 62.6287 32.7215 62.8317 32.2915 63.0327C33.2905 64.2577 33.3425 65.8837 34.5955 66.9747C35.1315 67.4407 35.7865 66.8067 35.7405 66.2457C35.6165 64.7457 34.7985 63.4567 34.7275 61.9387C34.3075 62.1357 33.8885 62.3327 33.4685 62.5297C34.4355 63.5447 34.5275 65.1157 35.5055 66.1907C35.9925 66.7257 36.8355 66.3107 36.7485 65.6077C36.5785 64.2327 36.0015 62.9427 35.7315 61.5797C35.2845 61.7227 34.8365 61.8647 34.3885 62.0077C35.2125 63.3817 35.5835 65.4267 36.8975 66.4117C37.5485 66.8987 38.1785 66.1317 37.9775 65.4987C37.5645 64.2037 36.9375 63.0327 36.8715 61.6497C36.4155 61.7957 35.9595 61.9417 35.5035 62.0867C36.3525 63.5047 36.8845 65.0717 37.7685 66.4787C38.2095 67.1797 39.2085 66.8847 39.1435 66.0397C38.9835 63.9667 37.9125 62.2287 37.9625 60.0727C37.5175 60.1517 37.0715 60.2307 36.6265 60.3087C37.2655 62.0657 37.8365 63.8147 38.8245 65.4157C39.2405 66.0887 40.3525 65.8387 40.2075 64.9737C39.8965 63.1197 39.1195 61.5097 39.1625 59.5837C38.6935 59.6657 38.2255 59.7487 37.7575 59.8307C38.5935 61.6447 38.9595 63.7067 40.0575 65.3757C40.5215 66.0837 41.4005 65.3977 41.3695 64.7597C41.2445 62.1557 39.7495 59.9417 40.0235 57.2317L38.5515 57.2907C39.3015 60.0617 40.4385 62.9727 42.0245 65.3747C42.4815 66.0667 43.4525 65.4267 43.3725 64.7417C43.1295 62.6777 41.9445 60.6027 41.2945 58.6067C40.8205 58.8317 40.3475 59.0567 39.8735 59.2817C40.7085 61.0377 41.5235 62.9297 42.8355 64.3977C43.1155 64.7107 43.6405 64.7957 43.9645 64.4907C43.9925 64.4647 44.0205 64.4387 44.0475 64.4127C44.7975 63.7087 43.7675 62.4817 43.0115 63.1907C42.9835 63.2177 42.9565 63.2437 42.9285 63.2697C43.3045 63.2997 43.6815 63.3317 44.0575 63.3617C42.8175 62.0087 42.0785 60.2417 41.2945 58.6067C40.8435 57.6677 39.5655 58.3457 39.8735 59.2817C40.4565 61.0497 41.6215 63.2027 41.8535 65.0087L43.2015 64.3767C41.7675 62.2557 40.6695 59.4917 40.0155 57.0327C39.8055 56.2447 38.6355 56.2197 38.5425 57.0917C38.2415 59.9497 39.7235 62.2847 39.8905 65.0207C40.3275 64.8147 40.7655 64.6097 41.2025 64.4037C40.2015 62.9207 39.8405 60.8297 39.0935 59.1957C38.8005 58.5537 37.7085 58.6977 37.6895 59.4437C37.6365 61.5337 38.3925 63.2207 38.7645 65.2277C39.2255 65.0807 39.6865 64.9337 40.1475 64.7867C39.1305 63.1997 38.5485 61.4607 37.8975 59.7047C37.6565 59.0537 36.5825 59.2617 36.5615 59.9397C36.4925 62.2397 37.5235 64.0877 37.7095 66.2927C38.1675 66.1467 38.6265 66.0007 39.0845 65.8537C38.1895 64.4487 37.6535 62.8887 36.8125 61.4647C36.3775 60.7297 35.4105 61.0897 35.4445 61.9017C35.5085 63.4207 36.1885 64.7017 36.6555 66.1267C37.0155 65.8217 37.3765 65.5177 37.7355 65.2127C36.7415 64.4807 36.3095 62.4377 35.6735 61.3977C35.2775 60.7497 34.1645 60.9867 34.3315 61.8267C34.5965 63.1667 35.1825 64.5127 35.3485 65.8547C35.7625 65.6607 36.1765 65.4657 36.5905 65.2717C35.5885 64.1687 35.5645 62.6577 34.5675 61.5977C34.1915 61.1987 33.2735 61.3187 33.3005 61.9957C33.3655 63.5887 34.1735 64.9357 34.2935 66.5007C34.6755 66.2577 35.0565 66.0147 35.4385 65.7717C34.3565 64.8267 34.2985 63.1627 33.4175 62.0777C32.9525 61.5057 31.9945 61.9677 32.1265 62.6837C32.3265 63.7547 33.1755 65.4637 33.1325 66.5127C33.5675 66.3767 34.0025 66.2397 34.4375 66.1027C33.4635 64.7147 33.5015 62.9147 32.4635 61.5877C32.1105 61.1357 31.3915 61.3077 31.1955 61.8117C30.5035 63.5917 31.7075 65.0437 31.9965 66.7817C32.3855 66.5337 32.7755 66.2857 33.1655 66.0377C32.0935 65.2087 32.1845 63.0417 31.3145 61.9327C30.8315 61.3157 29.9005 61.8397 29.9975 62.5507C30.1835 63.9257 30.7045 65.2187 30.8695 66.5707L31.8785 65.7287C30.9865 65.2697 30.8865 62.7267 30.6825 61.8107C30.4985 60.9867 29.1945 60.9687 29.1515 61.8717C29.0695 63.5687 29.1525 65.2647 29.0855 66.9607C29.5905 66.8727 30.0945 66.7837 30.5995 66.6937C29.5415 63.4557 30.1775 59.9537 29.3375 56.6237L27.8335 57.1037C28.9685 60.2057 30.9265 62.6427 34.4435 61.3607C37.8965 60.1037 39.6825 56.7857 39.8865 53.2617L38.4085 53.5227C39.2025 55.6887 40.1845 57.8137 41.1165 59.9197C41.8835 61.6567 44.6715 63.9777 41.8635 65.0427C37.4945 66.6977 33.3025 67.4997 28.6565 66.6247C28.8805 66.8327 29.1055 67.0407 29.3315 67.2477C29.2615 65.5767 29.1595 63.8947 29.0555 62.2247C28.9425 60.4147 28.4885 58.8397 28.1795 57.0767C28.1085 56.6777 27.4815 56.6907 27.4595 57.1057Z" fill="#67BD46"/>
<path d="M51.6353 31.1917C50.5663 20.6597 42.2203 11.9087 32.3273 8.42473C26.7423 6.45773 20.9413 5.99773 15.2553 7.79673C9.76226 9.53573 5.84526 14.6477 2.30526 18.8597C1.37326 19.9687 2.61826 21.9797 3.96426 21.0097C11.3893 15.6567 20.8833 14.1897 29.6423 16.2197C37.2603 17.9857 46.4713 20.8387 51.5243 27.1867C52.4893 28.3977 54.6043 26.7677 53.6733 25.5277C43.8813 12.4817 21.4013 0.520733 6.70726 12.7417C5.52826 13.7227 6.84826 15.2097 8.03826 15.0297C16.2923 13.7787 23.3353 13.2817 31.5213 15.3387C35.1063 16.2387 38.5293 17.7387 41.7693 19.4917C46.2653 21.9257 47.7623 25.7087 49.0823 30.3537C49.9623 30.1107 50.8423 29.8687 51.7223 29.6267C48.3493 21.5747 42.4543 16.7147 34.2783 13.9427C26.6943 11.3727 14.2313 8.45673 7.55526 14.4387C6.35226 15.5167 7.88426 17.2837 9.21426 16.5877C11.9653 15.1487 15.6603 15.9197 18.6043 16.1557C22.6033 16.4777 26.6043 17.2267 30.5633 17.8717C33.9443 18.4227 37.2263 19.3347 40.4423 20.5027C45.5073 22.3417 48.8143 24.2777 49.5253 30.2397C50.3033 29.9167 51.0823 29.5947 51.8613 29.2717C50.6233 28.0177 50.1413 26.3427 48.8253 25.1567C47.9473 24.3667 46.5063 24.8907 46.4893 26.1247C46.4623 28.0487 47.8403 30.4197 48.5373 32.1487C49.1783 33.7407 51.6803 33.1587 51.1773 31.4207C46.9663 16.8857 27.2633 9.96373 13.7783 8.38673V11.1237C17.0963 11.0127 21.1223 12.2327 24.3713 12.8787C28.1223 13.6227 31.8343 14.2377 35.1663 16.2267C35.6273 15.4387 36.0883 14.6507 36.5483 13.8627C31.9553 11.1897 28.2823 9.33973 22.8483 9.15873C19.6873 9.05273 14.3463 8.70373 11.9583 11.3317C11.0493 12.3317 11.9263 13.9767 13.2893 13.6187C17.8653 12.4167 22.1093 11.3017 26.8653 10.8607C32.4843 10.3397 40.8853 12.8537 44.1823 17.8947C44.8993 17.3417 45.6153 16.7887 46.3323 16.2357C43.5133 13.5277 41.4143 11.0287 37.7033 9.50373C33.0143 7.57574 27.3463 6.49073 22.3023 7.03573C20.5673 7.22373 20.5483 9.96273 22.3023 9.77374C26.4273 9.32673 30.2223 10.2337 34.1843 11.2747C38.7033 12.4627 41.1543 15.0557 44.3963 18.1717C45.4923 19.2247 47.4193 17.8487 46.5463 16.5127C43.6213 12.0407 37.3803 9.50073 32.3803 8.33373C25.8173 6.80173 18.7993 9.34073 12.5623 10.9797C13.0063 11.7417 13.4493 12.5037 13.8933 13.2667C15.9543 10.9987 21.9983 11.8667 24.6813 11.9567C28.7703 12.0937 31.8273 14.2817 35.1663 16.2267C36.6963 17.1167 38.0623 14.7667 36.5483 13.8627C32.9833 11.7357 29.1103 11.0907 25.0993 10.2387C21.6003 9.49574 17.3543 8.26773 13.7783 8.38673C11.9733 8.44673 12.0643 10.9227 13.7783 11.1237C25.9493 12.5467 44.7373 19.0307 48.5373 32.1487C49.4173 31.9057 50.2973 31.6637 51.1773 31.4207C50.7613 30.3897 49.2103 27.2577 49.2263 26.1247C48.4473 26.4477 47.6683 26.7697 46.8893 27.0927C48.1803 28.2547 48.7083 29.9727 49.9263 31.2077C50.6953 31.9867 52.4093 31.4737 52.2623 30.2397C51.8063 26.4207 51.3763 23.9257 48.2843 21.3927C45.0233 18.7217 40.2523 17.4057 36.2863 16.3007C31.1453 14.8667 25.6733 14.2877 20.3883 13.6097C16.2773 13.0827 11.6303 12.2367 7.83226 14.2247C8.38526 14.9417 8.93826 15.6577 9.49026 16.3747C15.0343 11.4077 25.7583 14.3637 32.0283 16.1177C39.8293 18.2997 45.9033 22.7627 49.0823 30.3537C49.7413 31.9277 52.2193 31.3767 51.7223 29.6267C50.5443 25.4827 49.3933 22.0327 46.0933 19.1197C43.1323 16.5067 39.0683 15.0257 35.4133 13.6807C25.9933 10.2127 16.9953 10.9227 7.31126 12.3897C7.75526 13.1527 8.19826 13.9147 8.64226 14.6777C21.7733 3.75673 42.6683 15.3967 51.3103 26.9097C52.0263 26.3567 52.7433 25.8037 53.4593 25.2507C47.7293 18.0527 37.2363 15.1727 28.6623 13.1847C19.9433 11.1637 9.85326 13.4047 2.58226 18.6467C3.13526 19.3627 3.68826 20.0797 4.24026 20.7957C7.02026 17.4877 9.73226 14.2427 13.3203 11.7707C17.6973 8.75373 23.4583 9.05273 28.3953 10.0557C38.2453 12.0577 47.8773 21.1277 48.8983 31.1917C49.0743 32.9297 51.8133 32.9477 51.6353 31.1917Z" fill="#FED129"/>
<path d="M4.3902 20.8837C4.4622 14.8307 11.5662 9.84768 16.5522 7.92368C21.3692 6.06468 27.3232 7.00368 32.1482 8.27868C44.5982 11.5667 50.7402 22.4437 49.8692 34.7987C49.7572 36.4027 52.0992 36.5717 52.5582 35.1627C56.9632 21.6047 48.3342 9.10668 35.7462 4.23868C28.8832 1.58568 21.5762 0.145683 14.3512 2.14268C7.4852 4.03968 3.9652 10.1857 2.3682 16.6537C2.0082 18.1097 4.1872 19.1557 4.8692 17.7077C7.1962 12.7617 10.3012 8.85568 15.5452 6.85968C22.0262 4.39268 30.3102 5.92968 36.7992 7.57068C49.6942 10.8327 55.0082 21.6767 51.2162 34.3057C50.7072 36.0007 53.3492 36.7197 53.8562 35.0337C57.9922 21.2577 52.3552 9.73568 38.7762 5.29268C31.3902 2.87568 22.3132 1.98568 14.8172 4.22068C8.9092 5.98168 5.0212 10.9797 2.5062 16.3257C3.3402 16.6777 4.1732 17.0297 5.0072 17.3807C6.6032 10.9207 9.7932 6.24268 16.4792 4.39468C22.0702 2.84968 28.3262 4.48068 33.6222 6.33868C45.4442 10.4857 54.0672 21.6677 49.9182 34.4347C50.8142 34.5557 51.7112 34.6777 52.6072 34.7987C53.6372 20.1667 45.6302 9.00768 31.4562 5.26368C25.1612 3.60069 18.5552 3.83068 12.6682 6.64168C7.5242 9.09768 1.7242 14.8917 1.6532 20.8837C1.6322 22.6497 4.3692 22.6477 4.3902 20.8837Z" fill="#FED129"/>
<path d="M49.6289 36.4315C51.3329 35.5215 53.2609 35.5275 53.0689 37.9225C52.8939 40.1105 50.8239 40.5205 49.1109 39.7725C48.8819 39.6725 48.6109 39.8205 48.5269 40.0415C45.8739 47.0035 40.3059 52.5685 33.0089 54.4485C26.3359 56.1665 18.6559 54.5965 12.5769 51.6415C8.2249 49.5265 4.1159 45.8095 1.9759 41.3925C-0.386099 36.5175 2.2059 29.8155 3.7469 25.1375C3.9519 24.5135 3.0019 24.1595 2.7899 24.7835C0.620901 31.1725 -1.7551 38.5355 2.6799 44.4095C8.7069 52.3915 18.3219 56.5205 28.3369 56.0445C33.4969 55.7985 38.0699 54.1565 42.0919 50.8895C44.1289 49.2365 45.8169 47.1535 47.2049 44.9405C47.8529 43.9065 48.3789 42.7955 48.8679 41.6805C49.3699 40.5365 49.4889 41.0035 50.5829 41.1195C55.2369 41.6105 54.9519 32.1685 49.3019 35.7435C48.8989 35.9975 49.1849 36.6675 49.6289 36.4315Z" fill="black"/>
<path d="M12.2422 30.056C14.0072 30.056 14.0072 27.319 12.2422 27.319C10.4772 27.319 10.4772 30.056 12.2422 30.056Z" fill="black"/>
<path d="M34.3584 35.0814C36.1234 35.0814 36.1234 32.3444 34.3584 32.3444C32.5934 32.3444 32.5934 35.0814 34.3584 35.0814Z" fill="black"/>
<path d="M23.8248 37.5477C23.7268 36.9167 23.3388 36.3957 22.7578 36.1317C22.1718 35.8657 21.3538 36.2607 21.2908 36.9117C21.2708 37.1197 21.5028 37.2977 21.6968 37.1947C22.0228 37.0227 22.2048 36.6327 22.6148 36.8617C22.9318 37.0387 23.1388 37.3997 23.2758 37.7227C23.4058 38.0327 23.8738 37.8647 23.8248 37.5477Z" fill="black"/>
<path d="M26.9481 41.8846C24.8661 43.3346 23.2101 44.3986 20.5611 44.4336C17.7361 44.4706 15.2181 42.9366 14.8911 40.0046C14.8291 39.4476 13.9721 39.6016 14.0361 40.1556C14.3811 43.1656 16.6231 44.7786 19.4901 45.1776C21.9751 45.5236 26.0951 44.6286 27.1581 42.0316C27.2131 41.8986 27.0501 41.8136 26.9481 41.8846Z" fill="#F16776"/>
<path d="M7.08313 36.8744C7.15013 36.8894 7.21713 36.9044 7.28413 36.9184C8.73913 37.2414 10.2401 36.4994 10.6501 35.0074C11.0311 33.6244 10.1961 31.9624 8.73913 31.6404C8.67213 31.6254 8.60513 31.6104 8.53813 31.5964C7.08313 31.2734 5.58213 32.0154 5.17113 33.5074C4.79113 34.8904 5.62613 36.5524 7.08313 36.8744Z" fill="#F37674"/>
<path d="M36.6378 43.5892C36.7048 43.6042 36.7718 43.6192 36.8388 43.6332C38.2938 43.9562 39.7948 43.2142 40.2048 41.7222C40.5858 40.3392 39.7508 38.6772 38.2938 38.3552C38.2268 38.3402 38.1598 38.3252 38.0928 38.3112C36.6378 37.9882 35.1368 38.7302 34.7258 40.2222C34.3458 41.6052 35.1808 43.2672 36.6378 43.5892Z" fill="#F37674"/>
<path d="M3.31877 22.0374C2.85977 22.8634 2.74577 23.9794 2.73177 24.9094C2.72077 25.6044 3.80977 25.6994 3.80377 25.0114C3.79677 24.0704 3.98077 23.1004 3.91477 22.1694C3.89477 21.8904 3.45477 21.7934 3.31877 22.0374Z" fill="black"/>
<path d="M49.6197 35.9545C50.1117 34.9495 50.3277 33.7145 50.5357 32.6185C50.6647 31.9385 49.5797 31.8345 49.4637 32.5165C49.2807 33.5815 48.9717 34.7275 48.9807 35.8085C48.9837 36.1895 49.4517 36.2975 49.6197 35.9545Z" fill="black"/>
<path d="M54.6241 32.7889C54.2111 32.7249 53.7941 32.6819 53.3811 32.6189C52.8881 32.5449 52.5411 32.5589 52.0591 32.6599C51.8021 32.7139 51.8351 33.0539 52.0761 33.1009C52.9141 33.2649 53.7841 33.3999 54.6431 33.2589C54.9171 33.2139 54.8821 32.8289 54.6241 32.7889Z" fill="black"/>
<path d="M54.8398 28.4188C54.3538 28.6038 53.8518 28.6948 53.3368 28.7578C52.8748 28.8148 52.2578 28.7438 51.9208 29.1028C51.8278 29.2008 51.7958 29.3878 51.9378 29.4678C52.3918 29.7238 52.9638 29.5178 53.4548 29.4268C54.0198 29.3218 54.5548 29.1548 55.0748 28.9128C55.3988 28.7628 55.1658 28.2948 54.8398 28.4188Z" fill="black"/>
<path d="M54.7887 24.9345C53.7097 24.6075 52.7907 25.0895 51.8547 25.5805C51.4737 25.7805 51.7427 26.3345 52.1387 26.1795C52.9757 25.8515 53.7317 25.4525 54.6537 25.5255C54.9917 25.5525 55.1287 25.0375 54.7887 24.9345Z" fill="black"/>
<path d="M53.6358 21.2626C52.5088 21.1176 51.6578 21.8346 50.8388 22.4776C50.5788 22.6816 50.8588 23.1126 51.1518 22.9626C51.9798 22.5386 52.7288 22.0546 53.6618 21.9186C54.0428 21.8636 53.9988 21.3086 53.6358 21.2626Z" fill="black"/>
<path d="M52.0377 18.2045C51.2577 18.4665 50.5667 18.9155 49.9847 19.4945C49.6637 19.8115 50.0887 20.3345 50.4437 20.0355C51.0187 19.5515 51.6587 19.1575 52.3387 18.8385C52.7577 18.6415 52.4547 18.0645 52.0377 18.2045Z" fill="black"/>
<path d="M49.8687 15.472C49.0657 16.049 48.4217 16.834 47.7027 17.507C47.3877 17.802 47.7967 18.29 48.1377 18.019C48.9097 17.403 49.5987 16.672 50.2837 15.961C50.5697 15.665 50.2077 15.228 49.8687 15.472Z" fill="black"/>
<path d="M48.1709 13.4681C47.3679 14.3951 46.5959 15.3641 45.8809 16.3561C45.7069 16.5971 46.0319 16.8791 46.2569 16.6991C47.2279 15.9231 48.0879 14.9301 48.6919 13.8331C48.8919 13.4731 48.4409 13.1551 48.1709 13.4681Z" fill="black"/>
<path d="M45.024 10.7265C44.615 11.8215 43.622 12.5845 43.211 13.6875C43.052 14.1145 43.662 14.3115 43.857 13.9265C44.385 12.8835 45.331 12.0235 45.532 10.8425C45.584 10.5415 45.126 10.4535 45.024 10.7265Z" fill="black"/>
<path d="M42.5874 9.24445C42.1044 10.1634 41.3794 10.9724 40.9954 11.9334C40.9094 12.1484 41.1674 12.2774 41.3314 12.1684C42.2034 11.5824 42.7454 10.4804 43.1244 9.52545C43.2514 9.20845 42.7514 8.93345 42.5874 9.24445Z" fill="black"/>
<path d="M40.1934 7.63993C39.4684 8.55293 39.0064 9.65393 38.5824 10.7309C38.4084 11.1719 39.0554 11.3859 39.2554 10.9799C39.7464 9.98893 40.1714 8.96993 40.7124 8.00293C40.9094 7.64993 40.4504 7.31593 40.1934 7.63993Z" fill="black"/>
<path d="M36.8238 6.53107C36.5298 7.47807 36.1058 8.39407 36.0048 9.38607C35.9718 9.70907 36.4358 9.80707 36.5508 9.51107C36.9078 8.59007 37.2778 7.65107 37.4488 6.67407C37.5118 6.31207 36.9318 6.18407 36.8238 6.53107Z" fill="black"/>
<path d="M33.8243 5.63317C33.6013 6.54317 33.4103 7.41517 33.3313 8.34817C33.3093 8.61117 33.6843 8.69617 33.7783 8.45017C34.1113 7.57517 34.3163 6.70617 34.5073 5.78917C34.5883 5.39817 33.9193 5.24617 33.8243 5.63317Z" fill="black"/>
<path d="M30.1407 7.21327C30.3847 6.25527 30.6577 5.29627 30.7677 4.31327C30.8047 3.98027 30.3077 3.86727 30.1967 4.18327C29.8697 5.11727 29.7017 6.10027 29.5077 7.06827C29.4347 7.43127 30.0497 7.57027 30.1407 7.21327Z" fill="black"/>
<path d="M27.0245 6.84451C27.1435 5.84151 27.3225 4.80151 27.0405 3.81651C26.9595 3.53251 26.4845 3.49551 26.4815 3.83851C26.4715 4.83251 26.3095 5.87951 26.4315 6.86751C26.4745 7.21251 26.9855 7.17151 27.0245 6.84451Z" fill="black"/>
<path d="M23.6133 6.99545C24.0533 6.12645 24.2543 5.19745 24.2063 4.22545C24.1903 3.89545 23.6433 3.92445 23.6303 4.24845C23.5953 5.11945 23.4053 5.99145 23.0403 6.78345C22.8723 7.14645 23.4393 7.33945 23.6133 6.99545Z" fill="black"/>
<path d="M20.42 6.90124C20.691 5.74024 20.918 4.65224 20.694 3.46524C20.647 3.21424 20.293 3.28724 20.311 3.53324C20.392 4.61324 20.144 5.73524 19.912 6.78524C19.847 7.07524 20.353 7.19024 20.42 6.90124Z" fill="black"/>
<path d="M17.7647 7.56675C18.0207 6.68475 17.9837 5.84575 17.6297 5.00275C17.5137 4.72575 17.0367 4.87075 17.1207 5.16475C17.3317 5.89975 17.2927 6.68575 17.1937 7.43675C17.1507 7.76575 17.6707 7.88975 17.7647 7.56675Z" fill="black"/>
<path d="M15.4433 7.42173C15.1983 6.68873 15.1683 5.91573 14.8673 5.19573C14.7353 4.87973 14.1883 5.04573 14.2863 5.38173C14.5093 6.15073 14.5543 6.95473 14.8333 7.71173C14.9853 8.12473 15.5783 7.82673 15.4433 7.42173Z" fill="black"/>
<path d="M12.1805 8.96764C12.3825 8.05264 12.1715 7.17164 11.9255 6.28764C11.8165 5.89664 11.2055 5.98864 11.2935 6.39864C11.4695 7.21764 11.6885 8.06864 11.5505 8.90764C11.4825 9.31864 12.0955 9.35464 12.1805 8.96764Z" fill="black"/>
<path d="M9.75354 10.4047C9.96754 9.48169 9.96054 8.59969 9.69754 7.68769C9.58854 7.30869 9.01254 7.39069 9.08254 7.79569C9.22454 8.61569 9.27054 9.43769 9.11654 10.2587C9.04854 10.6247 9.66954 10.7667 9.75354 10.4047Z" fill="black"/>
<path d="M7.79645 12.4115C7.98945 11.5245 7.79245 10.6875 7.42945 9.87446C7.30945 9.60446 6.83745 9.74246 6.92445 10.0355C7.14645 10.7795 7.31345 11.5785 7.18345 12.3525C7.11645 12.7515 7.71345 12.7885 7.79645 12.4115Z" fill="black"/>
<path d="M5.66154 14.953C5.25654 14.243 5.20254 13.423 4.91954 12.665C4.78254 12.298 4.25254 12.563 4.37454 12.924C4.63554 13.696 4.70254 14.493 5.13254 15.205C5.32454 15.523 5.85054 15.285 5.66154 14.953Z" fill="black"/>
<path d="M3.84955 17.5678C3.59155 16.5508 3.18955 15.6618 2.65655 14.7638C2.55855 14.5998 2.24355 14.6638 2.30955 14.8748C2.60455 15.8128 2.99855 16.7248 3.25155 17.6728C3.35155 18.0478 3.94655 17.9488 3.84955 17.5678Z" fill="black"/>
<path d="M3.36074 19.241C3.14974 18.916 2.93774 18.595 2.68774 18.298C2.52274 18.102 2.21474 18.308 2.31774 18.537C2.47474 18.892 2.67374 19.223 2.87674 19.554C3.09574 19.912 3.59174 19.594 3.36074 19.241Z" fill="black"/>
<path d="M2.78075 21.8436C2.30675 21.3066 2.04775 20.6396 1.72575 20.0086C1.60475 19.7696 1.18975 19.8796 1.26175 20.1566C1.46475 20.9356 1.76275 21.6426 2.30775 22.2446C2.57475 22.5406 3.04675 22.1446 2.78075 21.8436Z" fill="black"/>
<path d="M52.0776 37.4652C51.3116 37.4562 50.5596 37.6632 49.7996 37.7412C49.4166 37.7802 49.4416 38.4112 49.8276 38.4192C50.6216 38.4352 51.3376 38.1872 52.0986 37.9982C52.3776 37.9292 52.3986 37.4682 52.0776 37.4652Z" fill="black"/>
<path d="M9.91556 16.8461C10.3376 15.9911 9.78156 14.7621 9.44856 13.9651C9.34756 13.7241 8.94456 13.8491 9.00856 14.1061C9.11956 14.5561 9.22856 15.0051 9.34656 15.4541C9.46556 15.9071 9.46556 16.3501 9.51256 16.8101C9.53556 17.0381 9.83256 17.0141 9.91556 16.8461Z" fill="black"/>
<path d="M12.2622 15.1287C12.4442 14.2447 12.3662 13.3777 12.0772 12.5257C12.0052 12.3127 11.6382 12.4297 11.6982 12.6477C11.9132 13.4337 11.9322 14.2837 11.7682 15.0817C11.7032 15.3957 12.1982 15.4387 12.2622 15.1287Z" fill="black"/>
<path d="M6.99064 16.807C6.84664 17.213 6.65964 17.588 6.57064 18.012C6.50964 18.303 6.97864 18.398 7.07164 18.126C7.20964 17.72 7.39264 17.342 7.47464 16.917C7.52964 16.634 7.08364 16.545 6.99064 16.807Z" fill="black"/>
<path d="M14.4366 12.0389C14.5746 12.6429 14.6226 13.2639 14.7386 13.8719C14.7796 14.0859 15.0896 14.0269 15.0666 13.8149C15.0016 13.1959 14.9736 12.5779 14.8366 11.9689C14.7796 11.7139 14.3786 11.7839 14.4366 12.0389Z" fill="black"/>
<path d="M18.3629 9.41148C18.5199 10.5645 18.1879 11.8005 18.0239 12.9405C17.9869 13.1995 18.3929 13.2925 18.4709 13.0425C18.8469 11.8355 19.1629 10.5785 18.9609 9.30648C18.8989 8.91848 18.3099 9.02448 18.3629 9.41148Z" fill="black"/>
<path d="M19.611 13.0315C19.493 13.5525 19.375 14.0735 19.257 14.5935C19.181 14.9265 19.71 14.9715 19.785 14.6435C19.903 14.1225 20.021 13.6025 20.139 13.0815C20.215 12.7475 19.686 12.7025 19.611 13.0315Z" fill="black"/>
<path d="M20.3457 8.70105C20.6347 9.22905 20.6547 9.93005 20.5537 10.5131C20.4857 10.9091 21.0807 10.9461 21.1627 10.5711C21.3137 9.88605 21.2507 9.05505 20.8947 8.44005C20.7007 8.10605 20.1567 8.35405 20.3457 8.70105Z" fill="black"/>
<path d="M23.6075 12.7704C23.4045 13.6234 23.1725 14.4724 23.2065 15.3544C23.2185 15.6674 23.6625 15.7304 23.7045 15.4014C23.8135 14.5664 24.0075 13.7264 24.1865 12.9024C24.2585 12.5714 23.6855 12.4414 23.6075 12.7704Z" fill="black"/>
<path d="M27.2773 8.81478C27.0343 9.63578 26.6063 10.3888 26.3443 11.2068C26.2463 11.5128 26.6723 11.6618 26.8053 11.3778C27.1913 10.5638 27.6113 9.82678 27.7943 8.93278C27.8553 8.63478 27.3623 8.52678 27.2773 8.81478Z" fill="black"/>
<path d="M30.4112 8.98075C30.1272 9.81075 29.7272 10.5947 29.5342 11.4547C29.4632 11.7707 30.0032 11.8917 30.0882 11.5807C30.3182 10.7387 30.7482 9.95675 30.8902 9.08975C30.9362 8.80975 30.5012 8.71775 30.4112 8.98075Z" fill="black"/>
<path d="M28.3838 14.5349C28.2528 15.0579 28.0058 15.5719 27.7928 16.0669C27.7248 16.2239 27.9258 16.3359 28.0468 16.2449C28.5758 15.8469 28.8298 15.4049 28.9928 14.7609C29.0958 14.3569 28.4848 14.1299 28.3838 14.5349Z" fill="black"/>
<path d="M32.1905 10.0652C31.9535 10.9812 31.5155 11.8292 31.2355 12.7332C31.1525 13.0002 31.5195 13.1282 31.6365 12.8812C32.0495 12.0172 32.4835 11.1972 32.7045 10.2552C32.7835 9.91825 32.2795 9.72125 32.1905 10.0652Z" fill="black"/>
<path d="M36.0508 9.98519C35.8438 10.7662 35.3628 11.4702 34.9328 12.1462C34.7778 12.3902 35.1268 12.6362 35.3008 12.4032C35.8228 11.7082 36.3338 11.0292 36.5518 10.1712C36.6358 9.84019 36.1388 9.65119 36.0508 9.98519Z" fill="black"/>
<path d="M37.3261 12.7382C37.0741 13.6472 36.2381 14.2722 35.7951 15.0892C35.6751 15.3102 35.9631 15.5272 36.1211 15.3172C36.7221 14.5152 37.5891 13.9592 37.8591 12.9352C37.9521 12.5842 37.4241 12.3842 37.3261 12.7382Z" fill="black"/>
<path d="M34.087 15.5486C33.436 15.8216 33.264 16.5266 32.985 17.1036C32.88 17.3206 33.223 17.4896 33.354 17.2966C33.618 16.9056 33.872 16.2116 34.289 15.9736C34.551 15.8246 34.369 15.4296 34.087 15.5486Z" fill="black"/>
<path d="M37.8662 15.3305C37.6422 16.3075 37.4342 17.2795 37.2512 18.2655C37.2102 18.4865 37.5772 18.5695 37.6362 18.3525C37.8982 17.3855 38.1302 16.4195 38.3502 15.4405C38.4122 15.1645 37.9292 15.0555 37.8662 15.3305Z" fill="black"/>
<path d="M40.8637 16.558C40.6337 17.478 40.1887 18.321 39.8807 19.215C39.7837 19.497 40.1917 19.642 40.3107 19.374C40.6937 18.507 41.1257 17.666 41.3527 16.739C41.4317 16.416 40.9457 16.231 40.8637 16.558Z" fill="black"/>
<path d="M43.8935 19.4354C43.7815 19.8384 43.5445 20.1434 43.3095 20.4804C43.0255 20.8864 43.0065 21.3684 42.8155 21.8114C42.7555 21.9494 42.9615 22.0514 43.0445 21.9314C43.3255 21.5264 43.5515 21.0904 43.8325 20.6874C44.0715 20.3454 44.2935 20.0324 44.4075 19.6254C44.5005 19.2874 43.9885 19.0954 43.8935 19.4354Z" fill="black"/>
<path d="M45.0401 21.198C44.3341 21.833 43.9591 22.757 43.6681 23.636C43.5721 23.926 43.9701 24.057 44.1021 23.796C44.4601 23.082 44.8241 22.192 45.4161 21.641C45.6891 21.387 45.3201 20.946 45.0401 21.198Z" fill="black"/>
<path d="M48.2808 23.7942C47.4218 24.8342 46.9958 26.1042 46.7748 27.4152C46.7298 27.6812 47.1558 27.7762 47.2338 27.5202C47.5888 26.3382 47.9578 25.0902 48.6978 24.0862C48.8948 23.8182 48.4878 23.5442 48.2808 23.7942Z" fill="black"/>
<path d="M49.3394 25.6028C49.1484 26.3258 48.6434 26.8908 48.3454 27.5678C48.2034 27.8928 48.7174 28.0798 48.8594 27.7588C49.1584 27.0778 49.6604 26.5218 49.8534 25.7928C49.9424 25.4548 49.4294 25.2618 49.3394 25.6028Z" fill="black"/>
<path d="M51.0416 28.4314C50.4586 29.0054 49.7696 29.3484 49.3766 30.0954C49.2856 30.2684 49.4846 30.5084 49.6526 30.3464C50.2016 29.8164 50.9106 29.4684 51.4566 28.9204C51.7456 28.6304 51.3376 28.1394 51.0416 28.4314Z" fill="black"/>
<path d="M50.8423 31.5111C50.3693 31.7841 49.8423 31.9331 49.3463 32.1571C49.1023 32.2661 49.2253 32.6891 49.4913 32.6131C50.0453 32.4531 50.5773 32.3021 51.0773 32.0051C51.3773 31.8271 51.1503 31.3331 50.8423 31.5111Z" fill="black"/>
<path d="M48.0229 19.3388C47.7599 19.7048 47.3859 20.0108 47.0129 20.2608C46.6719 20.4878 47.0849 20.9628 47.4219 20.7428C47.8499 20.4648 48.2359 20.1138 48.5059 19.6778C48.7059 19.3558 48.2469 19.0278 48.0229 19.3388Z" fill="black"/>
<path d="M45.6464 24.1161C45.4314 24.3821 45.2314 24.6471 45.0634 24.9471C44.8554 25.3201 45.3604 25.6971 45.6174 25.3341C45.8134 25.0571 46.0154 24.7861 46.2284 24.5231C46.5174 24.1671 45.9334 23.7621 45.6464 24.1161Z" fill="black"/>
<path d="M51.0946 11.7152C50.6086 12.0192 50.2136 12.3832 49.7726 12.7402C49.5936 12.8842 49.7856 13.1852 49.9906 13.0782C50.5006 12.8142 50.9136 12.4922 51.3866 12.1672C51.6396 11.9942 51.3556 11.5522 51.0946 11.7152Z" fill="black"/>
<path d="M47.4389 9.24832C47.0609 9.62732 46.8029 10.0813 46.4729 10.4963C46.2609 10.7623 46.6519 11.0973 46.9019 10.8883C47.2929 10.5603 47.5309 10.1313 47.8809 9.76932C48.1849 9.45732 47.7519 8.93332 47.4389 9.24832Z" fill="black"/>
<path d="M46.4331 9.32605C46.2201 9.90305 45.7851 10.347 45.5211 10.899C45.3681 11.221 45.8851 11.486 46.0701 11.187C46.4311 10.605 46.8941 10.161 47.0241 9.46105C47.0891 9.11205 46.5501 9.00905 46.4331 9.32605Z" fill="black"/>
<path d="M42.8687 7.50326C42.8007 7.90326 42.8287 8.30726 42.7707 8.70826C42.7187 9.06626 43.2417 9.09426 43.3157 8.76026C43.4027 8.36426 43.4117 7.95926 43.4907 7.56226C43.5687 7.16926 42.9367 7.10726 42.8687 7.50326Z" fill="black"/>
<path d="M44.9687 15.2123C44.6287 15.6303 44.3257 16.0743 43.9967 16.5013C43.7497 16.8203 44.2517 17.1593 44.5047 16.8563C44.8497 16.4423 45.1527 15.9983 45.4877 15.5753C45.7417 15.2543 45.2237 14.8983 44.9687 15.2123Z" fill="black"/>
<path d="M40.7506 13.2963C40.4556 13.7703 40.1646 14.1933 39.9466 14.7113C39.8446 14.9513 40.2066 15.1383 40.3486 14.9213C40.6346 14.4863 40.9826 14.0983 41.2626 13.6543C41.4766 13.3153 40.9636 12.9543 40.7506 13.2963Z" fill="black"/>
<path d="M41.9913 18.9926C41.8553 19.4806 41.5263 19.8906 41.3173 20.3516C41.1693 20.6786 41.6803 20.9406 41.8693 20.6406C42.1633 20.1776 42.5143 19.7826 42.6653 19.2416C42.7893 18.7976 42.1163 18.5466 41.9913 18.9926Z" fill="black"/>
<path d="M23.8056 1.61846C23.8336 1.90346 23.7636 2.19146 23.7056 2.46946C23.6246 2.85446 24.2886 3.00546 24.3806 2.62246C24.4696 2.24746 24.5436 1.88746 24.4536 1.50446C24.3566 1.08846 23.7636 1.19746 23.8056 1.61846Z" fill="black"/>
<path d="M19.5654 2.24648C19.3274 1.55448 19.0704 0.896482 18.3414 0.620482C18.1484 0.547482 18.0434 0.799482 18.1834 0.920482C18.4144 1.11948 18.5324 1.49548 18.6724 1.76148C18.7994 2.00348 18.9054 2.25748 19.0124 2.50948C19.1694 2.87848 19.6904 2.61048 19.5654 2.24648Z" fill="black"/>
<path d="M17.48 3.79084C17.312 3.37184 17.096 3.00584 16.836 2.63884C16.614 2.32584 16.089 2.66784 16.273 3.00184C16.471 3.36184 16.668 3.72184 16.823 4.10384C17 4.53784 17.653 4.22484 17.48 3.79084Z" fill="black"/>
<path d="M13.6889 3.83826C13.3819 3.39426 12.9949 3.12826 12.5889 2.78926C12.3469 2.58726 12.0349 2.95626 12.2269 3.18826C12.5339 3.55926 12.8979 3.88026 13.1679 4.28026C13.4119 4.64526 13.9389 4.19926 13.6889 3.83826Z" fill="black"/>
<path d="M10.5811 5.25476C10.8311 5.25476 10.8691 4.86676 10.6181 4.86676C10.3691 4.86676 10.3311 5.25476 10.5811 5.25476Z" fill="black"/>
<path d="M16.6579 15.685C16.4819 15.383 16.3549 15.059 16.1759 14.759C15.9759 14.423 15.4249 14.672 15.6189 15.023C15.7889 15.328 15.9119 15.654 16.0859 15.956C16.2879 16.308 16.8639 16.038 16.6579 15.685Z" fill="black"/>
<path d="M14.2706 10.1464C14.1686 9.61436 13.8586 9.38036 13.5226 8.99036C13.3806 8.82536 13.1056 8.99936 13.2026 9.19736C13.3626 9.52636 13.5726 9.89736 13.6296 10.2594C13.6966 10.6734 14.3486 10.5584 14.2706 10.1464Z" fill="black"/>
<path d="M11.5004 11.868C11.3714 11.377 11.1964 10.926 10.9164 10.502C10.7274 10.218 10.2614 10.528 10.4174 10.825C10.6234 11.219 10.7844 11.636 10.9874 12.032C11.1224 12.295 11.5804 12.175 11.5004 11.868Z" fill="black"/>
<path d="M9.80036 12.5349C9.63536 12.3029 9.42336 12.1089 9.24536 11.8869C9.02236 11.6089 8.53136 11.9129 8.71436 12.2289C8.87436 12.5059 9.07736 12.7329 9.26936 12.9859C9.54136 13.3479 10.0584 12.8969 9.80036 12.5349Z" fill="black"/>
<path d="M7.09923 15.997C7.15223 15.565 6.89523 15.292 6.62423 14.987C6.38723 14.719 5.92223 15 6.09023 15.332C6.17223 15.495 6.40323 15.746 6.40523 15.932C6.41023 16.373 7.04323 16.452 7.09923 15.997Z" fill="black"/>
<path d="M26.6817 56.953C26.6457 60.345 26.9637 63.9369 26.3997 67.2869C26.1427 68.8159 26.8747 69.569 28.3617 69.697C34.8627 70.253 41.0917 68.659 46.6947 65.3939C46.9087 65.2699 47.0597 64.9289 46.8387 64.7249C45.5247 63.5209 44.8437 61.5709 43.7977 60.1069C42.3517 58.084 41.5507 55.718 40.2287 53.621C40.0207 53.292 39.4417 53.299 39.4127 53.7649C39.4097 53.8309 39.4057 53.8969 39.4017 53.9629C39.3677 54.5149 40.2217 54.597 40.2557 54.044C40.2607 53.978 40.2647 53.912 40.2687 53.847C39.9967 53.894 39.7247 53.942 39.4527 53.991C40.6787 55.946 41.4087 58.176 42.7157 60.0789C43.8897 61.7889 44.7027 63.9679 46.2617 65.3579C46.2827 65.1099 46.3037 64.863 46.3247 64.615C41.4107 67.523 36.1427 69.07 30.4107 68.947C29.4557 68.926 26.9737 69.2279 27.1647 67.3599C27.2657 66.3689 27.2857 65.676 27.2627 64.6469C27.2037 62.0759 27.4097 59.4939 27.0587 56.938C27.0297 56.7269 26.6837 56.737 26.6817 56.953Z" fill="#457653"/>
<path d="M29.0347 56.9013C28.9317 59.5103 30.7317 60.7683 33.1317 60.4003C36.1757 59.9333 37.4687 57.2303 37.7657 54.5123C37.8297 53.9323 36.8367 54.0593 37.0767 54.6343C37.0957 54.6803 37.1147 54.7253 37.1337 54.7713C37.2127 54.9613 37.5217 54.9983 37.6287 54.8133L37.7017 54.6873C37.4827 54.6063 37.2627 54.5253 37.0427 54.4443C36.9987 56.6203 36.0927 58.2723 34.1817 59.3233C33.3937 59.7563 32.4317 59.8633 31.5507 59.7883C30.2047 59.6723 29.7247 57.9763 29.4997 56.8823C29.4487 56.6303 29.0457 56.6283 29.0347 56.9013Z" fill="black"/>
<path d="M26.6621 70.1189C26.3391 72.1189 25.8341 74.0459 25.3911 76.0179C25.0331 77.6079 24.2641 79.2889 24.2481 80.9319C24.2461 81.0829 24.3451 81.2589 24.5181 81.2589C26.0861 81.2569 27.6451 81.1589 29.2141 81.2129C30.1501 81.2449 31.0881 81.4659 31.9841 81.1459C32.4021 80.9969 32.5061 80.2639 32.5911 79.9309C33.0121 78.2869 34.2591 76.7529 34.8441 75.1399C34.6091 75.1189 34.3741 75.0979 34.1391 75.0759C34.3751 76.7499 35.2801 78.2279 35.3971 79.9509C35.4121 80.1669 35.6601 80.3049 35.8541 80.2719C36.8951 80.0929 37.7151 79.4389 38.5921 78.8839C39.9361 78.0319 41.7031 77.5999 43.1511 76.9099C45.6621 75.7129 48.1411 75.0159 50.2641 73.1149C50.4431 72.9549 50.4341 72.7339 50.3101 72.5449C49.0711 70.6589 48.0001 68.3449 47.2971 66.1969C47.2241 65.9739 46.9301 65.9199 46.7411 65.9989C46.7071 66.0139 46.6731 66.0279 46.6391 66.0419C46.1431 66.2509 46.5011 67.0039 46.9971 66.7959C46.4121 67.0419 47.1821 68.1729 47.4941 68.8609C48.0301 70.0389 48.5611 71.2179 49.2051 72.3419C49.9231 73.5929 45.0251 75.3319 44.0861 75.7019C41.9911 76.5299 39.6201 77.2979 37.7201 78.5049C36.0781 79.5469 36.1781 79.1429 35.7001 77.5929C35.4291 76.7169 34.9801 75.8609 34.8611 74.9489C34.8131 74.5809 34.2781 74.5519 34.1561 74.8849C33.5471 76.5499 32.4721 78.0109 31.9181 79.6819C31.3991 81.2519 27.4541 80.5329 25.9681 80.5839C24.4541 80.6369 24.7821 80.3739 25.1911 79.1629C25.4491 78.4009 25.6591 77.7519 25.8161 76.9609C26.2721 74.6659 26.9531 72.5139 27.0011 70.1509C27.0051 69.9309 26.6971 69.9019 26.6621 70.1189Z" fill="black"/>
<path d="M28.102 81.5799C27.803 83.6839 27.857 85.8169 27.57 87.9269C27.292 89.9649 26.773 91.9539 26.559 94.0129C26.411 95.4429 22.921 94.6229 21.996 94.3719C21.328 94.1899 19.386 92.7259 20.838 92.8229C22.077 92.9059 23.031 93.4089 24.108 94.0329C24.54 94.2829 24.99 93.6419 24.555 93.3959C24.097 93.1379 18.793 90.6279 19.2 92.9379C19.717 95.8679 24.9 95.6979 26.918 95.2469C27.077 95.2119 27.221 95.0829 27.229 94.9099C27.445 90.4149 28.653 86.1559 28.489 81.6169C28.48 81.3719 28.138 81.3249 28.102 81.5799Z" fill="black"/>
<path d="M35.608 77.6342C35.615 77.6642 35.622 77.6942 35.629 77.7232C35.659 77.8462 35.758 77.9122 35.882 77.9002C40.261 77.4852 44.347 74.0382 47.787 71.5852C47.805 71.5722 47.783 71.5492 47.767 71.5602C45.656 72.9582 43.554 74.3172 41.215 75.2962C40.405 75.6352 36.606 77.9492 35.892 77.4532C35.768 77.3662 35.57 77.4752 35.608 77.6342Z" fill="black"/>
<path d="M25.0986 79.1351C26.2206 79.4221 27.4036 79.3681 28.5546 79.3441C29.8286 79.3171 31.1236 79.4111 32.3666 79.0831C32.7366 78.9861 32.6356 78.4901 32.2646 78.5091C29.9266 78.6241 27.4436 78.4691 25.1276 78.8121C24.9706 78.8351 24.9326 79.0931 25.0986 79.1351Z" fill="black"/>
<path d="M42.4786 52.4452C45.0516 53.7252 47.3067 54.4962 50.1116 55.1682C53.1386 55.8942 56.1676 55.7622 59.2466 55.7832C59.8406 55.7872 59.9376 54.8722 59.3336 54.8552C56.2736 54.7682 53.3447 54.8692 50.3117 54.2932C47.6857 53.7952 45.1156 52.7032 42.4956 52.3732C42.4506 52.3672 42.4426 52.4272 42.4786 52.4452Z" fill="black"/>
<path d="M59.7442 54.6761C60.3252 54.8691 60.8322 54.4051 61.2732 54.0591C61.5562 53.8381 61.8282 53.6041 62.0992 53.3681C62.2912 53.2011 62.5602 53.0351 62.7022 52.8231C62.9492 52.4541 62.5622 52.0711 62.1822 52.2071C61.9722 52.2821 61.7852 52.5141 61.6242 52.6621C61.3642 52.9011 61.1052 53.1421 60.8482 53.3841C60.4272 53.7811 60.0202 54.1611 59.7262 54.6191C59.7142 54.6391 59.7212 54.6681 59.7442 54.6761Z" fill="black"/>
<path d="M60.0371 56.6561C60.0941 56.7421 60.1071 56.9141 60.1741 57.0351C60.2951 57.2531 60.4521 57.4501 60.5731 57.6691C60.8311 58.1351 61.0051 58.6441 61.3121 59.0831C61.4121 59.2271 61.6051 59.2631 61.7661 59.2471C62.6881 59.1561 61.7071 57.8711 61.4961 57.5511C61.2861 57.2321 61.0581 56.9301 60.7541 56.6951C60.5001 56.4961 60.3151 56.5821 60.0511 56.6181C60.0321 56.6201 60.0281 56.6421 60.0371 56.6561Z" fill="black"/>
<path d="M60.9916 56.0218C61.3136 56.1398 61.6306 56.2078 61.9636 56.2858C62.3296 56.3708 62.5446 56.5338 62.9146 56.3948C63.0356 56.3488 63.1276 56.1778 63.0916 56.0508C62.8616 55.2368 61.7836 55.5118 61.1356 55.3928C60.7646 55.3248 60.6536 55.8978 60.9916 56.0218Z" fill="black"/>
<path d="M40.6905 80.8622C42.2695 85.6002 44.5115 90.1232 46.6475 94.6292C46.7325 94.8102 46.9495 94.8812 47.1295 94.8002C48.8535 94.0292 54.3735 92.6502 53.5805 89.8652C52.4205 85.7922 47.4095 90.6102 46.3025 91.9712C45.9685 92.3822 46.6475 92.8572 46.9765 92.4432C47.5165 91.7632 48.0965 91.1322 48.7265 90.5342C49.1435 90.1522 49.5955 89.8172 50.0835 89.5292C51.3505 88.7422 53.5425 90.1822 52.2805 91.4102C51.1855 92.4752 49.4725 93.0482 48.0845 93.6162C47.2825 93.9452 47.2645 94.2432 46.8915 93.4652C46.2105 92.0432 45.5285 90.6222 44.8545 89.1982C43.5245 86.3912 42.2805 83.5452 40.9575 80.7352C40.8745 80.5582 40.6315 80.6862 40.6905 80.8622Z" fill="black"/>
<path d="M7.02939 64.5725C7.07139 64.5725 7.07739 64.5085 7.03539 64.5085C6.99339 64.5085 6.98739 64.5725 7.02939 64.5725Z" fill="black"/>
<path d="M9.3375 62.0741C9.3795 62.0741 9.3855 62.0101 9.3435 62.0101C9.3015 62.0101 9.2955 62.0741 9.3375 62.0741Z" fill="black"/>
<path d="M9.94524 62.288C15.4922 60.777 21.6422 60.807 26.1392 56.778C26.5962 56.368 25.9792 55.635 25.5222 56.049C21.1352 60.028 15.0702 59.803 9.80024 61.835C9.54924 61.932 9.68424 62.359 9.94524 62.288Z" fill="black"/>
<path d="M7.35789 61.1395C8.04589 61.2185 8.69489 61.7435 9.38889 61.6955C9.52289 61.6855 9.62389 61.4965 9.55089 61.3815C9.14089 60.7345 8.10589 60.6035 7.40789 60.6115C7.07189 60.6145 7.01189 61.0995 7.35789 61.1395Z" fill="black"/>
<path d="M7.90958 65.0306C8.53858 64.8536 8.99558 64.4986 9.47558 64.0656C9.72958 63.8366 9.98558 63.6086 10.2496 63.3906C10.5036 63.1816 10.7836 63.0646 10.9906 62.8076C11.1766 62.5756 10.9256 62.3176 10.6866 62.3316C10.1346 62.3626 9.62758 62.9096 9.25758 63.2806C8.76958 63.7676 8.29058 64.2606 7.74958 64.6906C7.60558 64.8056 7.72058 65.0846 7.90958 65.0306Z" fill="black"/>
<path d="M7.03325 63.6277C7.45725 63.6507 7.79425 63.5777 8.19525 63.4197C8.58725 63.2667 9.09125 63.0897 9.28325 62.6887C9.36025 62.5267 9.21525 62.3787 9.07025 62.3487C8.36325 62.2007 7.70925 63.1037 7.01625 63.1977C6.77325 63.2307 6.78825 63.6137 7.03325 63.6277Z" fill="black"/>
</svg>
