<svg width="82" height="111" viewBox="0 0 82 111" fill="none" xmlns="http://www.w3.org/2000/svg">
<path d="M25.5119 108.922C27.0339 109.516 29.0249 109.571 30.6479 109.654C30.6919 109.194 30.7349 108.734 30.7789 108.275C30.5969 108.275 30.4219 108.277 30.2419 108.303C30.0099 108.336 29.8169 108.513 29.7339 108.727C29.4909 109.352 30.1399 109.634 30.6479 109.654C31.5439 109.69 31.6649 108.283 30.7789 108.275C29.1399 108.259 27.1549 107.736 25.5739 108.238C25.2539 108.34 25.1529 108.782 25.5119 108.922Z" fill="#3B79BD"/>
<path d="M47.3069 110.197C48.2269 110.878 49.5189 110.153 50.4029 109.738C51.0469 109.435 51.6739 109.098 52.3319 108.823C52.9699 108.558 53.4889 108.657 54.1389 108.653C54.3949 108.651 54.5919 108.468 54.5559 108.2C54.3699 106.822 52.6399 107.312 51.7869 107.676C50.2539 108.332 48.8209 109.297 47.3209 110.036C47.2559 110.067 47.2499 110.155 47.3069 110.197Z" fill="#3B79BD"/>
<path d="M47.6329 109.095C48.9299 109.218 50.1419 108.212 51.2179 107.646C51.4669 107.515 51.4449 107.043 51.1129 107.053C50.4709 107.07 49.9349 107.149 49.3489 107.428C48.7059 107.732 48.0069 108.018 47.4209 108.422C47.1379 108.617 47.3269 109.066 47.6329 109.095Z" fill="#3B79BD"/>
<path d="M18.9837 13.3007C17.3217 14.2057 15.7097 15.8717 15.7097 17.9257C15.7097 18.9407 16.0787 19.9487 16.7027 20.7287C17.2757 21.4457 16.6287 23.9777 16.7837 24.9667C17.8587 31.8477 21.0527 39.4277 25.8907 44.5077C35.5897 54.6937 54.8257 52.9327 63.7537 42.7207C62.3957 42.5457 61.0397 42.3707 59.6817 42.1957C60.7937 44.4527 61.4417 45.9057 64.2447 46.0997C65.4237 46.1807 66.4017 45.2407 66.7447 44.1967C67.5227 41.8247 65.5227 38.6327 64.6157 36.5547C62.8367 32.4797 60.0377 29.0757 57.3007 25.6017C51.6197 18.3897 42.6537 12.9167 33.4707 11.7527C29.2347 11.2157 19.3887 10.5957 18.7107 16.7967C18.1147 22.2257 26.3577 20.1977 28.9277 18.7587C27.6587 17.7827 26.3887 16.8077 25.1207 15.8317C23.2457 21.5747 20.2107 26.3107 19.6467 32.5267C19.4627 34.5567 21.9627 35.6597 23.5467 34.7647C26.0287 33.3627 26.8187 30.5187 27.6187 27.9517C28.8667 23.9437 30.9727 19.7107 34.8807 17.7387C33.5807 16.9927 32.2807 16.2467 30.9807 15.5007C30.7567 17.4337 28.3487 19.8117 27.3057 21.3947C26.0897 23.2407 25.0027 25.1777 23.8027 27.0397C21.9807 29.8667 20.0417 33.1607 20.8057 36.6247C21.2457 38.6177 23.7767 39.0167 25.1377 37.7687C29.9507 33.3517 30.1027 23.4847 35.9627 20.3027C34.6627 19.5567 33.3627 18.8107 32.0627 18.0647C31.9237 21.5907 29.6127 24.6897 27.9757 27.6927C26.1587 31.0267 24.7147 35.2437 24.1287 38.9807C23.6807 41.8257 27.1797 43.5567 28.8657 40.9777C32.4567 35.4857 35.9797 24.9357 42.4277 22.1167C41.1587 21.1407 39.8887 20.1647 38.6207 19.1897C37.1997 22.6737 34.1627 25.9187 31.9097 28.8947C29.0947 32.6137 26.9717 37.0387 24.9017 41.1967C23.4127 44.1867 27.5387 46.6187 29.3787 43.8127C32.3447 39.2877 35.3387 34.7537 38.5267 30.3807C40.2537 28.0107 42.1127 23.1667 45.1977 22.4417C44.1337 21.3787 43.0717 20.3157 42.0087 19.2527C40.5497 22.9607 36.8247 26.0967 34.7227 29.5117C32.1067 33.7647 29.3177 37.8597 27.1397 42.3677C25.8797 44.9757 28.9997 47.6097 31.2117 45.5087C34.2817 42.5917 36.6277 39.1367 39.2147 35.8067C41.5307 32.8277 43.8917 28.9887 47.1397 27.0067C45.8707 26.0307 44.6007 25.0547 43.3327 24.0797C42.2217 27.2937 39.3177 30.7907 37.5477 33.7217C35.7857 36.6417 33.9287 39.2767 32.8197 42.5317C31.8397 45.4037 36.0467 46.9457 37.5567 44.5287C41.6367 38.0037 46.5297 32.1417 51.6237 26.3927C50.4017 25.1707 49.1787 23.9487 47.9577 22.7267C42.1477 30.2447 36.2117 37.6227 32.4327 46.4217C31.3307 48.9907 34.2587 51.7787 36.5047 49.5627C39.1607 46.9417 40.9397 43.3977 43.4257 40.5657C46.3387 37.2487 49.3647 33.7907 53.2697 31.6417C51.9687 30.8957 50.6697 30.1497 49.3697 29.4037C49.1967 31.0927 46.5817 33.0367 45.4837 34.2637C43.2837 36.7247 41.7077 39.6527 40.4467 42.6727C39.3417 45.3177 43.0367 46.6627 44.7787 45.1947C48.4997 42.0597 51.2527 36.0597 55.9987 34.2247C54.9347 33.1617 53.8727 32.0987 52.8097 31.0357C52.0717 33.7247 49.7337 35.2607 48.1387 37.3887C46.3827 39.7327 44.8347 41.9657 43.7987 44.7127C42.8337 47.2747 46.3767 48.8947 48.1307 47.2347C51.1677 44.3617 53.4757 40.6867 57.0987 38.4917C55.9167 37.3097 54.7347 36.1277 53.5517 34.9457C51.0007 38.4657 48.0267 41.2567 46.3297 45.3247C45.3717 47.6197 48.3537 49.1547 50.1367 48.2527C52.2887 47.1627 56.9057 40.6987 59.0117 41.0857C58.4967 39.8157 57.9797 38.5467 57.4627 37.2777C57.2107 37.7557 56.9567 38.2327 56.7027 38.7107C58.1777 39.3217 59.6527 39.9327 61.1277 40.5437C61.1307 40.3547 61.1347 40.1667 61.1377 39.9787C61.2017 36.6337 56.0177 36.6397 55.9547 39.9787C55.9507 40.1667 55.9467 40.3547 55.9437 40.5437C55.9037 42.6337 58.9227 44.2077 60.3687 42.3767C61.0737 41.4827 61.4767 40.9437 61.9397 39.8937C62.5547 38.4977 62.1927 36.4167 60.3907 36.0867C54.5447 35.0137 52.0057 41.5037 47.5197 43.7757C48.7897 44.7517 50.0587 45.7277 51.3277 46.7027C52.7807 43.2197 55.8377 40.5857 58.0287 37.5617C59.5977 35.3957 56.5947 32.7357 54.4817 34.0147C50.4297 36.4697 47.8547 40.3627 44.4647 43.5687C45.9097 44.4097 47.3537 45.2507 48.7967 46.0907C50.7847 40.8177 56.3147 37.8567 57.8077 32.4137C58.2907 30.6557 56.5217 28.4897 54.6197 29.2257C48.6667 31.5287 45.7657 37.6077 41.1127 41.5287C42.5567 42.3697 44.0017 43.2107 45.4447 44.0507C47.6117 38.8627 53.9747 35.0807 54.5527 29.4037C54.7617 27.3527 52.2247 26.2997 50.6527 27.1647C46.8177 29.2767 43.8927 32.4147 40.9397 35.5927C37.9957 38.7627 35.8637 42.9107 32.8377 45.8967C34.1957 46.9447 35.5517 47.9907 36.9097 49.0377C40.5147 40.6397 46.0737 33.5737 51.6237 26.3927C53.6057 23.8267 50.2257 20.1657 47.9577 22.7267C42.5747 28.8037 37.3917 35.0167 33.0807 41.9127C34.6597 42.5777 36.2387 43.2437 37.8177 43.9097C40.0997 37.2147 46.0447 32.0817 48.3307 25.4577C49.0837 23.2787 46.3917 21.3897 44.5227 22.5297C37.3197 26.9277 33.5837 36.1067 27.5457 41.8427C28.9027 42.8897 30.2587 43.9367 31.6167 44.9837C33.7897 40.4847 36.5357 36.3447 39.1997 32.1287C41.6667 28.2227 45.2997 24.9707 47.0067 20.6307C47.7747 18.6817 45.5597 17.0327 43.8187 17.4427C40.0387 18.3317 37.7317 22.2057 35.7247 25.2237C32.1647 30.5797 28.4297 35.8167 24.9017 41.1967L29.3787 43.8127C31.4887 39.5737 33.7917 35.4737 36.3857 31.5107C38.7967 27.8297 41.9417 24.6807 43.6187 20.5677C44.5907 18.1837 41.5937 16.8607 39.8107 17.6397C32.2817 20.9327 28.5497 31.9977 24.3887 38.3617C25.9677 39.0277 27.5467 39.6937 29.1267 40.3587C30.3697 32.4507 36.9347 26.0087 37.2467 18.0647C37.3267 16.0317 35.0047 14.9257 33.3457 15.8257C26.4407 19.5757 26.8037 29.2107 21.4717 34.1027C22.9167 34.4837 24.3607 34.8647 25.8037 35.2467C25.2417 32.6967 28.9767 28.6427 30.2607 26.5947C32.4127 23.1627 35.6907 19.5957 36.1647 15.5007C36.4087 13.3967 33.8257 12.4757 32.2637 13.2627C28.9587 14.9307 26.8307 17.7587 24.9697 20.8847C23.7137 22.9937 22.9197 29.1647 20.9297 30.2877C22.2307 31.0337 23.5307 31.7797 24.8307 32.5267C25.3407 26.8927 28.4147 22.4297 30.1187 17.2097C30.8487 14.9737 28.2127 13.2177 26.3107 14.2827C25.4527 14.7637 24.4637 14.9487 23.5107 15.1577C21.7447 15.0807 22.1057 15.7627 24.5957 17.2047C25.7297 16.7607 27.0257 16.7177 28.2247 16.6387C33.7107 16.2757 38.9777 18.2537 43.7297 20.7957C48.4277 23.3097 51.8737 26.9237 55.0657 31.1117C56.6807 33.2307 58.2657 35.3007 59.4867 37.6767C59.7277 38.1457 61.7627 42.7647 61.7457 42.8187C62.5787 42.1837 63.4117 41.5497 64.2447 40.9157C65.3457 40.9917 64.7277 40.7367 64.1587 39.5797C63.4467 38.1347 61.1427 37.8477 60.0877 39.0547C52.6907 47.5167 37.8367 48.5207 29.5557 40.8417C25.9857 37.5307 24.7197 32.8447 23.0547 28.4537C22.5427 27.0997 20.9247 18.1447 21.6007 17.7777C24.5367 16.1777 21.9207 11.7017 18.9837 13.3007Z" fill="#D89B5D"/>
<path d="M32.0568 79.306C31.7418 83.387 30.1668 87.307 29.9108 91.41C29.7308 94.285 30.2508 98.693 33.6308 99.214C35.3278 99.476 36.6408 98.55 36.7958 96.804C37.0778 93.638 37.0418 90.389 39.1698 87.805C39.8068 87.222 40.4878 86.694 41.2098 86.223C42.2368 85.924 42.3298 85.415 41.4918 84.697C41.8518 85.714 41.9328 86.791 42.3168 87.819C43.5768 91.189 45.5778 98.499 50.4748 97.913C51.6788 97.769 52.4548 97.234 52.8858 96.078C53.5418 94.311 52.5938 92.78 51.7578 91.235C49.5898 87.235 50.9988 83.239 53.6268 79.897C55.0468 78.093 53.8238 74.905 51.1948 75.719C49.3828 76.281 47.7418 77.186 45.8728 77.553C42.9328 78.13 40.1468 77.644 37.1968 77.829C34.5668 77.993 33.9768 81.002 35.9348 82.488C37.4588 83.644 39.4448 83.911 41.3138 84.142C43.7818 84.448 46.3608 85.422 48.8308 84.862C51.0308 84.364 51.1738 81.389 49.4278 80.293C46.0348 78.161 41.5728 78.642 37.8888 77.493C37.6668 79.13 37.4458 80.767 37.2238 82.404C41.7738 81.857 46.1928 81.704 50.6618 80.707C53.8118 80.005 52.4738 75.207 49.3318 75.886C45.6558 76.681 42.0778 79.206 38.8678 81.094C35.5548 83.041 33.4328 86.628 32.6798 90.352C32.0428 93.509 36.4768 94.751 37.5018 91.681C38.4408 88.871 39.2248 85.778 41.4258 83.677C43.7628 81.447 40.2218 77.917 37.8908 80.142C35.0478 82.855 33.8968 86.711 32.6798 90.352C34.2868 90.795 35.8948 91.239 37.5018 91.681C38.1558 88.443 39.7678 86.365 42.5808 84.711C45.0228 83.276 47.8518 81.315 50.6618 80.707C50.2188 79.1 49.7758 77.493 49.3318 75.886C45.3078 76.784 41.3178 76.912 37.2238 77.404C34.5168 77.729 33.7048 81.425 36.5588 82.315C39.7788 83.319 43.9568 82.759 46.9048 84.61C47.1038 83.087 47.3028 81.564 47.5008 80.041C46.5738 80.251 45.2278 79.625 44.2798 79.509C42.4488 79.283 40.0058 79.344 38.4578 78.17C38.0368 79.723 37.6178 81.276 37.1968 82.829C39.6218 82.677 42.1488 83.307 44.5438 82.88C47.4098 82.369 49.7838 81.389 52.5248 80.54C51.7128 79.148 50.9028 77.755 50.0918 76.362C48.0008 79.02 46.0738 81.984 45.7288 85.44C45.5388 87.345 45.7338 89.019 46.2268 90.867C46.4038 91.53 48.1378 94.55 48.0638 94.749L50.4748 92.913C48.7238 93.123 46.7638 85.681 46.4828 84.153C46.1058 82.106 44.5758 79.569 42.0778 80.265C34.1108 82.486 32.4378 89.605 31.7958 96.804C32.8508 96 33.9058 95.197 34.9608 94.393C34.0098 94.246 35.2788 94.685 35.0538 93.043C34.7888 91.119 35.1378 89.435 35.5288 87.568C36.0958 84.856 36.8428 82.069 37.0568 79.306C37.3058 76.089 32.3038 76.113 32.0568 79.306Z" fill="#2090CF"/>
<path d="M34.7102 54.031C32.7962 58.731 31.9302 63.908 30.6512 68.806C29.5342 73.087 31.4502 76.372 35.6262 77.656C39.8792 78.964 45.0812 76.187 49.4562 76.312C53.5852 76.431 56.2182 73.658 55.9792 69.619C55.7492 65.756 53.3242 61.268 51.7862 57.793C49.8352 53.385 47.1612 51.051 42.1482 51.518C38.1352 51.893 36.3102 55.293 35.7182 58.881C34.9102 63.781 33.5572 68.543 34.8392 73.452C35.5262 76.082 38.7732 75.567 39.6612 73.452C41.6212 68.784 39.9602 62.912 42.1302 58.132C40.5772 57.711 39.0242 57.29 37.4722 56.87C37.4092 62.383 35.6642 68.545 37.6562 73.914C38.4102 75.946 42.1042 76.623 42.4792 73.914C43.2362 68.432 43.2722 62.641 43.7392 57.093H38.7392C38.7732 62.096 39.7842 67.828 41.3022 72.582C42.1552 75.253 46.1782 74.792 46.2132 71.917C46.2742 66.882 44.4222 61.97 45.1332 56.855H40.3112C41.1542 58.876 41.1772 61.469 41.5882 63.629C42.1432 66.542 43.1062 69.678 43.3042 72.619C43.5192 75.819 48.1792 75.861 48.3042 72.619C48.5242 66.927 46.0632 61.529 46.0982 55.82C44.4612 56.041 42.8242 56.262 41.1872 56.484C41.7512 59.506 43.2692 62.606 44.3152 65.511C45.1532 67.838 45.5582 70.341 46.4252 72.622C47.1902 74.632 50.8772 75.347 51.2472 72.622C52.0602 66.636 48.7902 61.38 47.8272 55.698L43.2572 57.624C46.1142 62.116 47.1272 67.697 47.9762 72.863C48.4982 76.039 53.3152 74.687 52.7982 71.534C51.8802 65.951 50.6602 59.95 47.5752 55.1C45.9852 52.601 42.5412 54.29 43.0052 57.027C43.7862 61.631 47.0862 66.424 46.4252 71.293H51.2472C50.3802 69.015 49.9592 66.509 49.1382 64.182C48.1292 61.329 46.5572 58.093 46.0092 55.155C45.4802 52.317 41.1142 53.071 41.0982 55.82C41.0632 61.509 43.5222 66.981 43.3042 72.619H48.3042C48.1032 69.627 47.2072 66.71 46.6862 63.755C46.2202 61.112 46.1692 58.01 45.1332 55.526C44.3212 53.584 40.6972 52.746 40.3112 55.526C39.5292 61.156 41.2802 66.378 41.2132 71.917C42.8502 71.696 44.4862 71.474 46.1242 71.253C44.7422 66.925 43.7702 61.623 43.7392 57.093C43.7172 53.825 39.0072 53.926 38.7392 57.093C38.3112 62.17 38.3512 67.57 37.6562 72.585H42.4792C40.6472 67.649 42.4142 61.919 42.4722 56.87C42.4982 54.518 38.8742 53.272 37.8142 55.608C36.7132 58.032 36.3542 60.603 35.9762 63.224C35.5822 65.959 35.8952 69.61 34.8392 72.123H39.6612C38.8452 69.001 39.5392 66.179 40.1782 63.09C40.5792 61.143 40.4352 59.109 41.3342 57.279C42.3782 55.154 45.6382 56.816 46.3682 57.965C47.1732 59.232 47.6442 60.759 48.1832 62.152C49.0962 64.512 50.1672 66.844 50.8722 69.276C51.6882 72.083 46.4272 71.37 44.6302 71.601C42.2042 71.913 39.9192 72.762 37.4622 72.866C33.8132 73.022 36.7122 65.211 37.0222 63.957C37.7312 61.082 38.4132 58.107 39.5322 55.36C40.7492 52.373 35.9102 51.086 34.7102 54.031Z" fill="#DCA628"/>
<path d="M30.9133 73.4686C32.5753 74.4786 34.4353 74.1546 36.2823 74.5166C38.6093 74.9726 41.1263 74.6106 43.4323 74.2196C45.9803 73.7876 48.5253 73.2776 51.0103 72.5576C52.8483 72.0246 54.9343 71.5046 56.3373 70.1446C56.4753 70.0106 56.3303 69.7396 56.1433 69.8456C52.7883 71.7676 48.8003 72.5106 45.0413 73.2366C42.7293 73.6826 40.4543 74.0516 38.0903 74.0296C35.9043 74.0076 33.1733 73.7896 31.0853 73.1396C30.8913 73.0796 30.7243 73.3536 30.9133 73.4686Z" fill="#76571C"/>
<path d="M31.4485 69.4046C33.1775 70.2866 35.5005 70.0516 37.3845 70.0646C39.7825 70.0796 42.1675 69.8826 44.5595 69.7656C47.5075 69.6226 52.6385 69.3626 54.6215 66.7726C54.7195 66.6456 54.5405 66.4976 54.4225 66.5906C51.8405 68.6076 47.6095 68.9866 44.4575 69.1816C42.1195 69.3256 39.7805 69.4596 37.4385 69.4896C35.6155 69.5136 33.2965 69.7146 31.5365 69.1676C31.3775 69.1176 31.3055 69.3316 31.4485 69.4046Z" fill="#76571C"/>
<path d="M32.3744 65.4267C38.5854 66.7967 45.2924 67.2877 51.4354 65.4087C51.6704 65.3377 51.6204 64.9657 51.3664 65.0217C47.8604 65.7927 44.5734 66.1677 40.9744 65.9927C38.0904 65.8537 35.2674 65.3787 32.4014 65.1457C32.2144 65.1297 32.2014 65.3887 32.3744 65.4267Z" fill="#76571C"/>
<path d="M33.8654 62.1336C37.2564 62.5406 40.3544 62.8536 43.7244 62.2106C46.2394 61.7316 49.4014 61.2436 51.4264 59.5456C51.5434 59.4466 51.4204 59.2716 51.2844 59.3266C48.7864 60.3576 46.2764 61.1126 43.6284 61.6646C40.3264 62.3516 37.2154 61.8866 33.8964 61.7966C33.6794 61.7906 33.6464 62.1076 33.8654 62.1336Z" fill="#76571C"/>
<path d="M33.6691 58.5047C39.5141 59.8197 45.8741 60.1717 51.5291 57.9097C51.7541 57.8197 51.5911 57.5047 51.3711 57.5767C48.4791 58.5357 45.3831 58.8207 42.3531 58.8617C39.4341 58.9007 36.5841 58.0757 33.7041 58.1377C33.4641 58.1427 33.4381 58.4527 33.6691 58.5047Z" fill="#76571C"/>
<path d="M36.4554 53.0219C31.2724 57.6349 30.5284 65.4589 29.8024 71.8999C28.9914 79.0809 37.7044 78.4069 42.3514 77.8019C46.9824 77.1989 56.1874 77.4399 56.8124 71.1289C57.0984 68.2449 55.6034 64.9399 54.6184 62.3019C53.2304 58.5849 51.2674 55.1249 49.0064 51.8759C48.6704 51.3929 48.0344 51.8429 48.0704 52.3149C48.0754 52.3779 48.0804 52.4399 48.0854 52.5029C48.1044 52.7559 48.3444 52.8969 48.5614 52.9429C48.6234 52.9559 48.6844 52.9689 48.7454 52.9819C49.4214 53.1239 49.5144 52.0549 48.8474 51.9159L49.1254 52.1289C48.8124 52.2759 48.5014 52.4219 48.1894 52.5679C51.4784 57.2859 53.9334 62.4839 55.3784 68.0579C56.2784 71.5299 55.3424 74.1999 51.7094 75.2589C49.2434 75.9769 46.5864 76.1779 44.0564 76.5399C41.1434 76.9559 38.2364 77.4509 35.2964 77.0709C33.7914 76.8759 32.4504 76.3499 31.4234 75.2029C30.1584 73.7909 30.8114 71.1559 31.0784 69.4879C31.5514 66.5459 31.6554 63.6899 32.5784 60.8169C33.4784 58.0119 35.1514 55.7079 36.7294 53.2719C36.8434 53.0969 36.6184 52.8769 36.4554 53.0219Z" fill="#76571C"/>
<path d="M33.0345 77.5438C32.3565 78.4478 32.3205 79.8888 32.0515 80.9478C31.5985 82.7278 30.9985 84.4018 30.6895 86.2248C30.0095 90.2418 29.8375 94.5648 29.7555 98.6348C29.7505 98.8968 29.9225 99.1808 30.2135 99.1888C32.4185 99.2508 34.1395 99.6418 36.1985 100.402C36.5495 100.531 36.9595 100.218 36.8755 99.8368C36.0895 96.2648 37.1915 93.2038 39.1215 90.2098C39.5565 89.5348 40.0265 88.8798 40.5365 88.2598C41.0045 87.6908 41.5535 87.1828 42.1825 86.7998C43.1365 86.2198 43.2295 88.3968 43.2565 88.6758C43.4575 90.7788 44.0935 92.7958 45.0255 94.6828C45.6885 96.0258 47.2085 98.6918 48.8955 98.8958C50.2915 99.0638 52.2415 98.2058 53.3455 97.4238C54.5065 96.6018 54.4155 95.6898 53.9225 94.4558C52.7945 91.6298 52.3705 88.7238 52.4075 85.6828C52.4455 82.5258 53.8915 79.2638 54.8025 76.2528C54.9855 75.6468 54.0625 75.3028 53.8785 75.9108C53.1845 78.1928 52.1445 80.6018 51.7175 82.9338C51.1845 85.8348 51.3475 88.7448 51.9105 91.6268C52.0955 92.5738 52.3925 93.5108 52.7565 94.4028C53.1835 95.4528 53.8315 96.1108 52.1245 96.8478C51.4935 97.1198 50.8785 97.4078 50.2595 97.7038C46.8415 99.3388 44.6175 90.8908 44.3065 89.0208C44.1105 87.8418 44.2635 86.0998 42.8375 85.6818C41.8135 85.3828 40.6205 86.6448 40.0445 87.2928C36.9345 90.7868 34.8385 95.3058 35.8755 100.014C36.1005 99.8248 36.3265 99.6368 36.5525 99.4488C34.3245 98.6268 32.7095 98.2448 30.3085 98.1778C30.4615 98.3618 30.6135 98.5458 30.7665 98.7308C30.8005 95.1728 31.1495 91.6368 31.3835 88.0888C31.5185 86.0238 31.9595 84.0188 32.5685 82.0448C32.9695 80.7518 33.0115 79.0268 33.6105 77.8458C33.7865 77.5018 33.2485 77.2578 33.0345 77.5438Z" fill="#116FA3"/>
<path d="M32.9865 99.4916C32.6195 101.224 32.3415 102.977 32.0235 104.719C31.7765 106.068 32.0945 108.545 30.7195 109.096C29.5795 109.555 28.5905 109.625 27.3895 109.513C26.8325 109.462 24.6795 108.444 26.3045 108.223C28.0795 107.982 29.5925 108.83 31.2925 109.075C31.9395 109.168 32.0075 108.198 31.3855 108.078C29.1415 107.647 26.2715 106.214 24.1855 107.964C24.0175 108.105 23.9425 108.379 24.0525 108.578C24.6855 109.713 25.5545 110.17 26.8015 110.454C28.8335 110.917 30.1325 110.023 32.0205 109.734C32.2125 109.705 32.4275 109.511 32.4205 109.303C32.2885 105.981 33.5465 102.787 33.4065 99.4746C33.3955 99.2156 33.0315 99.2796 32.9865 99.4916Z" fill="black"/>
<path d="M47.7874 78.8622C47.4534 80.6162 47.8454 83.3422 50.0004 83.6742C50.3734 83.7322 50.6084 83.1532 50.2624 82.9642C49.4704 82.5322 48.9944 82.0982 48.6244 81.2602C48.2964 80.5152 48.2144 79.6492 48.1464 78.8472C48.1294 78.6292 47.8224 78.6752 47.7874 78.8622Z" fill="#116FA3"/>
<path d="M50.8547 77.0058C50.2707 77.8738 50.1687 78.8258 50.0887 79.8578C49.9227 82.0048 49.7417 84.2068 49.8707 86.3598C50.0287 89.0168 50.3097 93.5928 52.4797 95.5088C52.8297 95.8178 53.1937 95.2808 52.9827 94.9568C51.4947 92.6768 51.0107 89.6948 50.7317 87.0328C50.4287 84.1518 50.2537 80.0128 51.3117 77.2458C51.4177 76.9688 51.0197 76.7598 50.8547 77.0058Z" fill="#116FA3"/>
<path d="M47.0461 96.5829C49.0701 97.0439 52.1371 96.6599 53.7541 95.2719C53.9661 95.0899 53.8081 94.6519 53.5051 94.7429C52.4171 95.0689 51.4211 95.5539 50.2941 95.7809C49.2161 95.9979 48.1121 95.9589 47.0261 96.0929C46.7251 96.1299 46.7961 96.5259 47.0461 96.5829Z" fill="#116FA3"/>
<path d="M30.6066 95.518C32.0976 96.051 33.1356 97.876 34.9016 97.349C35.2016 97.26 35.2456 96.762 34.8776 96.754C33.2436 96.716 32.2686 95.294 30.7116 95.054C30.4396 95.012 30.3536 95.428 30.6066 95.518Z" fill="#116FA3"/>
<path d="M32.3946 81.2426C33.9566 81.9366 35.5506 79.8256 36.2366 78.6916C36.3846 78.4456 36.0986 78.1756 35.8666 78.3536C34.6816 79.2636 34.0646 80.7466 32.4216 80.9416C32.2566 80.9606 32.2626 81.1836 32.3946 81.2426Z" fill="#116FA3"/>
<path d="M38.2092 78.3617C37.3842 79.8717 39.0932 81.6247 40.4042 82.1277C40.7722 82.2687 40.9712 81.7857 40.7042 81.5547C40.2302 81.1447 39.7142 80.7997 39.2902 80.3307C38.7882 79.7757 38.7132 79.1477 38.5872 78.4447C38.5582 78.2797 38.3012 78.1937 38.2092 78.3617Z" fill="#116FA3"/>
<path d="M40.6554 77.955C40.2664 79.438 40.1584 80.827 40.4844 82.322C40.6984 83.301 41.0164 84.437 41.9674 84.906C42.1714 85.006 42.3564 84.711 42.2144 84.554C41.5084 83.773 41.2174 82.595 40.9544 81.613C40.6304 80.402 40.9724 79.199 40.8744 77.975C40.8644 77.864 40.6834 77.848 40.6554 77.955Z" fill="#116FA3"/>
<path d="M36.174 54.0678C36.804 55.6158 38.883 59.0978 40.271 56.4428C40.976 55.0958 41.383 54.5428 42.695 55.6998C43.287 56.2208 43.871 56.4268 44.639 56.4908C45.034 56.5248 45.305 56.2008 45.515 55.9258C45.681 55.7098 45.749 55.3588 45.828 55.1068C46.072 54.3258 46.592 53.6908 47.026 53.0068C47.347 52.4998 46.592 51.9648 46.26 52.4708C45.933 52.9698 45.506 53.4668 45.258 54.0118C44.879 54.8448 44.845 55.9448 43.621 55.2858C43.015 54.9598 41.912 53.3888 41.023 53.9098C40.117 54.4398 39.788 55.6128 39.285 56.4868C38.972 57.0298 37.9 55.3148 37.838 55.2028C37.558 54.6918 36.803 54.4008 36.426 53.9048C36.318 53.7618 36.111 53.9148 36.174 54.0678Z" fill="#76571C"/>
<path d="M33.8039 0.443253C28.1549 1.48925 22.4179 3.79125 19.1659 8.75425C17.1989 11.7553 20.9009 14.3473 23.5889 13.1763C28.1089 11.2093 32.9779 10.5603 37.6909 9.23825C40.0169 8.58625 42.3709 7.74625 44.8259 8.12125C47.6399 8.55125 50.4149 10.3153 52.8949 11.6313C56.2819 13.4283 60.1949 14.9033 62.5059 18.1183C65.5859 22.4013 65.6059 29.5083 64.7079 34.4283C66.6779 34.1713 68.6479 33.9133 70.6169 33.6563C65.0069 23.4643 57.0349 16.8923 46.8519 11.5153C38.4169 7.06225 24.5009 2.03525 16.2839 9.08825C13.3139 11.6373 17.0909 15.6273 20.2019 14.1643C28.2239 10.3933 36.7699 9.81325 45.2409 12.3723C51.9349 14.3943 59.6099 18.1733 63.0959 24.4803C65.1129 28.1293 70.6969 24.8693 68.6779 21.2173C64.2049 13.1243 55.3209 9.10225 46.9589 6.13725C37.1039 2.64325 26.2019 4.22625 16.9389 8.58225C18.2439 10.2743 19.5509 11.9663 20.8569 13.6593C24.2169 10.7753 30.2269 12.4673 34.0629 13.3793C38.4419 14.4183 42.5009 16.4593 46.4129 18.6253C54.5329 23.1213 60.5409 28.7573 65.0339 36.9193C66.3129 39.2413 70.4319 38.9453 70.9429 36.1473C72.0699 29.9633 71.9419 22.8263 69.2219 17.0153C66.7829 11.8063 62.4819 9.41825 57.5949 6.82225C52.3249 4.02225 46.6929 0.574253 40.4849 1.86925C33.7359 3.27625 26.6529 4.83925 20.3249 7.59425C21.7999 9.06825 23.2749 10.5433 24.7479 12.0173C27.0109 8.56525 31.7049 7.38425 35.5229 6.67725C39.6179 5.91925 37.8779 -0.311749 33.8039 0.443253Z" fill="#585C5D"/>
<path d="M19.467 15.8733C18.201 19.4513 16.738 23.1393 16.515 26.9583C16.297 30.6523 17.302 34.3273 18.812 37.6633C21.476 43.5513 26.223 47.7173 32.047 50.3263C43.63 55.5143 58.43 52.8483 64.556 40.9043C64.855 40.3213 63.898 39.9773 63.603 40.5513C57.623 52.2113 43.532 54.0733 32.386 49.4103C26.653 47.0113 22.378 42.8113 19.605 37.2863C17.877 33.8443 17.154 30.0243 17.365 26.1953C17.559 22.6933 19.296 19.4073 19.937 15.9803C19.988 15.7053 19.557 15.6193 19.467 15.8733Z" fill="black"/>
<path d="M61.6242 45.0902C61.2032 46.3122 61.8862 47.3102 63.0402 47.7422C64.2642 48.2012 65.4392 47.4632 66.2152 46.5782C67.7452 44.8312 68.0112 41.2182 65.7402 39.9672C65.2852 39.7172 64.8132 40.3802 65.2732 40.6342C66.7142 41.4322 66.7452 43.2152 66.3362 44.6292C66.1052 45.4232 65.6392 46.1112 65.0092 46.6382C63.7262 47.7092 62.1622 46.7342 62.1662 45.2142C62.1662 44.9112 61.7332 44.7722 61.6242 45.0902Z" fill="black"/>
<path d="M63.6271 43.1332C64.0331 43.6502 64.3801 44.1732 64.6801 44.7602C64.8161 45.0292 65.2781 44.9062 65.2001 44.5942C65.0041 43.8082 64.5511 43.2852 63.8551 42.8832C63.6901 42.7872 63.5021 42.9752 63.6271 43.1332Z" fill="black"/>
<path d="M17.4213 19.8025C16.4873 19.1075 15.8753 18.6355 15.5353 17.4645C15.3233 16.7345 15.5163 16.0145 15.9633 15.4245C16.3203 14.9535 16.8983 14.6265 17.4653 14.4915C18.0173 14.3605 18.2223 14.5355 18.4383 14.9975C18.5073 15.1445 18.7413 15.1805 18.8303 15.0305C19.2013 14.4045 18.6753 13.9195 18.0593 13.8035C17.2273 13.6485 16.2913 14.2015 15.7143 14.7405C14.1013 16.2475 14.8343 20.0695 17.3943 19.9255C17.4573 19.9215 17.4643 19.8345 17.4213 19.8025Z" fill="black"/>
<path d="M16.4504 15.8187C16.8154 16.3507 17.1294 16.9067 17.4524 17.4647C17.6754 17.8477 18.3054 17.5497 18.0774 17.1677C17.7194 16.5677 17.3234 15.9017 16.7024 15.5427C16.5124 15.4337 16.3284 15.6407 16.4504 15.8187Z" fill="black"/>
<path d="M50.514 34.9666C51.138 35.4876 51.821 35.9266 52.502 36.3666C53.556 37.0476 54.528 35.3676 53.481 34.6916C52.941 34.3426 52.38 34.0076 51.885 33.5956C51.48 33.2576 50.912 33.1966 50.514 33.5956C50.165 33.9436 50.108 34.6286 50.514 34.9666Z" fill="black"/>
<path d="M29.7326 21.9721C30.3386 22.3761 30.9996 22.6931 31.6506 23.0181C32.7656 23.5741 33.7496 21.9011 32.6286 21.3431C31.9786 21.0181 31.3176 20.7011 30.7116 20.2971C29.6676 19.6011 28.6976 21.2831 29.7326 21.9721Z" fill="black"/>
<path d="M40.3225 30.5033C40.7235 30.2923 41.4435 30.2523 41.8625 30.3793C41.7955 30.2983 41.7275 30.2173 41.6605 30.1373C41.7345 30.6883 41.7505 31.2463 41.5965 31.7853C41.4155 32.4253 42.3695 32.6393 42.4805 31.9873C42.6005 31.2853 42.4875 30.6973 42.2855 30.0263C42.2435 29.8883 42.1555 29.7823 42.0035 29.7663C41.6305 29.7283 41.2885 29.7563 40.9365 29.8903C40.6425 30.0023 40.5015 30.2333 40.2545 30.3983C40.1945 30.4383 40.2595 30.5363 40.3225 30.5033Z" fill="black"/>
<path d="M30.1634 28.6267C27.4634 36.6417 37.4794 42.3217 44.1284 39.4657C44.7064 39.2177 44.2884 38.3417 43.7104 38.5847C40.6144 39.8887 37.3924 39.4867 34.5794 37.7087C31.3264 35.6517 30.5844 32.3357 30.7294 28.7557C30.7424 28.4337 30.2724 28.2997 30.1634 28.6267Z" fill="#EE313E"/>
<path d="M49.713 43.1477C50.331 44.1797 51.159 44.8157 52.293 45.1957C53.964 45.7557 55.821 44.5657 56.27 42.9377C56.756 41.1687 55.681 39.5207 54.012 38.9607C53.963 38.9447 53.914 38.9287 53.866 38.9127C54.123 39.0217 54.381 39.1297 54.638 39.2377C54.557 39.2037 54.483 39.1577 54.416 39.0997C54.634 39.2677 54.852 39.4367 55.07 39.6047C55.011 39.5517 54.959 39.4927 54.913 39.4277C55.082 39.6457 55.25 39.8637 55.419 40.0817C55.375 40.0177 55.334 39.9517 55.295 39.8847C54.391 38.3767 52.405 37.8267 50.872 38.7257C49.366 39.6077 48.806 41.6357 49.713 43.1477Z" fill="#F16776"/>
<path d="M20.1457 25.5189C20.7707 26.5489 21.5867 27.1839 22.7247 27.5649C24.3957 28.1259 26.2527 26.9349 26.7017 25.3079C27.1877 23.5379 26.1127 21.8919 24.4437 21.3309C24.3947 21.3149 24.3467 21.2979 24.2977 21.2819C24.5557 21.3909 24.8127 21.4989 25.0707 21.6079C24.9897 21.5739 24.9157 21.5279 24.8487 21.4699C25.0677 21.6379 25.2857 21.8069 25.5027 21.9749C25.4447 21.9219 25.3917 21.8629 25.3467 21.7979C25.5157 22.0159 25.6837 22.2339 25.8527 22.4529C25.8087 22.3889 25.7667 22.3229 25.7277 22.2559C24.8147 20.7529 22.8447 20.1949 21.3047 21.0969C19.8047 21.9749 19.2307 24.0119 20.1457 25.5189Z" fill="#F16776"/>
<path d="M25.5053 8.75616C24.6873 9.47516 24.0883 10.4302 23.4393 11.2962C22.7033 12.2762 21.8133 13.0782 21.0093 13.9902C20.8393 14.1842 21.1103 14.4752 21.3243 14.3632C22.2553 13.8812 22.9363 13.0132 23.5743 12.2022C24.3643 11.1992 25.1573 10.1162 25.7643 8.99216C25.8543 8.82616 25.6673 8.61316 25.5053 8.75616Z" fill="black"/>
<path d="M29.1154 9.1019C28.6564 10.3239 28.1674 11.6159 27.9954 12.9159C27.9674 13.1319 28.2764 13.2479 28.3934 13.0629C29.1074 11.9439 29.2234 10.5399 29.6564 9.3019C29.7784 8.9509 29.2464 8.7549 29.1154 9.1019Z" fill="black"/>
<path d="M34.6653 10.2434C34.5373 11.3524 34.4293 12.4654 34.3013 13.5744C34.2513 13.9994 34.9103 14.0594 34.9593 13.6374C35.0873 12.5254 35.0643 11.4024 35.1923 10.2934C35.2323 9.95244 34.7043 9.90444 34.6653 10.2434Z" fill="black"/>
<path d="M39.6106 11.6986C39.7416 13.3136 39.3026 14.8996 39.2776 16.5106C39.2706 16.9096 39.8666 16.9756 39.9006 16.5696C40.0426 14.9106 40.2846 13.2766 40.1026 11.6116C40.0676 11.2886 39.5856 11.3816 39.6106 11.6986Z" fill="black"/>
<path d="M43.6476 13.4139C43.6036 15.0719 43.6686 16.7339 43.4996 18.3869C43.4576 18.7919 44.0616 18.8419 44.1226 18.4459C44.3806 16.7669 44.2886 15.0809 44.1716 13.3929C44.1516 13.0939 43.6556 13.1169 43.6476 13.4139Z" fill="black"/>
<path d="M48.0705 15.6385C47.9815 17.4375 48.0185 19.2405 47.8985 21.0385C47.8665 21.5095 48.5905 21.5785 48.6275 21.1075C48.7705 19.3045 48.6675 17.5025 48.6895 15.6975C48.6945 15.3015 48.0915 15.2355 48.0705 15.6385Z" fill="black"/>
<path d="M50.8177 17.6254C50.7217 18.9314 50.3037 20.1874 50.4807 21.5064C50.5557 22.0654 51.4187 21.9114 51.3417 21.3544C51.1737 20.1344 51.5747 18.9194 51.6317 17.7024C51.6577 17.1774 50.8557 17.0974 50.8177 17.6254Z" fill="black"/>
<path d="M54.2854 20.3383C53.9114 22.6713 53.6614 24.9823 53.7694 27.3473C53.7844 27.6563 54.3184 27.6343 54.3154 27.3253C54.2944 25.0063 54.5134 22.6843 54.8344 20.3903C54.8834 20.0363 54.3414 19.9913 54.2854 20.3383Z" fill="black"/>
<path d="M58.6028 23.3983C58.7168 25.5443 58.6478 27.7133 58.4008 29.8483C58.3478 30.3053 59.0608 30.3713 59.1098 29.9153C59.3468 27.7093 59.2868 25.5223 59.0498 23.3193C59.0188 23.0233 58.5868 23.1133 58.6028 23.3983Z" fill="black"/>
<path d="M61.7522 26.8816C61.3692 28.8366 61.6542 30.8306 61.3572 32.7916C61.2842 33.2816 62.0092 33.3246 62.1072 32.8626C62.5242 30.9046 62.1782 28.9196 62.5062 26.9526C62.5872 26.4656 61.8442 26.4106 61.7522 26.8816Z" fill="black"/>
<path d="M63.5295 30.1381C63.5965 31.5471 63.2155 32.9431 62.9255 34.3101C62.8345 34.7381 63.5675 34.9041 63.6725 34.4811C64.0375 33.0011 64.3835 31.5431 64.2695 30.0071C64.2335 29.5191 63.5065 29.6641 63.5295 30.1381Z" fill="black"/>
<path d="M65.6986 33.9701C65.1946 35.3081 64.9736 36.7491 64.3566 38.0461C64.1726 38.4331 64.8126 38.7691 65.0226 38.3941C65.7616 37.0771 65.9606 35.6551 66.4326 34.2411C66.5936 33.7631 65.8766 33.4971 65.6986 33.9701Z" fill="black"/>
<path d="M70.471 31.1644C70.209 33.0774 69.944 35.0054 69.376 36.8554C69.232 37.3294 69.959 37.5964 70.097 37.1224C70.659 35.1854 70.781 33.2084 70.985 31.2134C71.018 30.8804 70.516 30.8374 70.471 31.1644Z" fill="black"/>
<path d="M67.9252 22.7328C68.4772 24.2838 69.1362 25.8008 69.3672 27.4418C69.4392 27.9418 70.2092 27.8048 70.1392 27.3058C69.8972 25.5928 69.1612 24.0418 68.5092 22.4558C68.3492 22.0648 67.7882 22.3468 67.9252 22.7328Z" fill="black"/>
<path d="M65.5325 16.5448C66.4855 17.4618 66.7265 19.1338 66.9515 20.3808C67.0255 20.7918 67.6625 20.6798 67.5885 20.2688C67.3335 18.8528 67.0225 17.1658 65.8265 16.2228C65.6325 16.0698 65.3525 16.3708 65.5325 16.5448Z" fill="black"/>
<path d="M57.548 11.9599C57.652 13.7909 58.437 15.4929 58.577 17.3169C58.604 17.6659 59.189 17.6409 59.193 17.2929C59.213 15.3929 58.421 13.7049 58.214 11.8429C58.165 11.4009 57.524 11.5359 57.548 11.9599Z" fill="black"/>
<path d="M52.5404 11.1649C52.7504 12.3569 53.0744 13.5759 52.9764 14.7949C52.9494 15.1179 53.3994 15.1419 53.4644 14.8409C53.7404 13.5449 53.3924 12.3299 53.1514 11.0579C53.0774 10.6639 52.4714 10.7699 52.5404 11.1649Z" fill="black"/>
<path d="M45.8773 6.37877C45.1083 7.74077 44.3353 9.09777 43.6243 10.4918C43.4543 10.8238 44.0133 11.1128 44.2003 10.7938C44.9793 9.46877 45.6923 8.11077 46.4103 6.75277C46.6033 6.38877 46.0853 6.00877 45.8773 6.37877Z" fill="black"/>
<path d="M36.419 5.36168C35.605 6.53168 34.628 7.56868 33.786 8.71668C33.476 9.14068 34.143 9.60568 34.452 9.18368C35.31 8.01368 36.316 6.95768 36.916 5.62168C37.05 5.32268 36.599 5.10268 36.419 5.36168Z" fill="black"/>
<path d="M27.5911 5.62828C25.7241 6.47528 24.1181 7.73628 22.5611 9.05228C22.2411 9.32128 22.6531 9.80628 22.9791 9.54528C24.5231 8.30328 26.0381 7.00628 27.8271 6.12528C28.1461 5.96828 27.9151 5.48128 27.5911 5.62828Z" fill="black"/>
<path d="M20.796 7.08489C19.814 8.22489 18.025 8.70089 17.366 10.1119C17.225 10.4159 17.643 10.6709 17.878 10.4709C18.471 9.96689 18.999 9.42489 19.63 8.96089C20.241 8.51189 20.841 8.04989 21.292 7.43289C21.527 7.11089 21.046 6.79489 20.796 7.08489Z" fill="black"/>
<path d="M30.8704 1.44024C29.4524 2.00324 28.1414 2.67824 26.8914 3.54924C26.5944 3.75724 26.9184 4.24524 27.2344 4.08024C28.5374 3.39624 29.8394 2.69824 31.2044 2.14324C31.6694 1.95424 31.3344 1.25624 30.8704 1.44024Z" fill="black"/>
<path d="M34.8244 1.29727C33.6524 2.20727 32.4744 3.12427 31.2524 3.96527C30.9484 4.17427 31.2824 4.68827 31.6024 4.50827C32.9424 3.75727 34.1354 2.85227 35.3404 1.90527C35.7454 1.58827 35.2294 0.982266 34.8244 1.29727Z" fill="black"/>
<path d="M40.3235 0.909087C39.0155 1.60609 37.9455 2.61209 36.7515 3.47009C36.4315 3.69909 36.7805 4.23309 37.1235 4.04609C38.3865 3.35509 39.4295 2.36309 40.6825 1.66709C41.1515 1.40709 40.8025 0.654087 40.3235 0.909087Z" fill="black"/>
<path d="M42.7482 2.91536C42.0992 4.08336 41.3522 5.25636 40.4582 6.25436C40.1992 6.54236 40.6822 6.97736 40.9582 6.70936C41.9912 5.70936 42.5992 4.53236 43.2732 3.28336C43.4682 2.92536 42.9502 2.55236 42.7482 2.91536Z" fill="black"/>
<path d="M48.3079 4.20106C47.9199 4.89206 47.5789 5.55806 47.4059 6.33506C47.3109 6.75906 48.0039 6.90206 48.1379 6.50206C48.3539 5.85706 48.6299 5.25106 48.9529 4.65306C49.1899 4.21306 48.5569 3.75506 48.3079 4.20106Z" fill="black"/>
<path d="M51.0021 6.23229C51.1501 6.85529 51.1811 7.50029 51.2571 8.13529C51.3221 8.68529 52.1191 8.51829 52.0871 7.98829C52.0491 7.34629 51.9811 6.71129 51.7931 6.09229C51.6471 5.61029 50.8801 5.71929 51.0021 6.23229Z" fill="black"/>
<path d="M55.7951 7.43884C56.3401 8.20984 56.8751 9.00584 57.2411 9.87984C57.3831 10.2178 57.9231 10.0408 57.8521 9.68484C57.7501 9.18284 57.6311 8.69784 57.3671 8.25584C57.0851 7.78584 56.7441 7.35084 56.3691 6.95184C56.0331 6.59484 55.5171 7.04484 55.7951 7.43884Z" fill="black"/>
<path d="M59.6037 9.30944C60.2417 10.8214 60.8097 12.3574 61.4577 13.8644C61.5827 14.1554 61.9857 13.9434 61.8917 13.6584C61.3727 12.0764 60.7527 10.6094 59.9647 9.13844C59.8427 8.91244 59.5037 9.07144 59.6037 9.30944Z" fill="black"/>
<path d="M62.9416 20.4163C63.0626 20.9953 63.2986 21.5143 63.5766 22.0343C63.8856 22.6133 64.3276 23.1623 64.5186 23.7913C64.6006 24.0603 64.9926 24.0043 64.9566 23.7133C64.8856 23.1423 64.7566 22.5753 64.4806 22.0653C64.1686 21.4873 63.8376 20.9323 63.6976 20.2823C63.5936 19.8003 62.8396 19.9303 62.9416 20.4163Z" fill="black"/>
<path d="M66.757 27.7782C66.935 28.4362 67.117 29.0912 67.188 29.7712C67.244 30.3172 68.075 30.1632 68.024 29.6232C67.958 28.9372 67.777 28.2912 67.573 27.6342C67.419 27.1362 66.616 27.2562 66.757 27.7782Z" fill="black"/>
<path d="M68.4622 33.1717C68.1532 33.7347 68.0322 34.1877 68.2422 34.8117C68.4002 35.2827 69.0942 35.0047 69.0382 34.5577C68.9992 34.2387 69.0692 33.9807 69.2202 33.7017C69.4992 33.1847 68.7492 32.6477 68.4622 33.1717Z" fill="black"/>
<path d="M4.94848 64.0731C7.15748 63.3691 9.46648 63.2421 11.6735 62.5291C14.1645 61.7231 16.5655 60.5991 18.9735 59.5791C21.5445 58.4911 24.1075 57.4061 26.6165 56.1811C27.7455 55.6291 28.9055 55.1841 30.0445 54.6631C30.9385 54.2521 31.8215 53.5601 32.8055 53.3811C33.6395 53.2291 33.4085 51.9991 32.5795 52.0951C30.9215 52.2881 29.5375 53.6221 27.9255 54.0561C26.7325 54.3781 25.4805 55.2931 24.3605 55.8331C22.9685 56.5041 21.5485 57.1181 20.1305 57.7321C17.4265 58.9041 14.7515 60.1561 12.0205 61.2661C9.62848 62.2391 7.04748 62.4781 4.68248 63.5151C4.30748 63.6801 4.58248 64.1901 4.94848 64.0731Z" fill="black"/>
<path d="M0.0325282 61.6503C0.875528 61.8503 1.73153 62.2933 2.55053 62.5953C3.02053 62.7693 3.44953 63.0133 3.85053 63.3123C4.29153 63.6403 4.54253 64.1343 4.99853 64.4363C5.23253 64.5913 5.47353 64.3923 5.46053 64.1413C5.40953 63.1603 4.36053 62.5493 3.55453 62.1903C2.41753 61.6823 1.22153 61.8773 0.0675282 61.5563C0.00552822 61.5393 -0.0294718 61.6353 0.0325282 61.6503Z" fill="black"/>
<path d="M1.1408 68.1404C1.2048 68.1404 1.2148 68.0404 1.1508 68.0404C1.0858 68.0404 1.0768 68.1404 1.1408 68.1404Z" fill="black"/>
<path d="M1.67403 68.4345C2.58403 67.9495 3.46003 67.4295 4.29203 66.8205C4.98803 66.3115 6.04603 65.6285 6.29103 64.7645C6.39303 64.4075 6.07003 64.0845 5.71503 64.2365C4.93103 64.5695 4.29003 65.4855 3.62303 66.0315C2.86203 66.6545 2.06303 67.2315 1.29203 67.8425C0.977035 68.0915 1.31703 68.6245 1.67403 68.4345Z" fill="black"/>
<path d="M2.58429 65.4042C3.10329 65.2022 3.62029 65.0062 4.13529 64.7922C4.66829 64.5702 5.31029 64.4482 5.73729 64.0432C5.91329 63.8762 5.81429 63.6292 5.59329 63.5822C5.03129 63.4642 4.48629 63.7632 3.99429 64.0042C3.43129 64.2792 2.90829 64.6322 2.34629 64.9032C2.02129 65.0592 2.25429 65.5332 2.58429 65.4042Z" fill="black"/>
<path d="M52.6574 53.3055C52.7214 53.3055 52.7314 53.2055 52.6674 53.2055C52.6024 53.2055 52.5934 53.3055 52.6574 53.3055Z" fill="black"/>
<path d="M52.923 53.5868C59.961 55.7818 67.144 58.1538 74.583 58.3448C75.446 58.3668 75.576 57.0288 74.71 57.0068C67.293 56.8158 60.322 54.1638 53.069 52.9528C52.7 52.8908 52.57 53.4768 52.923 53.5868Z" fill="black"/>
<path d="M76.8186 56.9109C77.4986 57.4319 78.3296 57.4199 79.1326 57.2709C79.9456 57.1199 81.0056 56.8469 81.6756 56.3489C81.8236 56.2399 81.8826 56.0299 81.8546 55.8549C81.8566 55.8909 81.8586 55.9269 81.8606 55.9629C81.9306 55.8009 81.8286 55.6049 81.6696 55.5459C81.6916 55.5659 81.7146 55.5859 81.7376 55.6059C81.6256 55.4629 81.4196 55.3929 81.2436 55.4279C80.6396 55.5449 80.0596 55.9149 79.4846 56.1329C78.8616 56.3689 77.7696 56.8139 77.1276 56.4699C76.8276 56.3079 76.5356 56.6939 76.8186 56.9109Z" fill="black"/>
<path d="M76.2602 60.0663C77.3232 60.6033 77.9002 61.9653 78.6962 62.7973C79.2422 63.3693 80.0982 62.6413 79.6292 62.0053C78.8192 60.9033 77.8512 59.7883 76.5512 59.2823C76.0352 59.0823 75.7922 59.8303 76.2602 60.0663Z" fill="black"/>
<path d="M78.2952 59.4612C79.1082 59.5862 80.0442 59.9182 80.7952 59.4302C80.9832 59.3082 80.9102 59.0422 80.7722 58.9232C80.1342 58.3792 79.1362 58.6032 78.3752 58.6212C77.8402 58.6342 77.7472 59.3772 78.2952 59.4612Z" fill="black"/>
<path d="M11.8459 42.0575C11.9099 42.0575 11.9199 41.9575 11.8559 41.9575C11.7909 41.9575 11.7819 42.0575 11.8459 42.0575Z" fill="black"/>
<path d="M0.347735 61.0917C0.411735 61.0917 0.421735 60.9917 0.357735 60.9917C0.293735 60.9917 0.283735 61.0917 0.347735 61.0917Z" fill="black"/>
<path d="M50.2395 99.9755C51.0375 103.116 52.7715 106.054 53.1915 109.278C53.3445 109.111 53.4995 108.944 53.6525 108.778C51.0535 108.404 48.3975 110.433 45.9365 109.074L46.0515 109.72C46.9225 108.66 48.1925 108.422 49.4795 108.251C50.2225 108.152 51.0435 108.277 51.6365 107.774C51.8055 107.631 51.7465 107.371 51.5515 107.289C50.6505 106.911 49.3065 107.309 48.3755 107.469C47.1385 107.681 46.0845 108.215 45.2915 109.187C45.1435 109.369 45.1945 109.718 45.4055 109.833C48.1975 111.363 50.6885 109.267 53.5725 109.629C53.8285 109.662 54.1095 109.395 54.0335 109.129C53.1215 105.935 51.7965 102.953 50.6025 99.8595C50.5245 99.6585 50.1865 99.7665 50.2395 99.9755Z" fill="black"/>
</svg>
